<?xml version="1.0" encoding="utf-8"?>
<!-- Generator: Adobe Illustrator 25.0.1, SVG Export Plug-In . SVG Version: 6.00 Build 0)  -->
<svg version="1.1" xmlns="http://www.w3.org/2000/svg" xmlns:xlink="http://www.w3.org/1999/xlink" x="0px" y="0px"
	 viewBox="0 0 1080 1080" style="enable-background:new 0 0 1080 1080;" xml:space="preserve">
<style type="text/css">
	.st0{opacity:0.35;}
	.st1{opacity:0;fill:#231F20;}
	.st2{opacity:1.960784e-02;fill:#231F20;}
	.st3{opacity:3.921569e-02;fill:#231F20;}
	.st4{opacity:5.882353e-02;fill:#231F20;}
	.st5{opacity:7.843138e-02;fill:#231F20;}
	.st6{opacity:9.803922e-02;fill:#231F20;}
	.st7{opacity:0.1176;fill:#231F20;}
	.st8{opacity:0.1373;fill:#231F20;}
	.st9{opacity:0.1569;fill:#231F20;}
	.st10{opacity:0.1765;fill:#231F20;}
	.st11{opacity:0.1961;fill:#231F20;}
	.st12{opacity:0.2157;fill:#231F20;}
	.st13{opacity:0.2353;fill:#231F20;}
	.st14{opacity:0.2549;fill:#231F20;}
	.st15{opacity:0.2745;fill:#231F20;}
	.st16{opacity:0.2941;fill:#231F20;}
	.st17{opacity:0.3137;fill:#231F20;}
	.st18{opacity:0.3333;fill:#231F20;}
	.st19{opacity:0.3529;fill:#231F20;}
	.st20{opacity:0.3725;fill:#231F20;}
	.st21{opacity:0.3922;fill:#231F20;}
	.st22{opacity:0.4118;fill:#231F20;}
	.st23{opacity:0.4314;fill:#231F20;}
	.st24{opacity:0.451;fill:#231F20;}
	.st25{opacity:0.4706;fill:#231F20;}
	.st26{opacity:0.4902;fill:#231F20;}
	.st27{opacity:0.5098;fill:#231F20;}
	.st28{opacity:0.5294;fill:#231F20;}
	.st29{opacity:0.549;fill:#231F20;}
	.st30{opacity:0.5686;fill:#231F20;}
	.st31{opacity:0.5882;fill:#231F20;}
	.st32{opacity:0.6078;fill:#231F20;}
	.st33{opacity:0.6275;fill:#231F20;}
	.st34{opacity:0.6471;fill:#231F20;}
	.st35{opacity:0.6667;fill:#231F20;}
	.st36{opacity:0.6863;fill:#231F20;}
	.st37{opacity:0.7059;fill:#231F20;}
	.st38{opacity:0.7255;fill:#231F20;}
	.st39{opacity:0.7451;fill:#231F20;}
	.st40{opacity:0.7647;fill:#231F20;}
	.st41{opacity:0.7843;fill:#231F20;}
	.st42{opacity:0.8039;fill:#231F20;}
	.st43{opacity:0.8235;fill:#231F20;}
	.st44{opacity:0.8431;fill:#231F20;}
	.st45{opacity:0.8627;fill:#231F20;}
	.st46{opacity:0.8824;fill:#231F20;}
	.st47{opacity:0.902;fill:#231F20;}
	.st48{opacity:0.9216;fill:#231F20;}
	.st49{opacity:0.9412;fill:#231F20;}
	.st50{opacity:0.9608;fill:#231F20;}
	.st51{opacity:0.9804;fill:#231F20;}
	.st52{fill:#231F20;}
	.st53{fill:url(#SVGID_1_);}
	.st54{fill:url(#SVGID_2_);}
	.st55{fill:url(#SVGID_3_);}
	.st56{opacity:0.54;fill:#FFFFFF;}
	.st57{fill:#D3D3D1;}
	.st58{fill:#FF9700;}
	.st59{fill:#FF9F43;}
	.st60{fill:url(#SVGID_4_);}
	.st61{fill:url(#SVGID_5_);}
	.st62{fill:url(#SVGID_6_);}
	.st63{opacity:0.46;}
	.st64{fill:url(#SVGID_7_);}
	.st65{fill:url(#SVGID_8_);}
	.st66{fill:url(#SVGID_9_);}
	.st67{fill:url(#SVGID_10_);}
	.st68{fill:url(#SVGID_11_);}
	.st69{fill:url(#SVGID_12_);}
	.st70{fill:url(#SVGID_13_);}
	.st71{fill:url(#SVGID_14_);}
	.st72{fill:url(#SVGID_15_);}
	.st73{fill:url(#SVGID_16_);}
	.st74{fill:url(#SVGID_17_);}
	.st75{fill:url(#SVGID_18_);}
	.st76{fill:#6B757F;}
	.st77{fill:url(#SVGID_19_);}
	.st78{fill:url(#SVGID_20_);}
	.st79{fill:url(#SVGID_21_);}
	.st80{fill:#FFFFFF;}
	.st81{fill:url(#SVGID_22_);}
	.st82{fill:url(#SVGID_23_);}
	.st83{fill:url(#SVGID_24_);}
	.st84{fill:url(#SVGID_25_);}
	.st85{fill:#8C959D;}
	.st86{fill:#858E8D;}
	.st87{fill:url(#SVGID_26_);}
	.st88{fill:url(#SVGID_27_);}
	.st89{fill:url(#SVGID_28_);}
	.st90{fill:url(#SVGID_29_);}
	.st91{fill:url(#SVGID_30_);}
	.st92{fill:url(#SVGID_31_);}
	.st93{fill:url(#SVGID_32_);}
	.st94{fill:url(#SVGID_33_);}
	.st95{fill:url(#SVGID_34_);}
	.st96{fill:url(#SVGID_35_);}
	.st97{fill:url(#SVGID_36_);}
	.st98{fill:url(#SVGID_37_);}
	.st99{fill:url(#SVGID_38_);}
	.st100{fill:url(#SVGID_39_);}
	.st101{fill:#FEFEFF;}
	.st102{fill:#0F0D0E;}
	.st103{fill-rule:evenodd;clip-rule:evenodd;fill:#24292F;}
	.st104{fill:url(#SVGID_40_);}
	.st105{fill:url(#SVGID_41_);}
	.st106{fill:url(#SVGID_42_);}
	.st107{fill:url(#SVGID_43_);}
	.st108{fill:url(#SVGID_44_);}
	.st109{opacity:0.45;}
	.st110{fill:none;stroke:#231F20;stroke-width:4.619;stroke-miterlimit:10;}
	.st111{fill:none;stroke:#231F20;stroke-width:4.2487;stroke-miterlimit:10;}
	.st112{fill:none;stroke:#231F20;stroke-width:4.7724;stroke-miterlimit:10;}
	.st113{fill:none;stroke:#231F20;stroke-width:4.9798;stroke-miterlimit:10;}
	.st114{fill:none;stroke:#231F20;stroke-width:4.3657;stroke-miterlimit:10;}
	.st115{fill:url(#SVGID_45_);}
	.st116{fill:none;stroke:#485654;stroke-width:4.524;stroke-miterlimit:10;}
	.st117{fill:none;stroke:#485654;stroke-width:5.0504;stroke-miterlimit:10;}
	.st118{fill:none;stroke:#485654;stroke-width:4.0187;stroke-miterlimit:10;}
	.st119{opacity:0.72;fill:url(#SVGID_46_);}
	.st120{opacity:0.72;}
	.st121{opacity:0.72;fill:url(#SVGID_47_);}
	.st122{opacity:0.72;fill:url(#SVGID_48_);}
	.st123{opacity:0.72;fill:url(#SVGID_49_);}
	.st124{opacity:0.72;fill:url(#SVGID_50_);}
	.st125{fill:none;stroke:#747678;stroke-width:8.2175;stroke-miterlimit:10;}
	.st126{fill:none;stroke:#747678;stroke-width:8.2175;stroke-miterlimit:10;stroke-dasharray:1.991300e-02,21.8084,10.9092,0;}
	
		.st127{fill:none;stroke:#747678;stroke-width:8.2175;stroke-miterlimit:10;stroke-dasharray:21.8183,10.8992,1.991300e-02,21.8084,10.9092,0;}
	.st128{fill:url(#SVGID_51_);}
	.st129{fill:url(#SVGID_52_);}
	.st130{fill:url(#SVGID_53_);}
	.st131{fill:url(#SVGID_54_);}
	.st132{fill:url(#SVGID_55_);}
	.st133{fill:#C4C6C8;}
	.st134{fill:url(#SVGID_56_);}
	.st135{fill:url(#SVGID_57_);}
	.st136{fill:#24292F;}
	.st137{fill:#FCFCFE;}
	.st138{fill:url(#SVGID_58_);}
	.st139{fill:url(#SVGID_59_);}
	.st140{fill:url(#SVGID_60_);}
	.st141{fill:url(#SVGID_61_);}
	.st142{fill:url(#SVGID_62_);}
	.st143{fill:url(#SVGID_63_);}
	.st144{fill:url(#SVGID_64_);}
	.st145{fill:url(#SVGID_65_);}
	.st146{fill:url(#SVGID_66_);}
	.st147{fill:url(#SVGID_67_);}
	.st148{fill:url(#SVGID_68_);}
	.st149{fill:url(#SVGID_69_);}
	.st150{fill:url(#SVGID_70_);}
	.st151{fill:url(#SVGID_71_);}
	.st152{fill:url(#SVGID_72_);}
	.st153{fill:url(#SVGID_73_);}
	.st154{fill:url(#SVGID_74_);}
	.st155{fill:url(#SVGID_75_);}
	.st156{fill:url(#SVGID_76_);}
	.st157{fill:url(#SVGID_77_);}
	.st158{fill:url(#SVGID_78_);}
	.st159{fill:url(#SVGID_79_);}
	.st160{fill:url(#SVGID_80_);}
	.st161{fill:url(#SVGID_81_);}
	.st162{fill:url(#SVGID_82_);}
	.st163{fill:url(#SVGID_83_);}
	.st164{fill:url(#SVGID_84_);}
	.st165{fill:url(#SVGID_85_);}
	.st166{fill:url(#SVGID_86_);}
	.st167{fill:url(#SVGID_87_);}
	.st168{fill:url(#SVGID_88_);}
	.st169{fill:url(#SVGID_89_);}
	.st170{fill:url(#SVGID_90_);}
	.st171{fill:url(#SVGID_91_);}
	.st172{fill:url(#SVGID_92_);}
	.st173{fill:url(#SVGID_93_);}
</style>
<g id="Layer_1">
</g>
<g id="Step_2">
</g>
<g id="Step_3">
</g>
<g id="Step_4">
	<g>
		<g class="st0">
			
				<ellipse transform="matrix(4.302964e-02 -0.9991 0.9991 4.302964e-02 -343.9399 940.7191)" class="st1" cx="319.1" cy="649.9" rx="52.2" ry="137.9"/>
			
				<ellipse transform="matrix(4.308572e-02 -0.9991 0.9991 4.308572e-02 -343.088 940.482)" class="st2" cx="319.4" cy="649.3" rx="51.5" ry="136.2"/>
			
				<ellipse transform="matrix(4.314321e-02 -0.9991 0.9991 4.314321e-02 -342.2366 940.244)" class="st3" cx="319.7" cy="648.8" rx="50.8" ry="134.5"/>
			
				<ellipse transform="matrix(4.320217e-02 -0.9991 0.9991 4.320217e-02 -341.3856 940.005)" class="st4" cx="320.1" cy="648.2" rx="50.2" ry="132.7"/>
			
				<ellipse transform="matrix(4.326264e-02 -0.9991 0.9991 4.326264e-02 -340.5351 939.7651)" class="st5" cx="320.4" cy="647.7" rx="49.5" ry="131"/>
			
				<ellipse transform="matrix(4.332469e-02 -0.9991 0.9991 4.332469e-02 -339.6852 939.5243)" class="st6" cx="320.7" cy="647.1" rx="48.8" ry="129.3"/>
			
				<ellipse transform="matrix(4.338839e-02 -0.9991 0.9991 4.338839e-02 -338.8357 939.2824)" class="st7" cx="321.1" cy="646.6" rx="48.1" ry="127.6"/>
			
				<ellipse transform="matrix(4.345379e-02 -0.9991 0.9991 4.345379e-02 -337.9868 939.0395)" class="st8" cx="321.4" cy="646" rx="47.4" ry="125.8"/>
			
				<ellipse transform="matrix(4.352096e-02 -0.9991 0.9991 4.352096e-02 -337.1384 938.7955)" class="st9" cx="321.7" cy="645.5" rx="46.7" ry="124.1"/>
			
				<ellipse transform="matrix(4.358999e-02 -0.999 0.999 4.358999e-02 -336.2906 938.5503)" class="st10" cx="322.1" cy="644.9" rx="46" ry="122.4"/>
			
				<ellipse transform="matrix(4.366094e-02 -0.999 0.999 4.366094e-02 -335.4435 938.3039)" class="st11" cx="322.4" cy="644.4" rx="45.4" ry="120.7"/>
			
				<ellipse transform="matrix(4.373391e-02 -0.999 0.999 4.373391e-02 -334.597 938.0563)" class="st12" cx="322.7" cy="643.8" rx="44.7" ry="119"/>
			
				<ellipse transform="matrix(4.380897e-02 -0.999 0.999 4.380897e-02 -333.7512 937.8073)" class="st13" cx="323" cy="643.3" rx="44" ry="117.2"/>
			
				<ellipse transform="matrix(4.388621e-02 -0.999 0.999 4.388621e-02 -332.906 937.5571)" class="st14" cx="323.4" cy="642.7" rx="43.3" ry="115.5"/>
			
				<ellipse transform="matrix(4.396575e-02 -0.999 0.999 4.396575e-02 -332.0616 937.3054)" class="st15" cx="323.7" cy="642.2" rx="42.6" ry="113.8"/>
			
				<ellipse transform="matrix(4.404767e-02 -0.999 0.999 4.404767e-02 -331.2179 937.0521)" class="st16" cx="324" cy="641.6" rx="41.9" ry="112.1"/>
			
				<ellipse transform="matrix(4.413209e-02 -0.999 0.999 4.413209e-02 -330.375 936.7974)" class="st17" cx="324.4" cy="641" rx="41.3" ry="110.4"/>
			
				<ellipse transform="matrix(4.421913e-02 -0.999 0.999 4.421913e-02 -329.533 936.5411)" class="st18" cx="324.7" cy="640.5" rx="40.6" ry="108.6"/>
			
				<ellipse transform="matrix(4.430889e-02 -0.999 0.999 4.430889e-02 -328.6918 936.283)" class="st19" cx="325" cy="639.9" rx="39.9" ry="106.9"/>
			
				<ellipse transform="matrix(4.440153e-02 -0.999 0.999 4.440153e-02 -327.8516 936.0231)" class="st20" cx="325.3" cy="639.4" rx="39.2" ry="105.2"/>
			
				<ellipse transform="matrix(4.449718e-02 -0.999 0.999 4.449718e-02 -327.0122 935.7614)" class="st21" cx="325.7" cy="638.8" rx="38.5" ry="103.5"/>
			
				<ellipse transform="matrix(4.459598e-02 -0.999 0.999 4.459598e-02 -326.174 935.4977)" class="st22" cx="326" cy="638.3" rx="37.8" ry="101.7"/>
			
				<ellipse transform="matrix(4.469810e-02 -0.999 0.999 4.469810e-02 -325.3367 935.2321)" class="st23" cx="326.3" cy="637.7" rx="37.2" ry="100"/>
			
				<ellipse transform="matrix(4.480370e-02 -0.999 0.999 4.480370e-02 -324.5005 934.9642)" class="st24" cx="326.7" cy="637.2" rx="36.5" ry="98.3"/>
			
				<ellipse transform="matrix(4.491298e-02 -0.999 0.999 4.491298e-02 -323.6655 934.694)" class="st25" cx="327" cy="636.6" rx="35.8" ry="96.6"/>
			
				<ellipse transform="matrix(4.502611e-02 -0.999 0.999 4.502611e-02 -322.8318 934.4214)" class="st26" cx="327.3" cy="636.1" rx="35.1" ry="94.9"/>
			
				<ellipse transform="matrix(4.514331e-02 -0.999 0.999 4.514331e-02 -321.9993 934.1463)" class="st27" cx="327.7" cy="635.5" rx="34.4" ry="93.1"/>
			
				<ellipse transform="matrix(4.526481e-02 -0.999 0.999 4.526481e-02 -321.1682 933.8685)" class="st28" cx="328" cy="635" rx="33.7" ry="91.4"/>
			
				<ellipse transform="matrix(4.539085e-02 -0.999 0.999 4.539085e-02 -320.3385 933.588)" class="st29" cx="328.3" cy="634.4" rx="33" ry="89.7"/>
			
				<ellipse transform="matrix(4.552168e-02 -0.999 0.999 4.552168e-02 -319.5103 933.3043)" class="st30" cx="328.6" cy="633.9" rx="32.4" ry="88"/>
			
				<ellipse transform="matrix(4.565758e-02 -0.999 0.999 4.565758e-02 -318.6838 933.0176)" class="st31" cx="329" cy="633.3" rx="31.7" ry="86.3"/>
			
				<ellipse transform="matrix(4.579886e-02 -0.999 0.999 4.579886e-02 -317.8589 932.7275)" class="st32" cx="329.3" cy="632.7" rx="31" ry="84.5"/>
			
				<ellipse transform="matrix(4.594583e-02 -0.9989 0.9989 4.594583e-02 -317.0358 932.434)" class="st33" cx="329.6" cy="632.2" rx="30.3" ry="82.8"/>
			
				<ellipse transform="matrix(4.609887e-02 -0.9989 0.9989 4.609887e-02 -316.2147 932.1365)" class="st34" cx="330" cy="631.6" rx="29.6" ry="81.1"/>
			
				<ellipse transform="matrix(4.625833e-02 -0.9989 0.9989 4.625833e-02 -315.3956 931.8352)" class="st35" cx="330.3" cy="631.1" rx="28.9" ry="79.4"/>
			
				<ellipse transform="matrix(4.642465e-02 -0.9989 0.9989 4.642465e-02 -314.5786 931.5295)" class="st36" cx="330.6" cy="630.5" rx="28.3" ry="77.6"/>
			
				<ellipse transform="matrix(4.659827e-02 -0.9989 0.9989 4.659827e-02 -313.7639 931.2194)" class="st37" cx="331" cy="630" rx="27.6" ry="75.9"/>
			
				<ellipse transform="matrix(4.677968e-02 -0.9989 0.9989 4.677968e-02 -312.9518 930.9043)" class="st38" cx="331.3" cy="629.4" rx="26.9" ry="74.2"/>
			
				<ellipse transform="matrix(4.696943e-02 -0.9989 0.9989 4.696943e-02 -312.1422 930.5841)" class="st39" cx="331.6" cy="628.9" rx="26.2" ry="72.5"/>
			
				<ellipse transform="matrix(4.716810e-02 -0.9989 0.9989 4.716810e-02 -311.3354 930.2583)" class="st40" cx="331.9" cy="628.3" rx="25.5" ry="70.8"/>
			
				<ellipse transform="matrix(4.737633e-02 -0.9989 0.9989 4.737633e-02 -310.5317 929.9266)" class="st41" cx="332.3" cy="627.8" rx="24.8" ry="69"/>
			
				<ellipse transform="matrix(4.759484e-02 -0.9989 0.9989 4.759484e-02 -309.7311 929.5884)" class="st42" cx="332.6" cy="627.2" rx="24.1" ry="67.3"/>
			
				<ellipse transform="matrix(4.782440e-02 -0.9989 0.9989 4.782440e-02 -308.9341 929.2435)" class="st43" cx="332.9" cy="626.7" rx="23.5" ry="65.6"/>
			
				<ellipse transform="matrix(4.806589e-02 -0.9988 0.9988 4.806589e-02 -308.1408 928.891)" class="st44" cx="333.3" cy="626.1" rx="22.8" ry="63.9"/>
			
				<ellipse transform="matrix(4.832024e-02 -0.9988 0.9988 4.832024e-02 -307.3515 928.5305)" class="st45" cx="333.6" cy="625.6" rx="22.1" ry="62.2"/>
			
				<ellipse transform="matrix(4.858853e-02 -0.9988 0.9988 4.858853e-02 -306.5666 928.1614)" class="st46" cx="333.9" cy="625" rx="21.4" ry="60.4"/>
			
				<ellipse transform="matrix(4.887194e-02 -0.9988 0.9988 4.887194e-02 -305.7865 927.7828)" class="st47" cx="334.3" cy="624.4" rx="20.7" ry="58.7"/>
			
				<ellipse transform="matrix(4.917177e-02 -0.9988 0.9988 4.917177e-02 -305.0114 927.394)" class="st48" cx="334.6" cy="623.9" rx="20" ry="57"/>
			
				<ellipse transform="matrix(4.948951e-02 -0.9988 0.9988 4.948951e-02 -304.242 926.9941)" class="st49" cx="334.9" cy="623.3" rx="19.4" ry="55.3"/>
			
				<ellipse transform="matrix(4.982682e-02 -0.9988 0.9988 4.982682e-02 -303.4788 926.5818)" class="st50" cx="335.2" cy="622.8" rx="18.7" ry="53.5"/>
			
				<ellipse transform="matrix(5.018556e-02 -0.9987 0.9987 5.018556e-02 -302.7221 926.1563)" class="st51" cx="335.6" cy="622.2" rx="18" ry="51.8"/>
			
				<ellipse transform="matrix(5.056785e-02 -0.9987 0.9987 5.056785e-02 -301.9729 925.7161)" class="st52" cx="335.9" cy="621.7" rx="17.3" ry="50.1"/>
		</g>
		<linearGradient id="SVGID_1_" gradientUnits="userSpaceOnUse" x1="546.6179" y1="645.72" x2="404.1498" y2="319.4221">
			<stop  offset="0" style="stop-color:#5D5E61"/>
			<stop  offset="0.7039" style="stop-color:#8C959D"/>
			<stop  offset="1" style="stop-color:#7D8589"/>
		</linearGradient>
		<path class="st53" d="M661.8,313.9H304.5c-21.8,0-41,17.5-42.8,39.1l-19.9,233.5c-1.8,21.6,14.3,39.1,36.1,39.1L641,640.1
			c21.8,0,41-17.5,42.8-39.1l14.1-247.9C699.8,331.4,683.6,313.9,661.8,313.9z"/>
		<linearGradient id="SVGID_2_" gradientUnits="userSpaceOnUse" x1="496.9717" y1="670.826" x2="382.0781" y2="-32.3229">
			<stop  offset="0" style="stop-color:#5D5E61"/>
			<stop  offset="0.7039" style="stop-color:#8C959D"/>
			<stop  offset="1" style="stop-color:#7D8589"/>
		</linearGradient>
		<path class="st54" d="M655,307.1H297.7c-21.8,0-41,17.5-42.8,39.1l-19.9,233.5c-1.8,21.6,14.3,39.1,36.1,39.1l363.1,14.4
			c21.8,0,41-17.5,42.8-39.1l14.1-247.9C693,324.6,676.8,307.1,655,307.1z"/>
		
			<linearGradient id="SVGID_3_" gradientUnits="userSpaceOnUse" x1="653.2926" y1="643.8278" x2="727.1627" y2="410.1731" gradientTransform="matrix(1 0 -8.470000e-02 0.9912 -192.4566 -20.3323)">
			<stop  offset="0" style="stop-color:#E7E7E7"/>
			<stop  offset="1" style="stop-color:#FFFFFF"/>
		</linearGradient>
		<path class="st55" d="M268.7,608.4c-7.2,0-13.7-2.7-18.2-7.7c-4.5-4.9-6.6-11.5-6-18.5l20.2-236.4c1.3-15.6,15.3-28.3,31-28.3
			l361.7,0c7.2,0,13.7,2.7,18.2,7.7c4.5,4.9,6.6,11.5,6,18.5L667.3,595c-1.3,15.2-15.1,27.8-30.8,28L268.7,608.4z"/>
		<path class="st56" d="M680.6,317.3c6.4,7.1,10,16.8,9,27.5l-14.1,247.9c-1.8,21.6-21,39.1-42.8,39.1l-363.1-14.4
			c-10.2,0-19.2-3.9-25.6-10.2c6.5,7.2,16.1,11.7,27.1,11.7l363.1,14.4c21.8,0,41-17.5,42.8-39.1l14.1-247.9
			C692.1,334.8,688,324.5,680.6,317.3z"/>
		<g>
			<g>
				<path class="st52" d="M563.9,598.3c-67.7-3.4-135.5-6.7-203.3-9.6c7-72.5,10.2-109.2,17-181.9c66.2,2.2,132.4,3.2,198.7,4
					C572.3,473.3,569,535.9,563.9,598.3z M361.2,588.2c67.4,2.9,134.8,6.1,202.2,9.5c5.1-62.1,8.4-124.3,12.3-186.5
					c-65.9-0.8-131.8-1.7-197.6-4C371.3,479.7,368.1,516.1,361.2,588.2z"/>
			</g>
			<g>
				<path class="st52" d="M574.8,428.6c-66.2-1-132.4-2.2-198.6-4.5c0-0.2,0-0.3,0-0.5c66.2,2.3,132.4,3.5,198.6,4.5
					C574.9,428.3,574.9,428.4,574.8,428.6z"/>
			</g>
			<g>
				<path class="st52" d="M573.6,447.8c-66.4-1.3-132.8-2.7-199.1-5.1c0-0.2,0-0.3,0-0.5c66.3,2.4,132.7,3.8,199.1,5.1
					C573.7,447.5,573.7,447.6,573.6,447.8z"/>
			</g>
			<g>
				<path class="st52" d="M572.5,467c-66.6-1.6-133.1-3.3-199.7-5.8c0-0.2,0-0.3,0-0.5c66.5,2.5,133.1,4.2,199.6,5.8
					C572.5,466.7,572.5,466.8,572.5,467z"/>
			</g>
			<g>
				<path class="st52" d="M571.3,486.2c-66.7-1.9-133.5-3.9-200.2-6.5c0-0.2,0-0.3,0-0.5c66.7,2.6,133.5,4.6,200.2,6.5
					C571.4,485.9,571.3,486,571.3,486.2z"/>
			</g>
			<g>
				<path class="st52" d="M570.2,505.4c-66.9-2.3-133.9-4.5-200.8-7.2c0-0.2,0-0.3,0-0.5c66.9,2.7,133.8,4.9,200.8,7.2
					C570.2,505.1,570.2,505.2,570.2,505.4z"/>
			</g>
			<g>
				<path class="st52" d="M569,524.6c-67.1-2.6-134.2-5.1-201.3-7.9c0-0.2,0-0.3,0-0.5c67.1,2.8,134.2,5.3,201.3,7.8
					C569,524.3,569,524.4,569,524.6z"/>
			</g>
			<g>
				<path class="st52" d="M567.7,543.7c-67.3-2.8-134.5-5.6-201.8-8.5c0-0.2,0-0.3,0-0.5c67.3,2.9,134.5,5.6,201.8,8.4
					C567.8,543.4,567.8,543.5,567.7,543.7z"/>
			</g>
			<g>
				<path class="st52" d="M566.4,562.7c-67.4-3.1-134.8-6-202.2-9c0-0.2,0-0.3,0-0.5c67.4,2.9,134.8,5.9,202.2,8.9
					C566.5,562.4,566.4,562.5,566.4,562.7z"/>
			</g>
			<g>
				<path class="st52" d="M565,581.6c-67.5-3.3-135-6.4-202.6-9.3c0-0.2,0-0.3,0-0.5c67.5,2.9,135,6.1,202.5,9.3
					C565,581.3,565,581.4,565,581.6z"/>
			</g>
			<g>
				<path class="st52" d="M383.3,589.4c-0.2,0-0.3,0-0.5,0c7-72.5,10.1-109.4,16.9-182.3c0.2,0,0.3,0,0.5,0
					C393.4,480,390.3,516.9,383.3,589.4z"/>
			</g>
			<g>
				<path class="st52" d="M403.5,590.3c-0.2,0-0.3,0-0.5,0c7.1-72.5,9.9-109.6,16.6-182.6c0.2,0,0.3,0,0.5,0
					C413.5,480.7,410.6,517.9,403.5,590.3z"/>
			</g>
			<g>
				<path class="st52" d="M423.8,591.3c-0.2,0-0.3,0-0.5,0c7-72.5,9.7-109.9,16.3-183.1c0.2,0,0.3,0,0.5,0
					C433.5,481.4,430.8,518.8,423.8,591.3z"/>
			</g>
			<g>
				<path class="st52" d="M444,592.2c-0.2,0-0.3,0-0.5,0c7-72.6,9.5-110.2,15.9-183.6c0.2,0,0.3,0,0.5,0
					C453.4,482,450.9,519.7,444,592.2z"/>
			</g>
			<g>
				<path class="st52" d="M464.2,593.2c-0.2,0-0.3,0-0.5,0c6.9-72.6,9.1-110.6,15.4-184.2c0.2,0,0.3,0,0.5,0
					C473.3,482.5,471.1,520.5,464.2,593.2z"/>
			</g>
			<g>
				<path class="st52" d="M484.4,594.1c-0.2,0-0.3,0-0.5,0c5.6-61.5,10-123.2,14.8-184.8c0.2,0,0.3,0,0.5,0
					C494.3,470.9,490,532.6,484.4,594.1z"/>
			</g>
			<g>
				<path class="st52" d="M504.5,595.1c-0.2,0-0.3,0-0.5,0c5.5-61.8,9.6-123.6,14.2-185.5c0.2,0,0.3,0,0.5,0
					C514.1,471.4,510,533.3,504.5,595.1z"/>
			</g>
			<g>
				<path class="st52" d="M524.6,596.1c-0.2,0-0.3,0-0.5,0c5.4-62,9.2-124.1,13.6-186.2c0.2,0,0.3,0,0.5,0
					C533.8,472,530,534.1,524.6,596.1z"/>
			</g>
			<g>
				<path class="st52" d="M544.7,597.1c-0.2,0-0.3,0-0.5,0c5.3-62.2,8.8-124.6,13-186.9c0.2,0,0.3,0,0.5,0
					C553.5,472.5,549.9,534.8,544.7,597.1z"/>
			</g>
			<g>
				<path class="st57" d="M345.9,425.2c7.9,0.3,11.8,0.5,19.6,0.8c0.2-2,0.3-3,0.5-5c-7.8-0.3-11.8-0.4-19.6-0.8
					C346.1,422.2,346,423.2,345.9,425.2z"/>
			</g>
			<g>
				<path class="st57" d="M344.1,443.7c7.9,0.3,11.8,0.5,19.6,0.8c0.2-2,0.3-3,0.5-5c-7.8-0.3-11.8-0.4-19.6-0.8
					C344.4,440.7,344.3,441.7,344.1,443.7z"/>
			</g>
			<g>
				<path class="st57" d="M342.4,462.2c7.9,0.3,11.8,0.5,19.6,0.8c0.2-2,0.3-3,0.5-5c-7.8-0.3-11.8-0.5-19.6-0.8
					C342.7,459.2,342.6,460.2,342.4,462.2z"/>
			</g>
			<g>
				<path class="st57" d="M340.7,480.7c7.9,0.3,11.8,0.5,19.6,0.8c0.2-2,0.3-3,0.5-5c-7.8-0.3-11.8-0.5-19.6-0.8
					C341,477.7,340.9,478.7,340.7,480.7z"/>
			</g>
			<g>
				<path class="st57" d="M339,499.2c7.9,0.3,11.8,0.5,19.6,0.8c0.2-2,0.3-3,0.5-5c-7.8-0.3-11.8-0.5-19.6-0.8
					C339.3,496.2,339.2,497.2,339,499.2z"/>
			</g>
			<g>
				<path class="st57" d="M337.3,517.7c7.9,0.3,11.8,0.5,19.6,0.8c0.2-2,0.3-3,0.5-5c-7.8-0.3-11.8-0.5-19.6-0.8
					C337.5,514.7,337.4,515.7,337.3,517.7z"/>
			</g>
			<g>
				<path class="st57" d="M335.5,536.2c7.8,0.3,11.8,0.5,19.6,0.8c0.2-2,0.3-3,0.5-5c-7.8-0.3-11.8-0.5-19.6-0.8
					C335.8,533.2,335.7,534.2,335.5,536.2z"/>
			</g>
			<g>
				<path class="st57" d="M333.8,554.7c7.8,0.3,11.8,0.5,19.6,0.8c0.2-2,0.3-3,0.5-5c-7.8-0.3-11.8-0.5-19.6-0.8
					C334.1,551.7,334,552.7,333.8,554.7z"/>
			</g>
			<g>
				<path class="st57" d="M332.1,573.2c7.8,0.3,11.7,0.5,19.6,0.8c0.2-2,0.3-3,0.5-5c-7.8-0.3-11.7-0.5-19.6-0.8
					C332.4,570.2,332.3,571.2,332.1,573.2z"/>
			</g>
			<g>
				<path class="st57" d="M376.6,601.6c4.2,0.2,6.3,0.3,10.4,0.5c0.2-2,0.3-3,0.5-4.9c-4.2-0.2-6.3-0.3-10.4-0.5
					C376.9,598.7,376.8,599.7,376.6,601.6z"/>
			</g>
			<g>
				<path class="st57" d="M396.8,602.5c4.2,0.2,6.3,0.3,10.4,0.5c0.2-2,0.3-3,0.5-4.9c-4.2-0.2-6.3-0.3-10.4-0.5
					C397.1,599.6,397,600.6,396.8,602.5z"/>
			</g>
			<g>
				<path class="st57" d="M417,603.4c4.2,0.2,6.3,0.3,10.4,0.5c0.2-2,0.3-3,0.5-4.9c-4.2-0.2-6.3-0.3-10.4-0.5
					C417.3,600.5,417.2,601.5,417,603.4z"/>
			</g>
			<g>
				<path class="st57" d="M437.3,604.4c4.2,0.2,6.3,0.3,10.4,0.5c0.2-2,0.3-3,0.5-4.9c-4.2-0.2-6.3-0.3-10.4-0.5
					C437.6,601.4,437.5,602.4,437.3,604.4z"/>
			</g>
			<g>
				<path class="st57" d="M457.5,605.3c4.2,0.2,6.3,0.3,10.4,0.5c0.2-2,0.3-3,0.5-4.9c-4.2-0.2-6.3-0.3-10.4-0.5
					C457.8,602.4,457.7,603.4,457.5,605.3z"/>
			</g>
			<g>
				<path class="st57" d="M477.7,606.3c4.2,0.2,6.3,0.3,10.4,0.5c0.2-2,0.3-3,0.5-4.9c-4.2-0.2-6.3-0.3-10.4-0.5
					C478,603.4,477.9,604.3,477.7,606.3z"/>
			</g>
			<g>
				<path class="st57" d="M497.9,607.3c4.2,0.2,6.2,0.3,10.4,0.5c0.2-2,0.3-3,0.5-4.9c-4.2-0.2-6.2-0.3-10.4-0.5
					C498.2,604.3,498.1,605.3,497.9,607.3z"/>
			</g>
			<g>
				<path class="st57" d="M518,608.3c4.2,0.2,6.2,0.3,10.4,0.5c0.2-2,0.3-3,0.5-5c-4.2-0.2-6.2-0.3-10.4-0.5
					C518.3,605.3,518.2,606.3,518,608.3z"/>
			</g>
			<g>
				<path class="st57" d="M538.1,609.3c4.1,0.2,6.2,0.3,10.4,0.5c0.2-2,0.3-3,0.5-5c-4.1-0.2-6.2-0.3-10.4-0.5
					C538.4,606.3,538.3,607.3,538.1,609.3z"/>
			</g>
			<g>
				<path class="st57" d="M558.2,610.3c4.1,0.2,6.2,0.3,10.3,0.5c0.2-2,0.3-3,0.4-5c-4.1-0.2-6.2-0.3-10.3-0.5
					C558.4,607.4,558.4,608.3,558.2,610.3z"/>
			</g>
			<g>
				<g>
					<g>
						<path class="st58" d="M381.1,542c-2.6-0.1-3.9-0.2-6.4-0.3c-1.8,18.9-2.7,28.3-4.5,47.1c2.6,0.1,3.9,0.2,6.4,0.3
							C378.4,570.4,379.3,560.9,381.1,542z"/>
					</g>
					<g>
						<path class="st59" d="M387.5,542.3c-2.6-0.1-3.9-0.2-6.4-0.3c-1.8,18.9-2.7,28.3-4.5,47.1c2.6,0.1,3.9,0.2,6.4,0.3
							C384.9,570.6,385.7,561.2,387.5,542.3z"/>
					</g>
				</g>
				<g>
					<g>
						<path class="st58" d="M402.6,530.9c-2.6-0.1-3.9-0.2-6.4-0.3c-2.2,23.7-3.3,35.6-5.6,59.1c2.6,0.1,3.9,0.2,6.4,0.3
							C399.3,566.5,400.4,554.6,402.6,530.9z"/>
					</g>
					<g>
						<path class="st59" d="M409,531.2c-2.6-0.1-3.8-0.2-6.4-0.3c-2.2,23.7-3.3,35.6-5.6,59.2c2.6,0.1,3.9,0.2,6.4,0.3
							C405.8,566.8,406.9,554.9,409,531.2z"/>
					</g>
				</g>
				<g>
					<g>
						<path class="st58" d="M423.6,524.8c-2.6-0.1-3.8-0.2-6.4-0.3c-2.4,26.6-3.6,39.8-6.2,66.1c2.6,0.1,3.9,0.2,6.4,0.3
							C420,564.7,421.2,551.4,423.6,524.8z"/>
					</g>
					<g>
						<path class="st59" d="M430,525.1c-2.6-0.1-3.8-0.2-6.4-0.3c-2.4,26.6-3.6,39.8-6.1,66.2c2.6,0.1,3.9,0.2,6.4,0.3
							C426.4,565,427.6,551.7,430,525.1z"/>
					</g>
				</g>
				<g>
					<g>
						<path class="st58" d="M441.7,550.1c-2.6-0.1-3.8-0.2-6.4-0.3c-1.5,16.8-2.3,25.2-3.9,41.8c2.6,0.1,3.9,0.2,6.4,0.3
							C439.5,575.3,440.2,566.9,441.7,550.1z"/>
					</g>
					<g>
						<path class="st59" d="M448.2,550.3c-2.6-0.1-3.8-0.2-6.4-0.3c-1.5,16.8-2.3,25.2-3.9,41.9c2.6,0.1,3.9,0.2,6.4,0.3
							C445.9,575.6,446.7,567.2,448.2,550.3z"/>
					</g>
				</g>
				<g>
					<g>
						<path class="st58" d="M461.3,560.3c-2.6-0.1-3.8-0.2-6.4-0.3c-1.2,13.1-1.8,19.6-3,32.6c2.6,0.1,3.9,0.2,6.4,0.3
							C459.5,579.9,460.1,573.4,461.3,560.3z"/>
					</g>
					<g>
						<path class="st59" d="M467.7,560.5c-2.6-0.1-3.8-0.2-6.4-0.3c-1.2,13.1-1.7,19.6-3,32.6c2.6,0.1,3.9,0.2,6.4,0.3
							C465.9,580.2,466.5,573.7,467.7,560.5z"/>
					</g>
				</g>
				<g>
					<g>
						<path class="st58" d="M482.7,548.2c-2.6-0.1-3.8-0.2-6.4-0.3c-1.5,18.3-2.3,27.5-4,45.6c2.6,0.1,3.8,0.2,6.4,0.3
							C480.4,575.7,481.1,566.6,482.7,548.2z"/>
					</g>
					<g>
						<path class="st59" d="M489,548.5c-2.6-0.1-3.8-0.2-6.4-0.3c-1.5,18.4-2.3,27.5-4,45.6c2.6,0.1,3.8,0.2,6.4,0.3
							C486.8,576,487.5,566.9,489,548.5z"/>
					</g>
				</g>
				<g>
					<g>
						<path class="st58" d="M506.4,502.9c-2.5-0.1-3.8-0.1-6.3-0.2c-2.8,37.1-4.2,55.6-7.5,91.9c2.6,0.1,3.8,0.2,6.4,0.3
							C502.3,558.6,503.7,540,506.4,502.9z"/>
					</g>
					<g>
						<path class="st59" d="M512.8,503.1c-2.5-0.1-3.8-0.1-6.3-0.2c-2.7,37.1-4.1,55.7-7.4,92c2.6,0.1,3.8,0.2,6.4,0.3
							C508.7,558.8,510.1,540.2,512.8,503.1z"/>
					</g>
				</g>
				<g>
					<g>
						<path class="st58" d="M525.3,520.1c-2.5-0.1-3.8-0.1-6.3-0.2c-2.2,30.5-3.3,45.8-6,75.6c2.6,0.1,3.8,0.2,6.4,0.3
							C522,566,523.1,550.7,525.3,520.1z"/>
					</g>
					<g>
						<path class="st59" d="M531.6,520.4c-2.5-0.1-3.8-0.1-6.3-0.2c-2.2,30.6-3.3,45.8-6,75.7c2.6,0.1,3.8,0.2,6.4,0.3
							C528.4,566.3,529.5,551,531.6,520.4z"/>
					</g>
				</g>
				<g>
					<g>
						<path class="st58" d="M544.3,536.7c-2.5-0.1-3.8-0.2-6.3-0.3c-1.7,24.3-2.6,36.3-4.7,60.1c2.6,0.1,3.8,0.2,6.4,0.3
							C541.7,573.1,542.6,561,544.3,536.7z"/>
					</g>
					<g>
						<path class="st59" d="M550.6,536.9c-2.5-0.1-3.8-0.2-6.3-0.3c-1.7,24.3-2.6,36.4-4.7,60.1c2.6,0.1,3.8,0.2,6.4,0.3
							C548.1,573.4,548.9,561.3,550.6,536.9z"/>
					</g>
				</g>
				<g>
					<g>
						<path class="st58" d="M566.1,510.6c-2.5-0.1-3.8-0.1-6.3-0.2c-2.2,35.3-3.4,52.9-6.3,87.2c2.5,0.1,3.8,0.2,6.4,0.3
							C562.8,563.5,563.9,545.9,566.1,510.6z"/>
					</g>
					<g>
						<path class="st59" d="M572.3,510.8c-2.5-0.1-3.8-0.1-6.3-0.2c-2.2,35.3-3.3,53-6.2,87.3c2.5,0.1,3.8,0.2,6.4,0.3
							C569.1,563.8,570.2,546.2,572.3,510.8z"/>
					</g>
				</g>
			</g>
			<g>
				<path class="st58" d="M367.5,526.1c-0.5-0.6-0.7-1-1.2-1.6c8.4-6.1,12.6-9.2,21-15.4c5.9,4,8.9,6,14.8,10
					c6.6-5.1,9.9-7.6,16.5-12.7c4.9,1.8,7.4,2.7,12.3,4.5c14-4.3,21-6.4,34.9-10.7c17-15.5,25.5-23.4,42.2-39.2
					c7.6,8,11.4,12,19.1,20.1c8.2,2.2,12.3,3.4,20.5,5.6c9.4-3.9,14-5.8,23.3-9.7c0.3,0.8,0.4,1.2,0.7,1.9c-9.6,4-14.3,6-24,9.9
					c-8.7-2.4-13-3.6-21.7-5.9c-7.3-7.6-10.9-11.4-18.1-19c-16.4,15.4-24.6,23-41.3,38.2c-14.3,4.4-21.5,6.6-35.9,11
					c-4.7-1.8-7.1-2.6-11.8-4.4c-6.7,5.2-10,7.8-16.8,12.9c-5.9-4-8.9-6-14.9-10.1C379.3,517.4,375.4,520.3,367.5,526.1z"/>
			</g>
			<g>
				<path class="st59" d="M369.8,503.8c-0.2-0.2-0.4-0.3-0.6-0.5c-0.5,0-0.8,0-1.3-0.1c0.1-0.6,0.2-1.3,24.1-16.3
					c0.2-0.1,0.3-0.2,0.4-0.3c8.9,2.9,13.4,4.4,22.3,7.3c19.2-18,28.7-27.1,47.6-45.4c5.3,3.3,7.9,5,13.2,8.4
					c8.1-1.1,12.2-1.6,20.3-2.7c8.2,12.4,12.3,18.6,20.6,31.1c11.9-10.6,17.8-15.9,29.5-26.6c10.8,0.9,16.2,1.4,27,2.4
					c-0.1,0.8-0.2,1.3-0.3,2.1c-10.4-0.9-15.6-1.4-26.1-2.3c-12.2,11.1-18.3,16.6-30.6,27.6c-8.5-12.9-12.7-19.3-21.2-32
					c-7.9,1.1-11.9,1.6-19.8,2.7c-5-3.2-7.5-4.7-12.5-7.9c-18.8,18.2-28.2,27.3-47.3,45.2c-9-3-13.5-4.4-22.6-7.4
					C384.2,494.3,370.8,502.8,369.8,503.8z"/>
			</g>
			<g>
				<path class="st58" d="M391.5,510.7c-0.2,2.4-2.3,4.3-4.6,4.2c-2.3-0.1-4-2.1-3.8-4.6c0.2-2.4,2.3-4.3,4.6-4.2
					C390.1,506.2,391.8,508.3,391.5,510.7z"/>
			</g>
			<g>
				<path class="st58" d="M371,525.9c-0.2,2.4-2.3,4.3-4.6,4.2c-2.3-0.1-4-2.1-3.8-4.6c0.2-2.4,2.3-4.3,4.6-4.2
					C369.6,521.5,371.3,523.5,371,525.9z"/>
			</g>
			<g>
				<path class="st58" d="M405.5,520.5c-0.2,2.4-2.3,4.3-4.6,4.2c-2.3-0.1-4-2.1-3.8-4.6c0.2-2.4,2.3-4.3,4.6-4.2
					C404,516.1,405.7,518.1,405.5,520.5z"/>
			</g>
			<g>
				<path class="st58" d="M422,507c-0.2,2.4-2.3,4.3-4.6,4.3c-2.3-0.1-4-2.1-3.8-4.6c0.2-2.4,2.3-4.3,4.6-4.3
					C420.5,502.5,422.2,504.5,422,507z"/>
			</g>
			<g>
				<path class="st58" d="M436.3,512.3c-0.2,2.4-2.3,4.4-4.6,4.3c-2.3-0.1-4-2.1-3.8-4.6c0.2-2.4,2.3-4.4,4.6-4.3
					C434.8,507.8,436.5,509.9,436.3,512.3z"/>
			</g>
			<g>
				<path class="st58" d="M471.5,500.1c-0.2,2.5-2.2,4.4-4.5,4.3c-2.3-0.1-4-2.1-3.8-4.6c0.2-2.5,2.2-4.4,4.5-4.3
					C470,495.5,471.7,497.6,471.5,500.1z"/>
			</g>
			<g>
				<path class="st58" d="M511.7,462.6c-0.2,2.5-2.2,4.4-4.4,4.4c-2.3-0.1-4-2.1-3.8-4.6c0.2-2.5,2.2-4.4,4.4-4.4
					C510.2,458.1,511.9,460.1,511.7,462.6z"/>
			</g>
			<g>
				<path class="st58" d="M529.9,482.4c-0.2,2.5-2.1,4.5-4.4,4.4c-2.3-0.1-4-2.1-3.8-4.6c0.2-2.5,2.2-4.5,4.4-4.4
					C528.3,477.8,530,479.9,529.9,482.4z"/>
			</g>
			<g>
				<path class="st58" d="M552.6,487.6c-0.2,2.5-2.1,4.5-4.4,4.4s-4-2.2-3.8-4.7c0.2-2.5,2.1-4.5,4.4-4.4
					C551.1,483,552.8,485.1,552.6,487.6z"/>
			</g>
			<g>
				<path class="st58" d="M574.3,478.2c-0.1,2.5-2.1,4.5-4.4,4.4s-4-2.2-3.8-4.7c0.2-2.5,2.1-4.5,4.4-4.4
					C572.7,473.6,574.4,475.7,574.3,478.2z"/>
			</g>
			<g>
				<path class="st59" d="M575.3,461.6c-0.2,2.5-2.1,4.5-4.3,4.5c-2.2-0.1-3.9-2.1-3.8-4.7c0.2-2.5,2.1-4.5,4.3-4.5
					C573.7,457,575.4,459.1,575.3,461.6z"/>
			</g>
			<g>
				<path class="st59" d="M549.3,459.8c-0.2,2.5-2.1,4.5-4.4,4.4c-2.3-0.1-3.9-2.1-3.8-4.6c0.2-2.5,2.1-4.5,4.4-4.4
					C547.8,455.3,549.5,457.3,549.3,459.8z"/>
			</g>
			<g>
				<path class="st59" d="M499.4,455.3c-0.2,2.5-2.2,4.4-4.4,4.4c-2.3-0.1-4-2.1-3.8-4.6c0.2-2.5,2.2-4.4,4.4-4.4
					C497.9,450.8,499.6,452.8,499.4,455.3z"/>
			</g>
			<g>
				<path class="st59" d="M479.4,458.1c-0.2,2.5-2.2,4.4-4.5,4.4c-2.3-0.1-4-2.1-3.8-4.6c0.2-2.5,2.2-4.4,4.5-4.4
					C477.9,453.6,479.6,455.6,479.4,458.1z"/>
			</g>
			<g>
				<path class="st59" d="M466.1,449.9c-0.2,2.5-2.2,4.4-4.5,4.3c-2.3-0.1-4-2.1-3.8-4.6c0.2-2.5,2.2-4.4,4.5-4.3
					C464.6,445.4,466.3,447.4,466.1,449.9z"/>
			</g>
			<g>
				<path class="st59" d="M420.2,493.8c-0.2,2.4-2.3,4.4-4.6,4.3c-2.3-0.1-4-2.1-3.8-4.6c0.2-2.4,2.3-4.3,4.6-4.3
					C418.8,489.3,420.4,491.4,420.2,493.8z"/>
			</g>
			<g>
				<path class="st59" d="M396.7,488.5c-0.2,2.4-2.3,4.3-4.6,4.2c-2.3-0.1-4-2.1-3.8-4.6c0.2-2.4,2.3-4.3,4.6-4.2
					S396.9,486.1,396.7,488.5z"/>
			</g>
			<g>
				<path class="st59" d="M372.4,502.5c-0.2,2.4-2.3,4.3-4.6,4.2c-2.3-0.1-4-2.1-3.8-4.6c0.2-2.4,2.3-4.3,4.6-4.2
					C371,498,372.7,500.1,372.4,502.5z"/>
			</g>
			<g>
				<path class="st59" d="M519.7,488.3c-0.2,2.5-2.2,4.4-4.4,4.4c-2.3-0.1-4-2.1-3.8-4.6c0.2-2.5,2.2-4.4,4.4-4.4
					C518.1,483.8,519.8,485.8,519.7,488.3z"/>
			</g>
		</g>
		<linearGradient id="SVGID_4_" gradientUnits="userSpaceOnUse" x1="289.9038" y1="349.2533" x2="652.8467" y2="349.2533">
			<stop  offset="4.102398e-07" style="stop-color:#747678"/>
			<stop  offset="1" style="stop-color:#7D8589"/>
		</linearGradient>
		<path class="st60" d="M652.3,355.4c-120.8-2.3-241.6-2.2-362.4-6.1c0.2-2.5,0.3-3.7,0.6-6.2c120.8,3.9,241.6,3.8,362.4,6.1
			C652.6,351.7,652.5,352.9,652.3,355.4z"/>
		<linearGradient id="SVGID_5_" gradientUnits="userSpaceOnUse" x1="288.4036" y1="365.5224" x2="651.4664" y2="365.5224">
			<stop  offset="4.102398e-07" style="stop-color:#747678"/>
			<stop  offset="1" style="stop-color:#7D8589"/>
		</linearGradient>
		<path class="st61" d="M651,371.8c-120.9-2.4-241.7-2.6-362.6-6.4c0.2-2.5,0.3-3.7,0.6-6.2c120.8,3.8,241.6,3.9,362.5,6.2
			C651.3,368,651.2,369.3,651,371.8z"/>
		<linearGradient id="SVGID_6_" gradientUnits="userSpaceOnUse" x1="286.9034" y1="381.9023" x2="650.2552" y2="381.9023">
			<stop  offset="4.102398e-07" style="stop-color:#747678"/>
			<stop  offset="1" style="stop-color:#7D8589"/>
		</linearGradient>
		<path class="st62" d="M649.8,388.4c-121-2.6-242-3-362.9-6.8c0.2-2.5,0.3-3.7,0.6-6.2c120.9,3.8,241.8,4.1,362.8,6.6
			C650.1,384.6,650,385.8,649.8,388.4z"/>
		<g class="st63">
			
				<ellipse transform="matrix(0.1698 -0.9855 0.9855 0.1698 -193.0324 1200.3193)" class="st1" cx="615.9" cy="714.7" rx="53.3" ry="147.1"/>
			
				<ellipse transform="matrix(0.1698 -0.9855 0.9855 0.1698 -192.7534 1200.1394)" class="st2" cx="615.9" cy="714.5" rx="52.6" ry="145.3"/>
			
				<ellipse transform="matrix(0.1698 -0.9855 0.9855 0.1698 -192.4746 1199.9594)" class="st3" cx="616" cy="714.2" rx="51.9" ry="143.5"/>
			
				<ellipse transform="matrix(0.1698 -0.9855 0.9855 0.1698 -192.1959 1199.7789)" class="st4" cx="616" cy="714" rx="51.2" ry="141.6"/>
			
				<ellipse transform="matrix(0.1698 -0.9855 0.9855 0.1698 -191.9174 1199.5981)" class="st5" cx="616" cy="713.7" rx="50.5" ry="139.8"/>
			
				<ellipse transform="matrix(0.1698 -0.9855 0.9855 0.1698 -191.6391 1199.4171)" class="st6" cx="616.1" cy="713.5" rx="49.8" ry="137.9"/>
			
				<ellipse transform="matrix(0.1699 -0.9855 0.9855 0.1699 -191.3611 1199.2357)" class="st7" cx="616.1" cy="713.2" rx="49.1" ry="136.1"/>
			
				<ellipse transform="matrix(0.1699 -0.9855 0.9855 0.1699 -191.0832 1199.054)" class="st8" cx="616.2" cy="712.9" rx="48.4" ry="134.3"/>
			
				<ellipse transform="matrix(0.1699 -0.9855 0.9855 0.1699 -190.8056 1198.8718)" class="st9" cx="616.2" cy="712.7" rx="47.7" ry="132.4"/>
			
				<ellipse transform="matrix(0.1699 -0.9855 0.9855 0.1699 -190.5282 1198.6893)" class="st10" cx="616.3" cy="712.4" rx="47" ry="130.6"/>
			
				<ellipse transform="matrix(0.1699 -0.9855 0.9855 0.1699 -190.2511 1198.5065)" class="st11" cx="616.3" cy="712.2" rx="46.3" ry="128.8"/>
			
				<ellipse transform="matrix(0.1699 -0.9855 0.9855 0.1699 -189.9742 1198.3231)" class="st12" cx="616.3" cy="711.9" rx="45.6" ry="126.9"/>
			
				<ellipse transform="matrix(0.17 -0.9855 0.9855 0.17 -189.6976 1198.1394)" class="st13" cx="616.4" cy="711.7" rx="44.9" ry="125.1"/>
			
				<ellipse transform="matrix(0.17 -0.9854 0.9854 0.17 -189.4212 1197.9552)" class="st14" cx="616.4" cy="711.4" rx="44.2" ry="123.3"/>
			
				<ellipse transform="matrix(0.17 -0.9854 0.9854 0.17 -189.1452 1197.7705)" class="st15" cx="616.5" cy="711.2" rx="43.5" ry="121.4"/>
			
				<ellipse transform="matrix(0.17 -0.9854 0.9854 0.17 -188.8695 1197.5853)" class="st16" cx="616.5" cy="710.9" rx="42.8" ry="119.6"/>
			
				<ellipse transform="matrix(0.17 -0.9854 0.9854 0.17 -188.5941 1197.3997)" class="st17" cx="616.6" cy="710.7" rx="42.1" ry="117.8"/>
			
				<ellipse transform="matrix(0.1701 -0.9854 0.9854 0.1701 -188.319 1197.2134)" class="st18" cx="616.6" cy="710.4" rx="41.4" ry="115.9"/>
			
				<ellipse transform="matrix(0.1701 -0.9854 0.9854 0.1701 -188.0444 1197.0265)" class="st19" cx="616.6" cy="710.2" rx="40.7" ry="114.1"/>
			
				<ellipse transform="matrix(0.1701 -0.9854 0.9854 0.1701 -187.7701 1196.8391)" class="st20" cx="616.7" cy="709.9" rx="40" ry="112.2"/>
			
				<ellipse transform="matrix(0.1701 -0.9854 0.9854 0.1701 -187.4961 1196.651)" class="st21" cx="616.7" cy="709.6" rx="39.3" ry="110.4"/>
			
				<ellipse transform="matrix(0.1702 -0.9854 0.9854 0.1702 -187.2227 1196.4623)" class="st22" cx="616.8" cy="709.4" rx="38.6" ry="108.6"/>
			
				<ellipse transform="matrix(0.1702 -0.9854 0.9854 0.1702 -186.9496 1196.2727)" class="st23" cx="616.8" cy="709.1" rx="37.9" ry="106.7"/>
			
				<ellipse transform="matrix(0.1702 -0.9854 0.9854 0.1702 -186.677 1196.0825)" class="st24" cx="616.9" cy="708.9" rx="37.2" ry="104.9"/>
			
				<ellipse transform="matrix(0.1702 -0.9854 0.9854 0.1702 -186.405 1195.8915)" class="st25" cx="616.9" cy="708.6" rx="36.5" ry="103.1"/>
			
				<ellipse transform="matrix(0.1703 -0.9854 0.9854 0.1703 -186.1334 1195.6996)" class="st26" cx="616.9" cy="708.4" rx="35.8" ry="101.2"/>
			
				<ellipse transform="matrix(0.1703 -0.9854 0.9854 0.1703 -185.8624 1195.5068)" class="st27" cx="617" cy="708.1" rx="35.1" ry="99.4"/>
			
				<ellipse transform="matrix(0.1703 -0.9854 0.9854 0.1703 -185.592 1195.3131)" class="st28" cx="617" cy="707.9" rx="34.4" ry="97.6"/>
			
				<ellipse transform="matrix(0.1704 -0.9854 0.9854 0.1704 -185.3222 1195.1183)" class="st29" cx="617.1" cy="707.6" rx="33.7" ry="95.7"/>
			
				<ellipse transform="matrix(0.1704 -0.9854 0.9854 0.1704 -185.0531 1194.9225)" class="st30" cx="617.1" cy="707.4" rx="33" ry="93.9"/>
			
				<ellipse transform="matrix(0.1704 -0.9854 0.9854 0.1704 -184.7847 1194.7256)" class="st31" cx="617.2" cy="707.1" rx="32.3" ry="92.1"/>
			
				<ellipse transform="matrix(0.1705 -0.9854 0.9854 0.1705 -184.517 1194.5273)" class="st32" cx="617.2" cy="706.9" rx="31.6" ry="90.2"/>
			
				<ellipse transform="matrix(0.1705 -0.9854 0.9854 0.1705 -184.2502 1194.3279)" class="st33" cx="617.2" cy="706.6" rx="30.9" ry="88.4"/>
			
				<ellipse transform="matrix(0.1705 -0.9854 0.9854 0.1705 -183.9842 1194.1271)" class="st34" cx="617.3" cy="706.3" rx="30.2" ry="86.5"/>
			
				<ellipse transform="matrix(0.1706 -0.9853 0.9853 0.1706 -183.7191 1193.9247)" class="st35" cx="617.3" cy="706.1" rx="29.5" ry="84.7"/>
			
				<ellipse transform="matrix(0.1706 -0.9853 0.9853 0.1706 -183.455 1193.7208)" class="st36" cx="617.4" cy="705.8" rx="28.8" ry="82.9"/>
			
				<ellipse transform="matrix(0.1707 -0.9853 0.9853 0.1707 -183.192 1193.5151)" class="st37" cx="617.4" cy="705.6" rx="28.1" ry="81"/>
			
				<ellipse transform="matrix(0.1707 -0.9853 0.9853 0.1707 -182.9301 1193.3077)" class="st38" cx="617.4" cy="705.3" rx="27.4" ry="79.2"/>
			
				<ellipse transform="matrix(0.1708 -0.9853 0.9853 0.1708 -182.6695 1193.0983)" class="st39" cx="617.5" cy="705.1" rx="26.7" ry="77.4"/>
			
				<ellipse transform="matrix(0.1708 -0.9853 0.9853 0.1708 -182.4101 1192.8867)" class="st40" cx="617.5" cy="704.8" rx="26" ry="75.5"/>
			
				<ellipse transform="matrix(0.1709 -0.9853 0.9853 0.1709 -182.1522 1192.6729)" class="st41" cx="617.6" cy="704.6" rx="25.3" ry="73.7"/>
			
				<ellipse transform="matrix(0.1709 -0.9853 0.9853 0.1709 -181.8959 1192.4564)" class="st42" cx="617.6" cy="704.3" rx="24.6" ry="71.9"/>
			
				<ellipse transform="matrix(0.171 -0.9853 0.9853 0.171 -181.6412 1192.2374)" class="st43" cx="617.7" cy="704.1" rx="23.9" ry="70"/>
			
				<ellipse transform="matrix(0.1711 -0.9853 0.9853 0.1711 -181.3883 1192.0154)" class="st44" cx="617.7" cy="703.8" rx="23.2" ry="68.2"/>
			
				<ellipse transform="matrix(0.1711 -0.9852 0.9852 0.1711 -181.1375 1191.79)" class="st45" cx="617.7" cy="703.5" rx="22.5" ry="66.4"/>
			
				<ellipse transform="matrix(0.1712 -0.9852 0.9852 0.1712 -180.8888 1191.5613)" class="st46" cx="617.8" cy="703.3" rx="21.8" ry="64.5"/>
			
				<ellipse transform="matrix(0.1713 -0.9852 0.9852 0.1713 -180.6425 1191.3286)" class="st47" cx="617.8" cy="703" rx="21.1" ry="62.7"/>
			
				<ellipse transform="matrix(0.1714 -0.9852 0.9852 0.1714 -180.3988 1191.0918)" class="st48" cx="617.9" cy="702.8" rx="20.4" ry="60.8"/>
			
				<ellipse transform="matrix(0.1714 -0.9852 0.9852 0.1714 -180.1581 1190.8502)" class="st49" cx="617.9" cy="702.5" rx="19.7" ry="59"/>
			
				<ellipse transform="matrix(0.1715 -0.9852 0.9852 0.1715 -179.9205 1190.6035)" class="st50" cx="618" cy="702.3" rx="19" ry="57.2"/>
			
				<ellipse transform="matrix(0.1716 -0.9852 0.9852 0.1716 -179.6865 1190.351)" class="st51" cx="618" cy="702" rx="18.3" ry="55.3"/>
			
				<ellipse transform="matrix(0.1718 -0.9851 0.9851 0.1718 -179.4564 1190.092)" class="st52" cx="618" cy="701.8" rx="17.6" ry="53.5"/>
		</g>
		<linearGradient id="SVGID_7_" gradientUnits="userSpaceOnUse" x1="492.7147" y1="585.8849" x2="491.8972" y2="658.1028">
			<stop  offset="0" style="stop-color:#5E6B69"/>
			<stop  offset="1" style="stop-color:#5D5E61"/>
		</linearGradient>
		<path class="st64" d="M497.3,690l-13-11.5c-3.9-1.2-6.5-4.7-6.5-8.8l-7.7-78c0-2.7,8.8-6.4,10.6-8.1c2.3-2.1,5.6-3,8.9-2l18.2,5.5
			c3.9,1.2,6.5,4.7,6.5,8.8v79.3c0,3.5-1.9,6.4-4.7,8C507.5,684.5,499.8,690.8,497.3,690z"/>
		<linearGradient id="SVGID_8_" gradientUnits="userSpaceOnUse" x1="478.2631" y1="708.857" x2="501.6804" y2="494.8488">
			<stop  offset="4.102398e-07" style="stop-color:#858E8D"/>
			<stop  offset="1" style="stop-color:#9EA0A4"/>
		</linearGradient>
		<path class="st65" d="M492.3,690.3l-18.2-5.5c-3.9-1.2-6.5-4.7-6.5-8.8v-79.3c0-6.2,6-10.6,11.8-8.8l18.2,5.5
			c3.9,1.2,6.5,4.7,6.5,8.8v79.3C504.1,687.7,498.2,692.1,492.3,690.3z"/>
		<linearGradient id="SVGID_9_" gradientUnits="userSpaceOnUse" x1="552.1565" y1="574.9642" x2="551.1248" y2="666.1027">
			<stop  offset="0" style="stop-color:#5E6B69"/>
			<stop  offset="1" style="stop-color:#5D5E61"/>
		</linearGradient>
		<path class="st66" d="M556.6,706.4l-13-11.5c-3.9-1.2-6.5-4.7-6.5-8.8l-7.7-106.5c0-2.7,8.8-6.4,10.6-8.1c2.3-2.1,5.6-3,8.9-2
			l18.2,5.5c3.9,1.2,6.5,4.7,6.5,8.8v107.8c0,3.5-1.9,6.4-4.7,8C566.8,700.8,559.1,707.1,556.6,706.4z"/>
		<linearGradient id="SVGID_10_" gradientUnits="userSpaceOnUse" x1="537.0847" y1="715.2934" x2="560.502" y2="501.2852">
			<stop  offset="4.102398e-07" style="stop-color:#858E8D"/>
			<stop  offset="1" style="stop-color:#9EA0A4"/>
		</linearGradient>
		<path class="st67" d="M551.6,706.6l-18.2-5.5c-3.9-1.2-6.5-4.7-6.5-8.8V584.5c0-6.2,6-10.6,11.8-8.8l18.2,5.5
			c3.9,1.2,6.5,4.7,6.5,8.8v107.8C563.4,704,557.5,708.4,551.6,706.6z"/>
		<linearGradient id="SVGID_11_" gradientUnits="userSpaceOnUse" x1="611.665" y1="551.7067" x2="610.3222" y2="670.323">
			<stop  offset="0" style="stop-color:#5E6B69"/>
			<stop  offset="1" style="stop-color:#5D5E61"/>
		</linearGradient>
		<path class="st68" d="M615.9,722.7l-13-11.5c-3.9-1.2-6.5-4.7-6.5-8.8l-7.7-147.8c0-2.7,8.8-6.4,10.6-8.1c2.3-2.1,5.6-3,8.9-2
			l18.2,5.5c3.9,1.2,6.5,4.7,6.5,8.8V708c0,3.5-1.9,6.4-4.7,8C626.1,717.2,618.4,723.5,615.9,722.7z"/>
		<linearGradient id="SVGID_12_" gradientUnits="userSpaceOnUse" x1="595.21" y1="721.6536" x2="618.6273" y2="507.6455">
			<stop  offset="4.102398e-07" style="stop-color:#858E8D"/>
			<stop  offset="1" style="stop-color:#9EA0A4"/>
		</linearGradient>
		<path class="st69" d="M610.9,723l-18.2-5.5c-3.9-1.2-6.5-4.7-6.5-8.8V559.5c0-6.2,6-10.6,11.8-8.8l18.2,5.5
			c3.9,1.2,6.5,4.7,6.5,8.8v149.2C622.7,720.4,616.8,724.8,610.9,723z"/>
		<linearGradient id="SVGID_13_" gradientUnits="userSpaceOnUse" x1="671.2006" y1="523.4453" x2="669.5074" y2="673.0103">
			<stop  offset="0" style="stop-color:#5E6B69"/>
			<stop  offset="1" style="stop-color:#5D5E61"/>
		</linearGradient>
		<path class="st70" d="M675.1,739.1l-13-11.5c-3.9-1.2-6.5-4.7-6.5-8.8L648,524.4c0-2.7,8.8-6.4,10.6-8.1c2.3-2.1,5.6-3,8.9-2
			l18.2,5.5c3.9,1.2,6.5,4.7,6.5,8.8v195.7c0,3.5-1.9,6.4-4.7,8C685.4,733.5,677.7,739.8,675.1,739.1z"/>
		<linearGradient id="SVGID_14_" gradientUnits="userSpaceOnUse" x1="653.0529" y1="727.9829" x2="676.4702" y2="513.9748">
			<stop  offset="4.102398e-07" style="stop-color:#858E8D"/>
			<stop  offset="0.6169" style="stop-color:#8C959D"/>
			<stop  offset="1" style="stop-color:#9EA0A4"/>
		</linearGradient>
		<path class="st71" d="M670.2,739.4l-18.2-5.5c-3.9-1.2-6.5-4.7-6.5-8.8V529.3c0-6.2,6-10.6,11.8-8.8l18.2,5.5
			c3.9,1.2,6.5,4.7,6.5,8.8v195.7C682,736.7,676.1,741.2,670.2,739.4z"/>
		<linearGradient id="SVGID_15_" gradientUnits="userSpaceOnUse" x1="730.713" y1="499.4895" x2="728.7032" y2="677.0167">
			<stop  offset="0" style="stop-color:#5E6B69"/>
			<stop  offset="1" style="stop-color:#5D5E61"/>
		</linearGradient>
		<path class="st72" d="M734.4,755.4l-13-11.5c-3.9-1.2-6.5-4.7-6.5-8.8l-7.7-236.5c0-2.7,8.8-6.4,10.6-8.1c2.3-2.1,5.6-3,8.9-2
			l18.2,5.5c3.9,1.2,6.5,4.7,6.5,8.8v237.8c0,3.5-1.9,6.4-4.7,8C744.7,749.9,737,756.2,734.4,755.4z"/>
		<linearGradient id="SVGID_16_" gradientUnits="userSpaceOnUse" x1="711.1388" y1="734.3389" x2="734.5561" y2="520.3307">
			<stop  offset="4.102398e-07" style="stop-color:#858E8D"/>
			<stop  offset="1" style="stop-color:#9EA0A4"/>
		</linearGradient>
		<path class="st73" d="M729.5,755.7l-18.2-5.5c-3.9-1.2-6.5-4.7-6.5-8.8V503.6c0-6.2,6-10.6,11.8-8.8l18.2,5.5
			c3.9,1.2,6.5,4.7,6.5,8.8v237.8C741.3,753.1,735.4,757.5,729.5,755.7z"/>
		<linearGradient id="SVGID_17_" gradientUnits="userSpaceOnUse" x1="873.123" y1="502.118" x2="311.1077" y2="781.3911">
			<stop  offset="4.102398e-07" style="stop-color:#FB923C"/>
			<stop  offset="1" style="stop-color:#F5B419"/>
		</linearGradient>
		<path class="st74" d="M897.2,496.2L849.7,443c-1.2-1.4-3.3-1.6-4.8-0.6l-5.1,3.5l-20.8,67l28.4-4c0.2,6.7-0.2,13.3-1.2,19.9
			c-1.9,12.6-6.1,24.9-12.7,35.5c-6.6,10.5-15.8,19.2-26.6,23.7c-10.8,4.4-22.9,4.1-34-0.6l-0.7-0.3l-0.6-0.1l-32.8-8.3l-16.5-4.2
			c-6.4-1.5-13-1.9-19.5-1.3c-13,1.2-25.4,7-34.8,15.9c-2.4,2.2-4.5,4.7-6.5,7.2l-5.1,6.7l-10.2,13.5l-40.8,53.9l-5.1,6.7l-2.5,3.3
			l-2.4,2.8c-3.3,3.6-7.2,6.7-11.5,9.1c-8.6,4.8-18.9,6.6-28.7,5.1c-5-0.7-9.3-2.4-14.8-4.6l-15.7-6.3L493.6,674l-31.4-12.5
			c-2.5-1-5.6-2.2-8.5-3c-3-0.8-6-1.4-9.1-1.7c-6.1-0.6-12.4-0.3-18.4,1.2c-6,1.4-11.8,3.8-17,7c-2.5,1.6-5.2,3.6-7.3,5.3l-6.5,5.3
			L369.3,697l-52.4,42.7l4.4,5.4l53.2-41.7l26.6-20.8l6.6-5.2c2.3-1.8,4.2-3.2,6.4-4.5c4.4-2.6,9.2-4.5,14.2-5.6
			c5-1.1,10.2-1.2,15.2-0.7c2.5,0.3,5,0.8,7.5,1.6c2.5,0.7,4.6,1.6,7.4,2.8l31.1,13.1l31.1,13.1l15.6,6.6c4.9,2.1,11.1,4.7,17.3,5.7
			c12.4,2.2,25.6,0.1,36.8-5.8c5.6-3,10.7-6.8,15.1-11.5c1.1-1.2,2.1-2.4,3.1-3.6l2.7-3.3l5.2-6.6l41.8-53.1l10.5-13.3l5.2-6.6
			c1.5-1.9,3.1-3.6,4.9-5.2c7.1-6.4,16.3-10.5,25.7-11.2c4.7-0.4,9.5,0,14.1,1.2l16.1,4.4l32.1,8.8c7.1,3,14.8,5,22.8,5.3
			c8.2,0.3,16.6-1,24.2-4c15.3-6,27.5-17.4,35.9-30.3c8.5-13,13.7-27.7,16.3-42.7c1.5-8.6,2-17.3,1.8-25.9l26.2,0.5l2.1-1.4
			C899.1,503.1,899.6,498.9,897.2,496.2z"/>
		<linearGradient id="SVGID_18_" gradientUnits="userSpaceOnUse" x1="392.4516" y1="714.4143" x2="1079.3593" y2="419.5297">
			<stop  offset="4.102398e-07" style="stop-color:#FB923C"/>
			<stop  offset="1" style="stop-color:#F5B419"/>
		</linearGradient>
		<path class="st75" d="M894,506.6l-54.1-60.7l-28.5,72.3l28.4-4c0.2,6.7-0.2,13.3-1.2,19.9c-1.9,12.6-6.1,24.9-12.7,35.5
			c-6.6,10.5-15.8,19.2-26.6,23.7c-10.8,4.4-22.9,4.1-34-0.6l-0.7-0.3l-0.6-0.1l-32.8-8.3l-16.5-4.2c-6.4-1.5-13-1.9-19.5-1.3
			c-13,1.2-25.4,7-34.8,15.9c-2.4,2.2-4.5,4.7-6.5,7.2l-5.1,6.7l-10.2,13.5l-40.8,53.9l-5.1,6.7l-2.5,3.3l-2.4,2.8
			c-3.3,3.6-7.2,6.7-11.5,9.1c-8.6,4.8-18.9,6.6-28.7,5.1c-5-0.7-9.3-2.4-14.8-4.6l-15.7-6.3l-31.4-12.5l-31.4-12.5
			c-2.5-1-5.6-2.2-8.5-3c-3-0.8-6-1.4-9.1-1.7c-6.1-0.6-12.4-0.3-18.4,1.2c-6,1.4-11.8,3.8-17,7c-2.5,1.6-5.2,3.6-7.3,5.3l-6.5,5.3
			l-26.2,21.4l-49.7,40.5c-1.5,1.2-1.7,3.4-0.5,4.9h0c1.2,1.5,3.4,1.8,4.9,0.6l50.4-39.5l26.6-20.8l6.6-5.2c2.3-1.8,4.2-3.2,6.4-4.5
			c4.4-2.6,9.2-4.5,14.2-5.6c5-1.1,10.2-1.2,15.2-0.7c2.5,0.3,5,0.8,7.5,1.6c2.5,0.7,4.6,1.6,7.4,2.8l31.1,13.1l31.1,13.1l15.6,6.6
			c4.9,2.1,11.1,4.7,17.3,5.7c12.4,2.2,25.6,0.1,36.8-5.8c5.6-3,10.7-6.8,15.1-11.5c1.1-1.2,2.1-2.4,3.1-3.6l2.7-3.3l5.2-6.6
			l41.8-53.1l10.5-13.3l5.2-6.6c1.5-1.9,3.1-3.6,4.9-5.2c7.1-6.4,16.3-10.5,25.7-11.2c4.7-0.4,9.5,0,14.1,1.2l16.1,4.4l32.1,8.8
			c7.1,3,14.8,5,22.8,5.3c8.2,0.3,16.6-1,24.2-4c15.3-6,27.5-17.4,35.9-30.3c8.5-13,13.7-27.7,16.3-42.7c1.5-8.6,2-17.3,1.8-25.9
			L894,506.6z"/>
	</g>
</g>
<g id="Layer_5">
</g>
<g id="Layer_6">
</g>
<g id="Layer_7">
</g>
<g id="Layer_8">
</g>
</svg>
