<?xml version="1.0" encoding="utf-8"?>
<!-- Generator: Adobe Illustrator 25.0.1, SVG Export Plug-In . SVG Version: 6.00 Build 0)  -->
<svg version="1.1" xmlns="http://www.w3.org/2000/svg" xmlns:xlink="http://www.w3.org/1999/xlink" x="0px" y="0px"
	 viewBox="0 0 1080 1080" style="enable-background:new 0 0 1080 1080;" xml:space="preserve">
<style type="text/css">
	.st0{opacity:0.35;}
	.st1{opacity:0;fill:#231F20;}
	.st2{opacity:1.960784e-02;fill:#231F20;}
	.st3{opacity:3.921569e-02;fill:#231F20;}
	.st4{opacity:5.882353e-02;fill:#231F20;}
	.st5{opacity:7.843138e-02;fill:#231F20;}
	.st6{opacity:9.803922e-02;fill:#231F20;}
	.st7{opacity:0.1176;fill:#231F20;}
	.st8{opacity:0.1373;fill:#231F20;}
	.st9{opacity:0.1569;fill:#231F20;}
	.st10{opacity:0.1765;fill:#231F20;}
	.st11{opacity:0.1961;fill:#231F20;}
	.st12{opacity:0.2157;fill:#231F20;}
	.st13{opacity:0.2353;fill:#231F20;}
	.st14{opacity:0.2549;fill:#231F20;}
	.st15{opacity:0.2745;fill:#231F20;}
	.st16{opacity:0.2941;fill:#231F20;}
	.st17{opacity:0.3137;fill:#231F20;}
	.st18{opacity:0.3333;fill:#231F20;}
	.st19{opacity:0.3529;fill:#231F20;}
	.st20{opacity:0.3725;fill:#231F20;}
	.st21{opacity:0.3922;fill:#231F20;}
	.st22{opacity:0.4118;fill:#231F20;}
	.st23{opacity:0.4314;fill:#231F20;}
	.st24{opacity:0.451;fill:#231F20;}
	.st25{opacity:0.4706;fill:#231F20;}
	.st26{opacity:0.4902;fill:#231F20;}
	.st27{opacity:0.5098;fill:#231F20;}
	.st28{opacity:0.5294;fill:#231F20;}
	.st29{opacity:0.549;fill:#231F20;}
	.st30{opacity:0.5686;fill:#231F20;}
	.st31{opacity:0.5882;fill:#231F20;}
	.st32{opacity:0.6078;fill:#231F20;}
	.st33{opacity:0.6275;fill:#231F20;}
	.st34{opacity:0.6471;fill:#231F20;}
	.st35{opacity:0.6667;fill:#231F20;}
	.st36{opacity:0.6863;fill:#231F20;}
	.st37{opacity:0.7059;fill:#231F20;}
	.st38{opacity:0.7255;fill:#231F20;}
	.st39{opacity:0.7451;fill:#231F20;}
	.st40{opacity:0.7647;fill:#231F20;}
	.st41{opacity:0.7843;fill:#231F20;}
	.st42{opacity:0.8039;fill:#231F20;}
	.st43{opacity:0.8235;fill:#231F20;}
	.st44{opacity:0.8431;fill:#231F20;}
	.st45{opacity:0.8627;fill:#231F20;}
	.st46{opacity:0.8824;fill:#231F20;}
	.st47{opacity:0.902;fill:#231F20;}
	.st48{opacity:0.9216;fill:#231F20;}
	.st49{opacity:0.9412;fill:#231F20;}
	.st50{opacity:0.9608;fill:#231F20;}
	.st51{opacity:0.9804;fill:#231F20;}
	.st52{fill:#231F20;}
	.st53{fill:url(#SVGID_1_);}
	.st54{fill:url(#SVGID_2_);}
	.st55{fill:url(#SVGID_3_);}
	.st56{opacity:0.54;fill:#FFFFFF;}
	.st57{fill:#D3D3D1;}
	.st58{fill:#FF9700;}
	.st59{fill:#FF9F43;}
	.st60{fill:url(#SVGID_4_);}
	.st61{fill:url(#SVGID_5_);}
	.st62{fill:url(#SVGID_6_);}
	.st63{opacity:0.46;}
	.st64{fill:url(#SVGID_7_);}
	.st65{fill:url(#SVGID_8_);}
	.st66{fill:url(#SVGID_9_);}
	.st67{fill:url(#SVGID_10_);}
	.st68{fill:url(#SVGID_11_);}
	.st69{fill:url(#SVGID_12_);}
	.st70{fill:url(#SVGID_13_);}
	.st71{fill:url(#SVGID_14_);}
	.st72{fill:url(#SVGID_15_);}
	.st73{fill:url(#SVGID_16_);}
	.st74{fill:url(#SVGID_17_);}
	.st75{fill:url(#SVGID_18_);}
	.st76{fill:#6B757F;}
	.st77{fill:url(#SVGID_19_);}
	.st78{fill:url(#SVGID_20_);}
	.st79{fill:url(#SVGID_21_);}
	.st80{fill:#FFFFFF;}
	.st81{fill:url(#SVGID_22_);}
	.st82{fill:url(#SVGID_23_);}
	.st83{fill:url(#SVGID_24_);}
	.st84{fill:url(#SVGID_25_);}
	.st85{fill:#8C959D;}
	.st86{fill:#858E8D;}
	.st87{fill:url(#SVGID_26_);}
	.st88{fill:url(#SVGID_27_);}
	.st89{fill:url(#SVGID_28_);}
	.st90{fill:url(#SVGID_29_);}
	.st91{fill:url(#SVGID_30_);}
	.st92{fill:url(#SVGID_31_);}
	.st93{fill:url(#SVGID_32_);}
	.st94{fill:url(#SVGID_33_);}
	.st95{fill:url(#SVGID_34_);}
	.st96{fill:url(#SVGID_35_);}
	.st97{fill:url(#SVGID_36_);}
	.st98{fill:url(#SVGID_37_);}
	.st99{fill:url(#SVGID_38_);}
	.st100{fill:url(#SVGID_39_);}
	.st101{fill:#FEFEFF;}
	.st102{fill:#0F0D0E;}
	.st103{fill-rule:evenodd;clip-rule:evenodd;fill:#24292F;}
	.st104{fill:url(#SVGID_40_);}
	.st105{fill:url(#SVGID_41_);}
	.st106{fill:url(#SVGID_42_);}
	.st107{fill:url(#SVGID_43_);}
	.st108{fill:url(#SVGID_44_);}
	.st109{opacity:0.45;}
	.st110{fill:none;stroke:#231F20;stroke-width:4.619;stroke-miterlimit:10;}
	.st111{fill:none;stroke:#231F20;stroke-width:4.2487;stroke-miterlimit:10;}
	.st112{fill:none;stroke:#231F20;stroke-width:4.7724;stroke-miterlimit:10;}
	.st113{fill:none;stroke:#231F20;stroke-width:4.9798;stroke-miterlimit:10;}
	.st114{fill:none;stroke:#231F20;stroke-width:4.3657;stroke-miterlimit:10;}
	.st115{fill:url(#SVGID_45_);}
	.st116{fill:none;stroke:#485654;stroke-width:4.524;stroke-miterlimit:10;}
	.st117{fill:none;stroke:#485654;stroke-width:5.0504;stroke-miterlimit:10;}
	.st118{fill:none;stroke:#485654;stroke-width:4.0187;stroke-miterlimit:10;}
	.st119{opacity:0.72;fill:url(#SVGID_46_);}
	.st120{opacity:0.72;}
	.st121{opacity:0.72;fill:url(#SVGID_47_);}
	.st122{opacity:0.72;fill:url(#SVGID_48_);}
	.st123{opacity:0.72;fill:url(#SVGID_49_);}
	.st124{opacity:0.72;fill:url(#SVGID_50_);}
	.st125{fill:none;stroke:#747678;stroke-width:8.2175;stroke-miterlimit:10;}
	.st126{fill:none;stroke:#747678;stroke-width:8.2175;stroke-miterlimit:10;stroke-dasharray:1.991300e-02,21.8084,10.9092,0;}
	
		.st127{fill:none;stroke:#747678;stroke-width:8.2175;stroke-miterlimit:10;stroke-dasharray:21.8183,10.8992,1.991300e-02,21.8084,10.9092,0;}
	.st128{fill:url(#SVGID_51_);}
	.st129{fill:url(#SVGID_52_);}
	.st130{fill:url(#SVGID_53_);}
	.st131{fill:url(#SVGID_54_);}
	.st132{fill:url(#SVGID_55_);}
	.st133{fill:#C4C6C8;}
	.st134{fill:url(#SVGID_56_);}
	.st135{fill:url(#SVGID_57_);}
	.st136{fill:#24292F;}
	.st137{fill:#FCFCFE;}
	.st138{fill:url(#SVGID_58_);}
	.st139{fill:url(#SVGID_59_);}
	.st140{fill:url(#SVGID_60_);}
	.st141{fill:url(#SVGID_61_);}
	.st142{fill:url(#SVGID_62_);}
	.st143{fill:url(#SVGID_63_);}
	.st144{fill:url(#SVGID_64_);}
	.st145{fill:url(#SVGID_65_);}
	.st146{fill:url(#SVGID_66_);}
	.st147{fill:url(#SVGID_67_);}
	.st148{fill:url(#SVGID_68_);}
	.st149{fill:url(#SVGID_69_);}
	.st150{fill:url(#SVGID_70_);}
	.st151{fill:url(#SVGID_71_);}
	.st152{fill:url(#SVGID_72_);}
	.st153{fill:url(#SVGID_73_);}
	.st154{fill:url(#SVGID_74_);}
	.st155{fill:url(#SVGID_75_);}
	.st156{fill:url(#SVGID_76_);}
	.st157{fill:url(#SVGID_77_);}
	.st158{fill:url(#SVGID_78_);}
	.st159{fill:url(#SVGID_79_);}
	.st160{fill:url(#SVGID_80_);}
	.st161{fill:url(#SVGID_81_);}
	.st162{fill:url(#SVGID_82_);}
	.st163{fill:url(#SVGID_83_);}
	.st164{fill:url(#SVGID_84_);}
	.st165{fill:url(#SVGID_85_);}
	.st166{fill:url(#SVGID_86_);}
	.st167{fill:url(#SVGID_87_);}
	.st168{fill:url(#SVGID_88_);}
	.st169{fill:url(#SVGID_89_);}
	.st170{fill:url(#SVGID_90_);}
	.st171{fill:url(#SVGID_91_);}
	.st172{fill:url(#SVGID_92_);}
	.st173{fill:url(#SVGID_93_);}
</style>
<g id="Layer_1">
</g>
<g id="Step_2">
</g>
<g id="Step_3">
</g>
<g id="Step_4">
	<g>
		<g class="st0">
			
				<ellipse transform="matrix(4.302964e-02 -0.9991 0.9991 4.302964e-02 -339.1104 1139.447)" class="st1" cx="425.2" cy="746.7" rx="52.2" ry="137.9"/>
			
				<ellipse transform="matrix(4.308572e-02 -0.9991 0.9991 4.308572e-02 -338.2642 1139.2041)" class="st2" cx="425.6" cy="746.2" rx="51.5" ry="136.2"/>
			
				<ellipse transform="matrix(4.314321e-02 -0.9991 0.9991 4.314321e-02 -337.4186 1138.9603)" class="st3" cx="425.9" cy="745.6" rx="50.8" ry="134.5"/>
			
				<ellipse transform="matrix(4.320217e-02 -0.9991 0.9991 4.320217e-02 -336.5737 1138.7153)" class="st4" cx="426.2" cy="745.1" rx="50.2" ry="132.7"/>
			
				<ellipse transform="matrix(4.326264e-02 -0.9991 0.9991 4.326264e-02 -335.7294 1138.4694)" class="st5" cx="426.6" cy="744.5" rx="49.5" ry="131"/>
			
				<ellipse transform="matrix(4.332469e-02 -0.9991 0.9991 4.332469e-02 -334.8857 1138.2222)" class="st6" cx="426.9" cy="744" rx="48.8" ry="129.3"/>
			
				<ellipse transform="matrix(4.338839e-02 -0.9991 0.9991 4.338839e-02 -334.0427 1137.9739)" class="st7" cx="427.2" cy="743.4" rx="48.1" ry="127.6"/>
			
				<ellipse transform="matrix(4.345379e-02 -0.9991 0.9991 4.345379e-02 -333.2005 1137.7244)" class="st8" cx="427.5" cy="742.9" rx="47.4" ry="125.8"/>
			
				<ellipse transform="matrix(4.352096e-02 -0.9991 0.9991 4.352096e-02 -332.359 1137.4735)" class="st9" cx="427.9" cy="742.3" rx="46.7" ry="124.1"/>
			
				<ellipse transform="matrix(4.358999e-02 -0.999 0.999 4.358999e-02 -331.5182 1137.2213)" class="st10" cx="428.2" cy="741.8" rx="46" ry="122.4"/>
			
				<ellipse transform="matrix(4.366094e-02 -0.999 0.999 4.366094e-02 -330.6783 1136.9677)" class="st11" cx="428.5" cy="741.2" rx="45.4" ry="120.7"/>
			
				<ellipse transform="matrix(4.373391e-02 -0.999 0.999 4.373391e-02 -329.8393 1136.7126)" class="st12" cx="428.9" cy="740.7" rx="44.7" ry="119"/>
			
				<ellipse transform="matrix(4.380897e-02 -0.999 0.999 4.380897e-02 -329.0011 1136.4562)" class="st13" cx="429.2" cy="740.1" rx="44" ry="117.2"/>
			
				<ellipse transform="matrix(4.388621e-02 -0.999 0.999 4.388621e-02 -328.1638 1136.198)" class="st14" cx="429.5" cy="739.5" rx="43.3" ry="115.5"/>
			
				<ellipse transform="matrix(4.396575e-02 -0.999 0.999 4.396575e-02 -327.3275 1135.9382)" class="st15" cx="429.9" cy="739" rx="42.6" ry="113.8"/>
			
				<ellipse transform="matrix(4.404767e-02 -0.999 0.999 4.404767e-02 -326.4922 1135.6768)" class="st16" cx="430.2" cy="738.4" rx="41.9" ry="112.1"/>
			
				<ellipse transform="matrix(4.413209e-02 -0.999 0.999 4.413209e-02 -325.6579 1135.4135)" class="st17" cx="430.5" cy="737.9" rx="41.3" ry="110.4"/>
			
				<ellipse transform="matrix(4.421913e-02 -0.999 0.999 4.421913e-02 -324.8247 1135.1482)" class="st18" cx="430.8" cy="737.3" rx="40.6" ry="108.6"/>
			
				<ellipse transform="matrix(4.430889e-02 -0.999 0.999 4.430889e-02 -323.9927 1134.881)" class="st19" cx="431.2" cy="736.8" rx="39.9" ry="106.9"/>
			
				<ellipse transform="matrix(4.440153e-02 -0.999 0.999 4.440153e-02 -323.1618 1134.6118)" class="st20" cx="431.5" cy="736.2" rx="39.2" ry="105.2"/>
			
				<ellipse transform="matrix(4.449718e-02 -0.999 0.999 4.449718e-02 -322.3323 1134.3403)" class="st21" cx="431.8" cy="735.7" rx="38.5" ry="103.5"/>
			
				<ellipse transform="matrix(4.459598e-02 -0.999 0.999 4.459598e-02 -321.504 1134.0667)" class="st22" cx="432.2" cy="735.1" rx="37.8" ry="101.7"/>
			
				<ellipse transform="matrix(4.469810e-02 -0.999 0.999 4.469810e-02 -320.6772 1133.7905)" class="st23" cx="432.5" cy="734.6" rx="37.2" ry="100"/>
			
				<ellipse transform="matrix(4.480370e-02 -0.999 0.999 4.480370e-02 -319.8518 1133.512)" class="st24" cx="432.8" cy="734" rx="36.5" ry="98.3"/>
			
				<ellipse transform="matrix(4.491298e-02 -0.999 0.999 4.491298e-02 -319.0279 1133.2306)" class="st25" cx="433.1" cy="733.5" rx="35.8" ry="96.6"/>
			
				<ellipse transform="matrix(4.502611e-02 -0.999 0.999 4.502611e-02 -318.2057 1132.9465)" class="st26" cx="433.5" cy="732.9" rx="35.1" ry="94.9"/>
			
				<ellipse transform="matrix(4.514331e-02 -0.999 0.999 4.514331e-02 -317.3851 1132.6595)" class="st27" cx="433.8" cy="732.4" rx="34.4" ry="93.1"/>
			
				<ellipse transform="matrix(4.526481e-02 -0.999 0.999 4.526481e-02 -316.5663 1132.3694)" class="st28" cx="434.1" cy="731.8" rx="33.7" ry="91.4"/>
			
				<ellipse transform="matrix(4.539085e-02 -0.999 0.999 4.539085e-02 -315.7495 1132.076)" class="st29" cx="434.5" cy="731.2" rx="33" ry="89.7"/>
			
				<ellipse transform="matrix(4.552168e-02 -0.999 0.999 4.552168e-02 -314.9346 1131.7792)" class="st30" cx="434.8" cy="730.7" rx="32.4" ry="88"/>
			
				<ellipse transform="matrix(4.565758e-02 -0.999 0.999 4.565758e-02 -314.1219 1131.4786)" class="st31" cx="435.1" cy="730.1" rx="31.7" ry="86.3"/>
			
				<ellipse transform="matrix(4.579886e-02 -0.999 0.999 4.579886e-02 -313.3114 1131.1742)" class="st32" cx="435.5" cy="729.6" rx="31" ry="84.5"/>
			
				<ellipse transform="matrix(4.594583e-02 -0.9989 0.9989 4.594583e-02 -312.5033 1130.8656)" class="st33" cx="435.8" cy="729" rx="30.3" ry="82.8"/>
			
				<ellipse transform="matrix(4.609887e-02 -0.9989 0.9989 4.609887e-02 -311.6977 1130.5526)" class="st34" cx="436.1" cy="728.5" rx="29.6" ry="81.1"/>
			
				<ellipse transform="matrix(4.625833e-02 -0.9989 0.9989 4.625833e-02 -310.8948 1130.2351)" class="st35" cx="436.4" cy="727.9" rx="28.9" ry="79.4"/>
			
				<ellipse transform="matrix(4.642465e-02 -0.9989 0.9989 4.642465e-02 -310.0948 1129.9125)" class="st36" cx="436.8" cy="727.4" rx="28.3" ry="77.6"/>
			
				<ellipse transform="matrix(4.659827e-02 -0.9989 0.9989 4.659827e-02 -309.2977 1129.5846)" class="st37" cx="437.1" cy="726.8" rx="27.6" ry="75.9"/>
			
				<ellipse transform="matrix(4.677968e-02 -0.9989 0.9989 4.677968e-02 -308.504 1129.2511)" class="st38" cx="437.4" cy="726.3" rx="26.9" ry="74.2"/>
			
				<ellipse transform="matrix(4.696943e-02 -0.9989 0.9989 4.696943e-02 -307.7137 1128.9116)" class="st39" cx="437.8" cy="725.7" rx="26.2" ry="72.5"/>
			
				<ellipse transform="matrix(4.716810e-02 -0.9989 0.9989 4.716810e-02 -306.9271 1128.5656)" class="st40" cx="438.1" cy="725.2" rx="25.5" ry="70.8"/>
			
				<ellipse transform="matrix(4.737633e-02 -0.9989 0.9989 4.737633e-02 -306.1445 1128.2126)" class="st41" cx="438.4" cy="724.6" rx="24.8" ry="69"/>
			
				<ellipse transform="matrix(4.759484e-02 -0.9989 0.9989 4.759484e-02 -305.3661 1127.8523)" class="st42" cx="438.8" cy="724.1" rx="24.1" ry="67.3"/>
			
				<ellipse transform="matrix(4.782440e-02 -0.9989 0.9989 4.782440e-02 -304.5924 1127.4838)" class="st43" cx="439.1" cy="723.5" rx="23.5" ry="65.6"/>
			
				<ellipse transform="matrix(4.806589e-02 -0.9988 0.9988 4.806589e-02 -303.8236 1127.1068)" class="st44" cx="439.4" cy="723" rx="22.8" ry="63.9"/>
			
				<ellipse transform="matrix(4.832024e-02 -0.9988 0.9988 4.832024e-02 -303.0602 1126.7203)" class="st45" cx="439.7" cy="722.4" rx="22.1" ry="62.2"/>
			
				<ellipse transform="matrix(4.858853e-02 -0.9988 0.9988 4.858853e-02 -302.3025 1126.3239)" class="st46" cx="440.1" cy="721.8" rx="21.4" ry="60.4"/>
			
				<ellipse transform="matrix(4.887194e-02 -0.9988 0.9988 4.887194e-02 -301.5511 1125.9164)" class="st47" cx="440.4" cy="721.3" rx="20.7" ry="58.7"/>
			
				<ellipse transform="matrix(4.917177e-02 -0.9988 0.9988 4.917177e-02 -300.8065 1125.4969)" class="st48" cx="440.7" cy="720.7" rx="20" ry="57"/>
			
				<ellipse transform="matrix(4.948951e-02 -0.9988 0.9988 4.948951e-02 -300.0693 1125.0646)" class="st49" cx="441.1" cy="720.2" rx="19.4" ry="55.3"/>
			
				<ellipse transform="matrix(4.982682e-02 -0.9988 0.9988 4.982682e-02 -299.3401 1124.6179)" class="st50" cx="441.4" cy="719.6" rx="18.7" ry="53.5"/>
			
				<ellipse transform="matrix(5.018556e-02 -0.9987 0.9987 5.018556e-02 -298.6199 1124.1558)" class="st51" cx="441.7" cy="719.1" rx="18" ry="51.8"/>
			
				<ellipse transform="matrix(5.056785e-02 -0.9987 0.9987 5.056785e-02 -297.9093 1123.6764)" class="st52" cx="442.1" cy="718.5" rx="17.3" ry="50.1"/>
		</g>
		<g>
			<path class="st76" d="M496.1,684.2l-66.2-25.8l-20.2-8l-2.2-0.8l-0.2-0.1c-2.3-1.4-3.5-4.2-2.9-7l2.9-14l91.1,26.5l-4.5,21.6
				C493.3,679.5,494.2,682.3,496.1,684.2z"/>
			<path class="st76" d="M525.8,696.4v0.2c0,7.5-4.5,16.9-10.9,20.7l-46.3,27.5c-4,2.4-9,2.4-13,0l-71.8-34.6
				c-4.7-2.8-4.7-8.7,0-11.4l37.8-25.6c5.1-3,8.3-8.6,8.3-14.6v-0.1l66.2,25.8c1.5,1.5,3.6,2.5,6,2.5h14.1
				C521.5,686.7,525.8,691,525.8,696.4z"/>
			<line class="st76" x1="496.2" y1="684.2" x2="496.1" y2="684.2"/>
			<linearGradient id="SVGID_1_" gradientUnits="userSpaceOnUse" x1="454.1523" y1="643.9201" x2="447.2936" y2="663.5165">
				<stop  offset="0" style="stop-color:#4D5864"/>
				<stop  offset="1" style="stop-color:#CFD3D7"/>
			</linearGradient>
			<path class="st53" d="M493.9,685l-66.2-25.8l-20.2-8l-2.2-0.8l-0.2-0.1c-2.3-1.4-3.5-4.2-2.9-7l2.9-14l91.1,26.5l-4.5,21.6
				C491.1,680.2,492,683,493.9,685z"/>
			<linearGradient id="SVGID_2_" gradientUnits="userSpaceOnUse" x1="473.0973" y1="672.1436" x2="429.1505" y2="732.6143">
				<stop  offset="0" style="stop-color:#4D5864"/>
				<stop  offset="1" style="stop-color:#CFD3D7"/>
			</linearGradient>
			<path class="st54" d="M523.7,697.2v0.2c0,7.5-3.9,14.4-10.4,18.3l-44.7,26.6c-4,2.4-9,2.4-13,0l-72.2-35.1
				c-4.7-2.8-4.7-9.5,0-12.3l36.1-20.9c5.1-3,8.3-8.6,8.3-14.6v-0.1l66.2,25.8c1.5,1.5,3.6,2.5,6,2.5H514
				C519.3,687.5,523.7,691.8,523.7,697.2z"/>
			<linearGradient id="SVGID_3_" gradientUnits="userSpaceOnUse" x1="493.9384" y1="684.9969" x2="494.0644" y2="684.9969">
				<stop  offset="0" style="stop-color:#4D5864"/>
				<stop  offset="1" style="stop-color:#CFD3D7"/>
			</linearGradient>
			<line class="st55" x1="494.1" y1="685" x2="493.9" y2="685"/>
			<path class="st80" d="M513.3,715.2l-44.7,26.6c-4,2.4-9,2.4-13,0l-72.2-35.1c-2.3-1.3-3.4-3.6-3.5-5.9c-0.1,2.5,1.1,4.9,3.5,6.4
				l72.2,35.1c4,2.4,9,2.4,13,0l44.7-26.6c6.4-3.8,10.4-10.8,10.4-18.3v-0.2c0,0,0-0.1,0-0.1C523.6,704.5,519.7,711.4,513.3,715.2z"
				/>
		</g>
		<linearGradient id="SVGID_4_" gradientUnits="userSpaceOnUse" x1="705.2616" y1="427.6468" x2="437.7544" y2="568.3486">
			<stop  offset="0" style="stop-color:#747678"/>
			<stop  offset="1" style="stop-color:#485654"/>
		</linearGradient>
		<path class="st60" d="M407.1,365.2l290.2-4.7c13.8,0.2,27.5,22.5,23.8,35.8l-77.4,278c-3.7,13.3-17.6,21-30.8,17.1l-290.9-86
			c-10.8-3.2-25.5-19.8-21.6-30.4l81.1-192.1C385.4,372.1,395.7,365,407.1,365.2z"/>
		<linearGradient id="SVGID_5_" gradientUnits="userSpaceOnUse" x1="442.0354" y1="676.163" x2="583.3638" y2="315.0866">
			<stop  offset="0" style="stop-color:#5D5E61"/>
			<stop  offset="0.7039" style="stop-color:#8C959D"/>
			<stop  offset="1" style="stop-color:#7D8589"/>
		</linearGradient>
		<path class="st61" d="M398.5,354.5l294,4.4c13.8,0.2,23.7,13.4,20,26.8l-77.4,278c-3.7,13.3-17.6,21-30.8,17.1l-290.9-86
			c-10.8-3.2-16.7-14.9-12.8-25.4l72.3-197.1C376.8,361.3,387.1,354.3,398.5,354.5z"/>
		<path class="st52" d="M702.9,373.3c-2.2-2.1-5.1-3.2-8.3-3.2l-294.2-4.4c-7.7,0-14.7,4.8-17.4,12.1l-68.5,181.1
			c-1.1,2.9-0.9,6,0.5,8.9c0.1,0.2,0.2,0.3,0.3,0.5c-1.1-0.9-1.9-2-2.6-3.3c-1.4-2.8-1.6-5.9-0.5-8.8L380.7,375
			c2.6-7.2,9.6-12.1,17.4-12.1l294.2,4.4c3.9,0,7.6,1.9,10,5.1C702.5,372.6,702.8,373,702.9,373.3z"/>
		<linearGradient id="SVGID_6_" gradientUnits="userSpaceOnUse" x1="313.8976" y1="508.5675" x2="704.8305" y2="508.5675">
			<stop  offset="0" style="stop-color:#E6E7E8"/>
			<stop  offset="1" style="stop-color:#FFFFFF"/>
		</linearGradient>
		<path class="st62" d="M704.4,383.3l-72.1,256.2c-1.9,7-8.4,11.9-15.7,11.9c-1.6,0-3.1-0.2-4.6-0.7l-292.4-80.2
			c-1.6-0.5-3-1.3-4.2-2.4c-0.1-0.1-0.2-0.3-0.3-0.5c-1.4-2.8-1.6-5.9-0.5-8.9l68.5-181.1c2.6-7.3,9.6-12.1,17.4-12.1l294.2,4.4
			c3.2,0,6,1.2,8.3,3.2C704.8,376.3,705.3,379.9,704.4,383.3z"/>
		<linearGradient id="SVGID_7_" gradientUnits="userSpaceOnUse" x1="446.1038" y1="677.2082" x2="584.9469" y2="322.4813">
			<stop  offset="0" style="stop-color:#5D5E61"/>
			<stop  offset="0.5084" style="stop-color:#FFFFFF"/>
			<stop  offset="1" style="stop-color:#7D8589"/>
		</linearGradient>
		<path class="st64" d="M711.5,371.6c1.2,3.7,1.4,7.9,0.2,12l-77.4,278c-3.7,13.3-17.6,21-30.8,17.1l-290.9-86
			c-6-1.8-10.5-6.3-12.6-11.7c1.7,6.3,6.5,11.6,13.3,13.6l290.9,86c13.2,3.9,27.1-3.8,30.8-17.1l77.4-278
			C713.8,380.7,713.3,375.8,711.5,371.6z"/>
		<g>
			<g>
				<path class="st85" d="M441.3,389.4c-13.9-0.7-20.9-1.1-35-2.2c-0.5,0-0.8-0.4-0.6-0.8c0-0.1,0.1-0.2,0.1-0.3
					c0.1-0.4,0.7-0.7,1.2-0.6c14.1,1.2,21.1,1.6,35,2.2c0.5,0,0.8,0.4,0.6,0.7c0,0.1-0.1,0.2-0.1,0.3
					C442.3,389.1,441.8,389.4,441.3,389.4z"/>
				<path class="st85" d="M482.9,390.7c-13.7-0.2-20.6-0.4-34.4-1c-0.5,0-0.8-0.4-0.6-0.7c0-0.1,0.1-0.2,0.1-0.3
					c0.1-0.4,0.7-0.7,1.2-0.7c13.9,0.6,20.7,0.7,34.4,1c0.5,0,0.8,0.3,0.6,0.7c0,0.1-0.1,0.2-0.1,0.3
					C483.9,390.4,483.4,390.7,482.9,390.7z"/>
				<path class="st86" d="M523.9,391.1c-13.5-0.1-20.3-0.1-33.9-0.3c-0.5,0-0.8-0.3-0.6-0.7c0-0.1,0.1-0.2,0.1-0.3
					c0.1-0.4,0.7-0.7,1.1-0.7c13.6,0.2,20.4,0.2,33.9,0.3c0.5,0,0.7,0.3,0.6,0.7c0,0.1-0.1,0.2-0.1,0.3
					C524.8,390.8,524.3,391.1,523.9,391.1z"/>
				<path class="st85" d="M564.3,391.2c-13.3-0.1-20-0.1-33.5-0.1c-0.5,0-0.7-0.3-0.6-0.7c0-0.1,0.1-0.2,0.1-0.3
					c0.1-0.4,0.7-0.7,1.1-0.7c13.5,0,20.2,0,33.5,0.1c0.5,0,0.7,0.3,0.6,0.7c0,0.1-0.1,0.2-0.1,0.3
					C565.3,390.9,564.8,391.2,564.3,391.2z"/>
				<path class="st86" d="M604.4,391.8c-13.2-0.3-19.9-0.4-33.2-0.5c-0.5,0-0.7-0.3-0.6-0.7c0-0.1,0.1-0.2,0.1-0.3
					c0.1-0.4,0.7-0.7,1.1-0.7c13.3,0.1,20,0.2,33.2,0.5c0.5,0,0.7,0.4,0.6,0.8c0,0.1-0.1,0.2-0.1,0.3
					C605.4,391.4,604.9,391.8,604.4,391.8z"/>
				<path class="st86" d="M644.2,393.3c-13.2-0.8-19.8-1-33-1.4c-0.5,0-0.7-0.4-0.6-0.8c0-0.1,0.1-0.2,0.1-0.3
					c0.1-0.4,0.6-0.7,1.1-0.7c13.2,0.4,19.8,0.6,33,1.4c0.5,0,0.7,0.4,0.6,0.8c0,0.1-0.1,0.2-0.1,0.3
					C645.2,393,644.7,393.3,644.2,393.3z"/>
				<path class="st85" d="M683.9,396.5c-13.1-1.4-19.7-2-32.9-2.8c-0.5,0-0.7-0.4-0.6-0.8c0-0.1,0.1-0.2,0.1-0.3
					c0.1-0.4,0.6-0.7,1.1-0.7c13.2,0.8,19.7,1.4,32.9,2.8c0.5,0.1,0.7,0.4,0.6,0.9c0,0.1-0.1,0.2-0.1,0.3
					C684.9,396.3,684.4,396.6,683.9,396.5z"/>
				<path class="st85" d="M434.6,394.9c-12.1-0.6-18.2-1-30.4-2c-0.5,0-0.7-0.4-0.6-0.7c0.1-0.2,0.1-0.2,0.1-0.4
					c0.1-0.4,0.6-0.6,1.1-0.6c12.3,1,18.3,1.4,30.4,2c0.5,0,0.7,0.3,0.6,0.7c-0.1,0.2-0.1,0.2-0.1,0.4
					C435.5,394.7,435,394.9,434.6,394.9z"/>
				<path class="st85" d="M470.9,396.3c-11.9-0.3-17.9-0.5-30-1.1c-0.5,0-0.7-0.3-0.6-0.7c0.1-0.2,0.1-0.2,0.1-0.4
					c0.1-0.4,0.6-0.6,1.1-0.6c12.1,0.6,18.1,0.8,30,1.1c0.5,0,0.7,0.3,0.6,0.7c-0.1,0.2-0.1,0.2-0.1,0.4
					C471.9,396,471.4,396.3,470.9,396.3z"/>
				<path class="st86" d="M506.8,397c-11.8-0.1-17.7-0.2-29.6-0.5c-0.5,0-0.7-0.3-0.6-0.7c0.1-0.2,0.1-0.2,0.1-0.4
					c0.1-0.4,0.6-0.7,1.1-0.7c11.9,0.3,17.8,0.3,29.6,0.5c0.4,0,0.7,0.3,0.6,0.7c-0.1,0.2-0.1,0.2-0.2,0.4
					C507.8,396.7,507.3,397,506.8,397z"/>
				<linearGradient id="SVGID_8_" gradientUnits="userSpaceOnUse" x1="385.9461" y1="409.832" x2="422.8497" y2="409.832">
					<stop  offset="0" style="stop-color:#858E8D"/>
					<stop  offset="1" style="stop-color:#858E8D"/>
				</linearGradient>
				<path class="st65" d="M421.5,412.2c-13.9-1-20.9-1.5-34.9-2.9c-0.5,0-0.8-0.4-0.6-0.8c0-0.1,0.1-0.2,0.1-0.3
					c0.1-0.4,0.7-0.7,1.2-0.6c14.1,1.4,21,1.9,34.9,2.9c0.5,0,0.8,0.4,0.6,0.8c0,0.1-0.1,0.2-0.1,0.3
					C422.5,411.9,422,412.2,421.5,412.2z"/>
				<path class="st85" d="M463.1,414.4c-13.7-0.6-20.6-0.9-34.4-1.8c-0.5,0-0.8-0.4-0.6-0.8c0-0.1,0.1-0.2,0.1-0.3
					c0.2-0.4,0.7-0.7,1.2-0.7c13.9,0.9,20.7,1.2,34.4,1.7c0.5,0,0.8,0.4,0.6,0.8c0,0.1-0.1,0.2-0.1,0.3
					C464.1,414.1,463.6,414.4,463.1,414.4z"/>
				<path class="st85" d="M504.2,415.8c-13.5-0.4-20.3-0.6-34-1.1c-0.5,0-0.8-0.4-0.6-0.8c0-0.1,0.1-0.2,0.1-0.3
					c0.2-0.4,0.7-0.7,1.2-0.7c13.7,0.5,20.5,0.7,34,1c0.5,0,0.7,0.4,0.6,0.8c0,0.1-0.1,0.2-0.1,0.3
					C505.2,415.4,504.7,415.8,504.2,415.8z"/>
				<path class="st85" d="M414.7,417.8c-12.1-0.9-18.1-1.5-30.3-2.7c-0.5,0-0.7-0.4-0.6-0.8c0.1-0.2,0.1-0.2,0.1-0.4
					c0.1-0.4,0.6-0.6,1.1-0.6c12.2,1.3,18.3,1.8,30.4,2.7c0.5,0,0.7,0.4,0.6,0.7c-0.1,0.2-0.1,0.2-0.2,0.4
					C415.7,417.5,415.2,417.8,414.7,417.8z"/>
				<path class="st85" d="M451,420.1c-11.9-0.6-17.9-1-30-1.9c-0.5,0-0.7-0.4-0.6-0.7c0.1-0.2,0.1-0.2,0.2-0.4
					c0.1-0.4,0.6-0.7,1.1-0.6c12.1,0.9,18.1,1.2,30,1.8c0.5,0,0.7,0.4,0.6,0.7c-0.1,0.2-0.1,0.2-0.2,0.4
					C452,419.8,451.5,420.1,451,420.1z"/>
				<linearGradient id="SVGID_9_" gradientUnits="userSpaceOnUse" x1="456.7401" y1="420.1613" x2="488.295" y2="420.1613">
					<stop  offset="0" style="stop-color:#858E8D"/>
					<stop  offset="1" style="stop-color:#858E8D"/>
				</linearGradient>
				<path class="st66" d="M487,421.7c-11.8-0.5-17.8-0.7-29.7-1.3c-0.5,0-0.7-0.4-0.6-0.8c0.1-0.2,0.1-0.3,0.2-0.4
					c0.1-0.4,0.6-0.7,1.1-0.7c11.9,0.6,17.9,0.8,29.7,1.2c0.5,0,0.7,0.4,0.5,0.8c-0.1,0.2-0.1,0.3-0.2,0.4
					C487.9,421.4,487.5,421.7,487,421.7z"/>
				<path class="st85" d="M523,423c-11.7-0.4-17.6-0.6-29.4-1c-0.4,0-0.7-0.4-0.5-0.8c0.1-0.2,0.1-0.3,0.2-0.4
					c0.1-0.4,0.6-0.7,1.1-0.7c11.8,0.4,17.7,0.6,29.4,0.9c0.4,0,0.7,0.4,0.5,0.8c-0.1,0.2-0.1,0.3-0.2,0.5
					C524,422.7,523.5,423,523,423z"/>
				<linearGradient id="SVGID_10_" gradientUnits="userSpaceOnUse" x1="529.045" y1="422.6886" x2="560.0443" y2="422.6886">
					<stop  offset="0" style="stop-color:#858E8D"/>
					<stop  offset="1" style="stop-color:#858E8D"/>
				</linearGradient>
				<path class="st67" d="M558.8,424.2c-11.6-0.4-17.5-0.6-29.2-1c-0.4,0-0.7-0.4-0.5-0.8c0.1-0.2,0.1-0.3,0.2-0.5
					c0.1-0.4,0.6-0.8,1.1-0.7c11.7,0.4,17.5,0.5,29.1,0.9c0.4,0,0.7,0.4,0.5,0.8c-0.1,0.2-0.1,0.3-0.2,0.5
					C559.7,423.9,559.2,424.2,558.8,424.2z"/>
				<linearGradient id="SVGID_11_" gradientUnits="userSpaceOnUse" x1="381.5569" y1="421.622" x2="418.3187" y2="421.622">
					<stop  offset="0" style="stop-color:#858E8D"/>
					<stop  offset="1" style="stop-color:#858E8D"/>
				</linearGradient>
				<path class="st68" d="M417,424.1c-13.8-1.1-20.8-1.7-34.8-3.2c-0.5-0.1-0.8-0.4-0.6-0.8c0-0.1,0.1-0.2,0.1-0.3
					c0.1-0.4,0.7-0.7,1.2-0.6c14,1.5,20.9,2.1,34.8,3.2c0.5,0,0.8,0.4,0.6,0.8c0,0.1-0.1,0.2-0.1,0.3
					C418,423.9,417.5,424.2,417,424.1z"/>
				<path class="st85" d="M458.5,426.9c-13.7-0.8-20.5-1.2-34.4-2.2c-0.5,0-0.8-0.4-0.6-0.8c0-0.1,0.1-0.2,0.1-0.3
					c0.2-0.4,0.7-0.7,1.2-0.7c13.8,1,20.7,1.4,34.4,2.1c0.5,0,0.8,0.4,0.6,0.8c0,0.1-0.1,0.2-0.1,0.3
					C459.5,426.6,459,426.9,458.5,426.9z"/>
				<linearGradient id="SVGID_12_" gradientUnits="userSpaceOnUse" x1="386.255" y1="453.3229" x2="422.5437" y2="453.3229">
					<stop  offset="0" style="stop-color:#858E8D"/>
					<stop  offset="1" style="stop-color:#858E8D"/>
				</linearGradient>
				<path class="st69" d="M421.2,456.3c-13.7-1.5-20.5-2.3-34.3-4.1c-0.5-0.1-0.8-0.4-0.6-0.8c0-0.1,0.1-0.2,0.1-0.3
					c0.2-0.4,0.7-0.7,1.2-0.6c13.8,1.7,20.6,2.5,34.3,4c0.5,0.1,0.7,0.4,0.6,0.9c0,0.1-0.1,0.2-0.1,0.3
					C422.2,456,421.7,456.3,421.2,456.3z"/>
				<path class="st85" d="M462.3,460.5c-13.6-1.3-20.4-2-34.1-3.5c-0.5-0.1-0.7-0.4-0.6-0.9c0-0.1,0.1-0.2,0.1-0.3
					c0.2-0.4,0.7-0.7,1.2-0.7c13.7,1.4,20.5,2.1,34.1,3.4c0.5,0,0.7,0.4,0.6,0.9c0,0.1-0.1,0.2-0.1,0.3
					C463.3,460.2,462.8,460.5,462.3,460.5z"/>
				<path class="st85" d="M414.4,462c-11.9-1.4-17.9-2.2-29.8-3.8c-0.5-0.1-0.7-0.4-0.6-0.8c0.1-0.2,0.1-0.2,0.2-0.4
					c0.1-0.4,0.6-0.6,1.1-0.6c12,1.6,17.9,2.4,29.8,3.8c0.5,0.1,0.7,0.4,0.6,0.8c-0.1,0.2-0.1,0.3-0.2,0.4
					C415.3,461.8,414.8,462.1,414.4,462z"/>
				<linearGradient id="SVGID_13_" gradientUnits="userSpaceOnUse" x1="420.0326" y1="463.5107" x2="451.5596" y2="463.5107">
					<stop  offset="0" style="stop-color:#858E8D"/>
					<stop  offset="1" style="stop-color:#858E8D"/>
				</linearGradient>
				<path class="st70" d="M450.3,466.1c-11.8-1.3-17.8-2-29.6-3.4c-0.5-0.1-0.7-0.4-0.5-0.8c0.1-0.2,0.1-0.3,0.2-0.4
					c0.1-0.4,0.6-0.7,1.1-0.6c11.9,1.4,17.8,2,29.6,3.3c0.5,0,0.7,0.4,0.5,0.8c-0.1,0.2-0.1,0.3-0.2,0.4
					C451.2,465.9,450.7,466.2,450.3,466.1z"/>
				<path class="st85" d="M486,469.9c-11.8-1.2-17.7-1.8-29.5-3.1c-0.4,0-0.7-0.4-0.5-0.9c0.1-0.2,0.1-0.3,0.2-0.4
					c0.2-0.4,0.6-0.7,1.1-0.7c11.8,1.2,17.7,1.8,29.5,3c0.4,0,0.7,0.4,0.5,0.9c-0.1,0.2-0.1,0.3-0.2,0.5
					C486.9,469.6,486.4,470,486,469.9z"/>
				<path class="st85" d="M416.5,468.8c-13.6-1.8-20.5-2.7-34.2-4.7c-0.5-0.1-0.8-0.5-0.6-0.9c0-0.1,0.1-0.2,0.1-0.3
					c0.2-0.4,0.7-0.7,1.2-0.6c13.7,2,20.6,2.9,34.2,4.6c0.5,0.1,0.7,0.5,0.6,0.9c0,0.1-0.1,0.2-0.1,0.3
					C417.5,468.6,417,468.9,416.5,468.8z"/>
				<path class="st85" d="M457.5,473.9c-13.6-1.6-20.4-2.4-34-4.1c-0.5-0.1-0.7-0.5-0.6-0.9c0-0.1,0.1-0.2,0.1-0.3
					c0.2-0.4,0.7-0.7,1.2-0.7c13.6,1.7,20.4,2.5,34,4c0.5,0.1,0.7,0.5,0.6,0.9c0,0.1-0.1,0.2-0.1,0.3
					C458.5,473.6,458,474,457.5,473.9z"/>
				<linearGradient id="SVGID_14_" gradientUnits="userSpaceOnUse" x1="379.0197" y1="472.7178" x2="415.1061" y2="472.7178">
					<stop  offset="0" style="stop-color:#858E8D"/>
					<stop  offset="1" style="stop-color:#858E8D"/>
				</linearGradient>
				<path class="st71" d="M413.8,476.1c-13.6-1.9-20.4-2.9-34.1-5c-0.5-0.1-0.8-0.5-0.6-0.9c0-0.1,0.1-0.2,0.1-0.3
					c0.2-0.4,0.7-0.7,1.2-0.6c13.7,2.1,20.5,3.1,34.1,4.9c0.5,0.1,0.7,0.5,0.6,0.9c0,0.1-0.1,0.2-0.1,0.3
					C414.8,475.9,414.3,476.2,413.8,476.1z"/>
				<path class="st85" d="M454.8,481.7c-13.6-1.8-20.3-2.7-34-4.6c-0.5-0.1-0.7-0.5-0.6-0.9c0-0.1,0.1-0.2,0.1-0.3
					c0.2-0.4,0.7-0.7,1.2-0.7c13.6,1.8,20.4,2.7,34,4.4c0.5,0.1,0.7,0.5,0.6,0.9c0,0.1-0.1,0.2-0.1,0.3
					C455.8,481.4,455.2,481.7,454.8,481.7z"/>
				<path class="st85" d="M406.9,481.7c-11.8-1.8-17.8-2.7-29.6-4.7c-0.5-0.1-0.7-0.4-0.6-0.8c0.1-0.2,0.1-0.2,0.2-0.4
					c0.1-0.4,0.6-0.6,1.1-0.6c11.9,1.9,17.8,2.8,29.6,4.6c0.5,0.1,0.7,0.4,0.5,0.8c-0.1,0.2-0.1,0.3-0.2,0.4
					C407.9,481.6,407.4,481.8,406.9,481.7z"/>
				<path class="st85" d="M442.7,487c-11.8-1.7-17.7-2.5-29.5-4.3c-0.5-0.1-0.7-0.4-0.5-0.8c0.1-0.2,0.1-0.3,0.2-0.4
					c0.1-0.4,0.6-0.7,1.1-0.6c11.8,1.7,17.7,2.6,29.5,4.2c0.4,0.1,0.7,0.5,0.5,0.9c-0.1,0.2-0.1,0.3-0.2,0.4
					C443.7,486.8,443.2,487.1,442.7,487z"/>
				<path class="st86" d="M478.4,492c-11.7-1.6-17.6-2.5-29.4-4.1c-0.4-0.1-0.7-0.5-0.5-0.9c0.1-0.2,0.1-0.3,0.2-0.4
					c0.2-0.4,0.6-0.7,1.1-0.7c11.8,1.6,17.7,2.4,29.4,4c0.4,0.1,0.7,0.5,0.5,0.9c-0.1,0.2-0.1,0.3-0.2,0.5
					C479.3,491.8,478.8,492.1,478.4,492z"/>
				<path class="st85" d="M514.2,497c-11.7-1.6-17.5-2.5-29.3-4.1c-0.4-0.1-0.7-0.5-0.5-0.9c0.1-0.2,0.1-0.3,0.2-0.5
					c0.2-0.4,0.6-0.8,1.1-0.7c11.7,1.6,17.6,2.4,29.3,4c0.4,0.1,0.7,0.5,0.5,1c-0.1,0.2-0.1,0.3-0.2,0.5
					C515.2,496.8,514.7,497.1,514.2,497z"/>
				<path class="st85" d="M549.9,502.2c-11.6-1.7-17.4-2.6-29.1-4.2c-0.4-0.1-0.7-0.5-0.5-1c0.1-0.2,0.1-0.3,0.2-0.5
					c0.2-0.5,0.6-0.8,1.1-0.7c11.7,1.6,17.5,2.4,29.1,4.1c0.4,0.1,0.7,0.5,0.5,1c-0.1,0.2-0.1,0.3-0.2,0.5
					C550.8,501.9,550.4,502.2,549.9,502.2z"/>
				<path class="st86" d="M585.4,507.7c-11.5-1.9-17.3-2.8-28.9-4.5c-0.4-0.1-0.7-0.5-0.5-1c0.1-0.2,0.1-0.3,0.2-0.5
					c0.2-0.5,0.6-0.9,1.1-0.8c11.6,1.7,17.4,2.6,28.9,4.4c0.4,0.1,0.7,0.5,0.5,1.1c-0.1,0.2-0.1,0.3-0.2,0.6
					C586.3,507.4,585.8,507.7,585.4,507.7z"/>
				<path class="st85" d="M620.6,513.7c-11.5-2.1-17.2-3.1-28.7-5c-0.4-0.1-0.7-0.6-0.5-1.1c0.1-0.2,0.1-0.3,0.2-0.6
					c0.2-0.5,0.6-0.9,1.1-0.8c11.5,1.9,17.3,2.8,28.7,4.9c0.4,0.1,0.7,0.6,0.5,1.1c-0.1,0.2-0.1,0.3-0.2,0.6
					C621.5,513.4,621,513.7,620.6,513.7z"/>
				<path class="st85" d="M409.1,488.7c-13.6-2.2-20.4-3.3-34-5.6c-0.5-0.1-0.7-0.5-0.6-0.9c0-0.1,0.1-0.2,0.1-0.3
					c0.2-0.4,0.7-0.7,1.2-0.6c13.6,2.3,20.4,3.4,34,5.5c0.5,0.1,0.7,0.5,0.6,0.9c0,0.1-0.1,0.2-0.1,0.3
					C410.1,488.5,409.5,488.8,409.1,488.7z"/>
				<path class="st85" d="M450,495.1c-13.5-2.1-20.3-3.1-33.9-5.2c-0.5-0.1-0.7-0.5-0.6-0.9c0-0.1,0.1-0.2,0.1-0.3
					c0.2-0.4,0.7-0.7,1.2-0.6c13.6,2.1,20.4,3.1,33.9,5.1c0.5,0.1,0.7,0.5,0.6,1c0,0.1-0.1,0.2-0.1,0.3
					C451,494.8,450.4,495.2,450,495.1z"/>
				<path class="st86" d="M383.4,556.8c-13.4-3.2-20.1-4.7-33.4-7.8c-0.5-0.1-0.7-0.5-0.6-0.9c0-0.1,0.1-0.2,0.1-0.3
					c0.1-0.4,0.6-0.6,1.1-0.5c13.3,3.1,20,4.6,33.4,7.8c0.5,0.1,0.7,0.5,0.6,0.9c0,0.1-0.1,0.2-0.1,0.3
					C384.4,556.7,383.9,556.9,383.4,556.8z"/>
				<path class="st85" d="M423.9,566.4c-13.5-3.2-20.2-4.8-33.6-8c-0.5-0.1-0.7-0.5-0.6-0.9c0-0.1,0.1-0.2,0.1-0.3
					c0.1-0.4,0.7-0.6,1.1-0.5c13.4,3.2,20.1,4.7,33.6,8c0.5,0.1,0.7,0.5,0.6,0.9c0,0.1-0.1,0.2-0.1,0.3
					C424.9,566.3,424.4,566.5,423.9,566.4z"/>
				<path class="st85" d="M376.8,561.5c-11.6-2.7-17.4-4.1-29-6.8c-0.4-0.1-0.7-0.5-0.6-0.8c0.1-0.2,0.1-0.2,0.1-0.4
					c0.1-0.4,0.6-0.6,1-0.5c11.5,2.7,17.4,4,29,6.8c0.4,0.1,0.7,0.5,0.6,0.8c-0.1,0.2-0.1,0.2-0.1,0.4
					C377.7,561.4,377.2,561.6,376.8,561.5z"/>
				<path class="st85" d="M412.1,569.9c-11.7-2.8-17.5-4.2-29.2-7c-0.4-0.1-0.7-0.5-0.6-0.8c0.1-0.2,0.1-0.2,0.1-0.4
					c0.1-0.4,0.6-0.6,1.1-0.5c11.6,2.8,17.5,4.1,29.2,7c0.4,0.1,0.7,0.5,0.6,0.9c-0.1,0.2-0.1,0.2-0.1,0.4
					C413,569.8,412.6,570,412.1,569.9z"/>
				<path class="st85" d="M447.6,578.5c-11.7-2.9-17.6-4.3-29.3-7.1c-0.4-0.1-0.7-0.5-0.6-0.9c0.1-0.2,0.1-0.2,0.1-0.4
					c0.1-0.4,0.6-0.6,1.1-0.5c11.7,2.8,17.6,4.2,29.3,7.1c0.4,0.1,0.7,0.5,0.6,0.9c-0.1,0.2-0.1,0.2-0.1,0.4
					C448.5,578.4,448,578.6,447.6,578.5z"/>
				<path class="st85" d="M483.5,587.4c-11.7-2.9-17.6-4.4-29.3-7.3c-0.4-0.1-0.7-0.5-0.6-0.9c0.1-0.2,0.1-0.2,0.1-0.4
					c0.1-0.4,0.6-0.6,1.1-0.5c11.7,2.9,17.6,4.3,29.3,7.2c0.4,0.1,0.7,0.5,0.6,0.9c-0.1,0.2-0.1,0.2-0.1,0.4
					C484.4,587.3,484,587.5,483.5,587.4z"/>
				<path class="st85" d="M519.3,596.4c-11.7-3-17.5-4.5-29.2-7.4c-0.4-0.1-0.7-0.5-0.6-0.9c0.1-0.2,0.1-0.2,0.1-0.4
					c0.1-0.4,0.6-0.6,1.1-0.5c11.7,2.9,17.6,4.4,29.2,7.4c0.4,0.1,0.7,0.5,0.6,0.9c-0.1,0.2-0.1,0.2-0.1,0.4
					C520.3,596.3,519.8,596.5,519.3,596.4z"/>
				<path class="st85" d="M555,605.6c-11.6-3-17.4-4.5-29.1-7.5c-0.4-0.1-0.7-0.5-0.6-0.9c0.1-0.2,0.1-0.2,0.1-0.4
					c0.1-0.4,0.6-0.6,1.1-0.5c11.7,3,17.5,4.5,29.1,7.5c0.4,0.1,0.7,0.5,0.6,0.9c-0.1,0.2-0.1,0.2-0.1,0.4
					C555.9,605.5,555.4,605.7,555,605.6z"/>
				<path class="st85" d="M590.3,614.9c-11.5-3-17.2-4.6-28.8-7.6c-0.4-0.1-0.7-0.5-0.6-0.9c0.1-0.2,0.1-0.2,0.1-0.4
					c0.1-0.4,0.6-0.6,1-0.5c11.6,3,17.3,4.5,28.8,7.6c0.4,0.1,0.7,0.5,0.5,0.9c-0.1,0.2-0.1,0.2-0.1,0.4
					C591.2,614.8,590.7,615,590.3,614.9z"/>
				<path class="st85" d="M379.1,568.2c-13.4-3.2-20-4.7-33.3-7.8c-0.5-0.1-0.7-0.5-0.6-0.9c0-0.1,0.1-0.2,0.1-0.3
					c0.1-0.4,0.6-0.6,1.1-0.5c13.2,3.1,19.9,4.6,33.3,7.8c0.5,0.1,0.7,0.5,0.6,0.9c0,0.1-0.1,0.2-0.1,0.3
					C380,568.1,379.5,568.3,379.1,568.2z"/>
				<path class="st85" d="M419.5,577.9c-13.5-3.3-20.2-4.9-33.6-8.1c-0.5-0.1-0.7-0.5-0.6-0.9c0-0.1,0.1-0.2,0.1-0.3
					c0.1-0.4,0.6-0.6,1.1-0.5c13.4,3.2,20.1,4.8,33.6,8.1c0.5,0.1,0.7,0.5,0.6,0.9c0,0.1-0.1,0.2-0.1,0.3
					C420.5,577.8,420,578,419.5,577.9z"/>
				<path class="st85" d="M499.5,428.9c-13.5-0.6-20.3-0.9-34-1.6c-0.5,0-0.7-0.4-0.6-0.8c0-0.1,0.1-0.2,0.1-0.3
					c0.2-0.4,0.7-0.8,1.2-0.7c13.7,0.7,20.4,1,34,1.5c0.5,0,0.7,0.4,0.6,0.8c0,0.1-0.1,0.2-0.1,0.3
					C500.5,428.5,500,428.9,499.5,428.9z"/>
				<linearGradient id="SVGID_15_" gradientUnits="userSpaceOnUse" x1="357.741" y1="528.5669" x2="393.2431" y2="528.5669">
					<stop  offset="0" style="stop-color:#858E8D"/>
					<stop  offset="1" style="stop-color:#858E8D"/>
				</linearGradient>
				<path class="st72" d="M391.9,533.1c-13.5-2.9-20.2-4.4-33.6-7.4c-0.5-0.1-0.7-0.5-0.6-0.9c0-0.1,0.1-0.2,0.1-0.3
					c0.2-0.4,0.7-0.6,1.1-0.5c13.4,2.9,20.1,4.4,33.6,7.3c0.5,0.1,0.7,0.5,0.6,0.9c0,0.1-0.1,0.2-0.1,0.3
					C392.9,533,392.4,533.2,391.9,533.1z"/>
				<path class="st85" d="M432.6,542c-13.5-2.9-20.2-4.4-33.7-7.4c-0.5-0.1-0.7-0.5-0.6-0.9c0-0.1,0.1-0.2,0.1-0.3
					c0.2-0.4,0.7-0.7,1.1-0.6c13.5,2.9,20.2,4.4,33.7,7.3c0.5,0.1,0.7,0.5,0.6,1c0,0.1-0.1,0.2-0.1,0.3
					C433.6,541.8,433,542.1,432.6,542z"/>
				<path class="st86" d="M473.2,550.9c-13.5-3-20.2-4.5-33.7-7.4c-0.5-0.1-0.7-0.5-0.6-1c0-0.1,0.1-0.2,0.1-0.3
					c0.2-0.4,0.7-0.7,1.1-0.6c13.5,2.9,20.2,4.4,33.7,7.3c0.5,0.1,0.7,0.6,0.6,1c0,0.1-0.1,0.2-0.1,0.3
					C474.2,550.7,473.7,551,473.2,550.9z"/>
				<path class="st85" d="M385.2,538.1c-11.7-2.6-17.5-3.9-29.1-6.6c-0.4-0.1-0.7-0.5-0.5-0.8c0.1-0.2,0.1-0.2,0.1-0.4
					c0.1-0.4,0.6-0.6,1.1-0.5c11.6,2.6,17.5,3.9,29.2,6.5c0.4,0.1,0.7,0.5,0.5,0.9c-0.1,0.2-0.1,0.2-0.2,0.4
					C386.2,538,385.7,538.2,385.2,538.1z"/>
				<path class="st85" d="M420.7,546.1c-11.7-2.6-17.6-3.9-29.3-6.6c-0.4-0.1-0.7-0.5-0.5-0.9c0.1-0.2,0.1-0.2,0.2-0.4
					c0.1-0.4,0.6-0.6,1.1-0.5c11.7,2.6,17.6,3.9,29.3,6.5c0.4,0.1,0.7,0.5,0.5,0.9c-0.1,0.2-0.1,0.2-0.2,0.4
					C421.6,545.9,421.1,546.2,420.7,546.1z"/>
				<path class="st85" d="M456.2,554.1c-11.7-2.7-17.6-4-29.3-6.6c-0.4-0.1-0.7-0.5-0.5-0.9c0.1-0.2,0.1-0.2,0.2-0.4
					c0.1-0.4,0.6-0.6,1.1-0.5c11.7,2.6,17.6,3.9,29.3,6.6c0.4,0.1,0.7,0.5,0.5,0.9c-0.1,0.2-0.1,0.3-0.2,0.4
					C457.1,553.9,456.6,554.2,456.2,554.1z"/>
				<path class="st85" d="M492.1,562.3c-11.7-2.7-17.6-4-29.3-6.7c-0.4-0.1-0.7-0.5-0.5-0.9c0.1-0.2,0.1-0.3,0.2-0.4
					c0.1-0.4,0.6-0.7,1.1-0.6c11.7,2.6,17.6,4,29.3,6.6c0.4,0.1,0.7,0.5,0.5,0.9c-0.1,0.2-0.1,0.3-0.2,0.4
					C493,562.1,492.5,562.4,492.1,562.3z"/>
				<path class="st85" d="M527.8,570.6c-11.7-2.8-17.5-4.1-29.2-6.8c-0.4-0.1-0.7-0.5-0.5-0.9c0.1-0.2,0.1-0.3,0.2-0.4
					c0.1-0.4,0.6-0.7,1.1-0.6c11.7,2.7,17.5,4,29.2,6.8c0.4,0.1,0.7,0.5,0.5,1c-0.1,0.2-0.1,0.3-0.2,0.5
					C528.7,570.5,528.3,570.7,527.8,570.6z"/>
				<path class="st85" d="M387.4,545.1c-13.4-3.1-20.1-4.6-33.5-7.7c-0.5-0.1-0.7-0.5-0.6-0.9c0-0.1,0.1-0.2,0.1-0.3
					c0.1-0.4,0.7-0.6,1.1-0.5c13.4,3,20.1,4.6,33.5,7.6c0.5,0.1,0.7,0.5,0.6,0.9c0,0.1-0.1,0.2-0.1,0.3
					C388.4,544.9,387.9,545.2,387.4,545.1z"/>
				<path class="st86" d="M428,554.4c-13.5-3.1-20.2-4.7-33.6-7.7c-0.5-0.1-0.7-0.5-0.6-0.9c0-0.1,0.1-0.2,0.1-0.3
					c0.2-0.4,0.7-0.6,1.1-0.5c13.4,3.1,20.2,4.6,33.6,7.7c0.5,0.1,0.7,0.5,0.6,0.9c0,0.1-0.1,0.2-0.1,0.3
					C429,554.2,428.5,554.5,428,554.4z"/>
				<path class="st85" d="M468.6,563.8c-13.5-3.2-20.2-4.7-33.7-7.8c-0.5-0.1-0.7-0.5-0.6-1c0-0.1,0.1-0.2,0.1-0.3
					c0.2-0.4,0.7-0.7,1.1-0.6c13.5,3.1,20.2,4.6,33.7,7.8c0.5,0.1,0.7,0.6,0.6,1c0,0.1-0.1,0.2-0.1,0.3
					C469.6,563.7,469.1,563.9,468.6,563.8z"/>
				<path class="st85" d="M410.2,429.7c-12-1.1-18.1-1.7-30.2-3.1c-0.5-0.1-0.7-0.4-0.6-0.8c0.1-0.2,0.1-0.2,0.1-0.4
					c0.1-0.4,0.6-0.6,1.1-0.6c12.1,1.4,18.2,1.9,30.2,3c0.5,0,0.7,0.4,0.6,0.8c-0.1,0.2-0.1,0.2-0.2,0.4
					C411.1,429.5,410.6,429.8,410.2,429.7z"/>
				<path class="st85" d="M446.4,432.6c-11.9-0.8-17.9-1.3-29.9-2.3c-0.5,0-0.7-0.4-0.6-0.8c0.1-0.2,0.1-0.2,0.2-0.4
					c0.1-0.4,0.6-0.7,1.1-0.6c12,1,18,1.4,29.9,2.2c0.5,0,0.7,0.4,0.6,0.8c-0.1,0.2-0.1,0.3-0.2,0.4
					C447.3,432.3,446.9,432.6,446.4,432.6z"/>
				<path class="st85" d="M482.3,434.8c-11.8-0.6-17.7-1-29.6-1.8c-0.5,0-0.7-0.4-0.6-0.8c0.1-0.2,0.1-0.3,0.2-0.4
					c0.1-0.4,0.6-0.7,1.1-0.7c11.9,0.7,17.8,1.1,29.6,1.7c0.4,0,0.7,0.4,0.5,0.8c-0.1,0.2-0.1,0.3-0.2,0.4
					C483.3,434.5,482.8,434.8,482.3,434.8z"/>
				<path class="st85" d="M520,436.7c-11.7-0.6-17.6-0.9-29.4-1.5c-0.4,0-0.7-0.4-0.5-0.8c0.1-0.2,0.1-0.3,0.2-0.4
					c0.1-0.4,0.6-0.7,1.1-0.7c11.8,0.6,17.7,0.9,29.4,1.4c0.4,0,0.7,0.4,0.5,0.8c-0.1,0.2-0.1,0.3-0.2,0.5
					C520.9,436.4,520.4,436.7,520,436.7z"/>
				<linearGradient id="SVGID_16_" gradientUnits="userSpaceOnUse" x1="369.8211" y1="496.2003" x2="405.6598" y2="496.2003">
					<stop  offset="0" style="stop-color:#858E8D"/>
					<stop  offset="1" style="stop-color:#858E8D"/>
				</linearGradient>
				<path class="st73" d="M404.3,500.2c-13.5-2.4-20.3-3.6-33.9-6.1c-0.5-0.1-0.7-0.5-0.6-0.9c0-0.1,0.1-0.2,0.1-0.3
					c0.2-0.4,0.7-0.7,1.2-0.6c13.6,2.5,20.3,3.7,33.9,6.1c0.5,0.1,0.7,0.5,0.6,0.9c0,0.1-0.1,0.2-0.1,0.3
					C405.3,500,404.8,500.2,404.3,500.2z"/>
				<path class="st85" d="M445.2,507.3c-13.5-2.3-20.3-3.5-33.8-5.9c-0.5-0.1-0.7-0.5-0.6-0.9c0-0.1,0.1-0.2,0.1-0.3
					c0.2-0.4,0.7-0.7,1.2-0.6c13.6,2.3,20.3,3.5,33.8,5.8c0.5,0.1,0.7,0.5,0.6,1c0,0.1-0.1,0.2-0.1,0.3
					C446.2,507,445.6,507.3,445.2,507.3z"/>
				<linearGradient id="SVGID_17_" gradientUnits="userSpaceOnUse" x1="451.5247" y1="510.3283" x2="487.2148" y2="510.3283">
					<stop  offset="0" style="stop-color:#858E8D"/>
					<stop  offset="1" style="stop-color:#858E8D"/>
				</linearGradient>
				<path class="st74" d="M485.9,514.2c-13.5-2.3-20.2-3.4-33.7-5.8c-0.5-0.1-0.7-0.5-0.6-1c0-0.1,0.1-0.2,0.1-0.3
					c0.2-0.5,0.7-0.8,1.2-0.7c13.5,2.3,20.3,3.4,33.7,5.6c0.5,0.1,0.7,0.5,0.6,1c0,0.1-0.1,0.2-0.1,0.4
					C486.9,514,486.4,514.3,485.9,514.2z"/>
				<path class="st85" d="M397.5,505.6c-11.8-2.2-17.7-3.3-29.4-5.6c-0.4-0.1-0.7-0.5-0.6-0.8c0.1-0.2,0.1-0.2,0.2-0.4
					c0.1-0.4,0.6-0.6,1.1-0.5c11.8,2.3,17.7,3.4,29.4,5.5c0.4,0.1,0.7,0.5,0.5,0.9c-0.1,0.2-0.1,0.3-0.2,0.4
					C398.5,505.4,398,505.7,397.5,505.6z"/>
				<linearGradient id="SVGID_18_" gradientUnits="userSpaceOnUse" x1="403.1626" y1="508.4995" x2="434.4559" y2="508.4995">
					<stop  offset="0" style="stop-color:#858E8D"/>
					<stop  offset="1" style="stop-color:#858E8D"/>
				</linearGradient>
				<path class="st75" d="M433.2,512.1c-11.8-2.1-17.6-3.2-29.4-5.4c-0.4-0.1-0.7-0.5-0.5-0.9c0.1-0.2,0.1-0.3,0.2-0.4
					c0.1-0.4,0.6-0.6,1.1-0.6c11.8,2.2,17.7,3.2,29.4,5.3c0.4,0.1,0.7,0.5,0.5,0.9c-0.1,0.2-0.1,0.3-0.2,0.4
					C434.1,511.9,433.6,512.2,433.2,512.1z"/>
				<path class="st85" d="M468.7,518.6c-11.7-2.1-17.6-3.2-29.4-5.3c-0.4-0.1-0.7-0.5-0.5-0.9c0.1-0.2,0.1-0.3,0.2-0.4
					c0.1-0.4,0.6-0.7,1.1-0.6c11.8,2.1,17.6,3.1,29.4,5.2c0.4,0.1,0.7,0.5,0.5,0.9c-0.1,0.2-0.1,0.3-0.2,0.5
					C469.7,518.4,469.2,518.6,468.7,518.6z"/>
				<path class="st85" d="M504.6,525.1c-11.7-2.1-17.6-3.2-29.3-5.3c-0.4-0.1-0.7-0.5-0.5-0.9c0.1-0.2,0.1-0.3,0.2-0.5
					c0.2-0.4,0.6-0.7,1.1-0.6c11.7,2.1,17.6,3.1,29.3,5.2c0.4,0.1,0.7,0.5,0.5,1c-0.1,0.2-0.1,0.3-0.2,0.5
					C505.5,524.9,505.1,525.2,504.6,525.1z"/>
				<path class="st85" d="M540.3,531.7c-11.6-2.2-17.5-3.3-29.1-5.5c-0.4-0.1-0.7-0.5-0.5-1c0.1-0.2,0.1-0.3,0.2-0.5
					c0.2-0.5,0.6-0.8,1.1-0.7c11.7,2.1,17.5,3.2,29.1,5.4c0.4,0.1,0.7,0.5,0.5,1c-0.1,0.2-0.1,0.3-0.2,0.5
					C541.3,531.5,540.8,531.8,540.3,531.7z"/>
				<path class="st85" d="M580.4,539.6c-11.5-2.3-17.3-3.5-28.9-5.7c-0.4-0.1-0.7-0.5-0.5-1c0.1-0.2,0.1-0.3,0.2-0.5
					c0.2-0.5,0.6-0.8,1.1-0.7c11.6,2.2,17.4,3.3,28.9,5.6c0.4,0.1,0.7,0.6,0.5,1.1c-0.1,0.2-0.1,0.3-0.2,0.5
					C581.3,539.4,580.8,539.7,580.4,539.6z"/>
				<path class="st85" d="M399.7,512.6c-13.5-2.6-20.3-4-33.8-6.7c-0.5-0.1-0.7-0.5-0.6-0.9c0-0.1,0.1-0.2,0.1-0.3
					c0.2-0.4,0.7-0.7,1.1-0.6c13.5,2.7,20.3,4,33.8,6.6c0.5,0.1,0.7,0.5,0.6,0.9c0,0.1-0.1,0.2-0.1,0.3
					C400.7,512.4,400.1,512.7,399.7,512.6z"/>
				<path class="st85" d="M440.4,520.4c-13.5-2.6-20.3-3.9-33.8-6.5c-0.5-0.1-0.7-0.5-0.6-0.9c0-0.1,0.1-0.2,0.1-0.3
					c0.2-0.4,0.7-0.7,1.2-0.6c13.5,2.6,20.3,3.9,33.8,6.4c0.5,0.1,0.7,0.5,0.6,1c0,0.1-0.1,0.2-0.1,0.3
					C441.4,520.2,440.9,520.5,440.4,520.4z"/>
				<path class="st85" d="M481.1,528.2c-13.5-2.6-20.2-3.9-33.7-6.4c-0.5-0.1-0.7-0.5-0.6-1c0-0.1,0.1-0.2,0.1-0.3
					c0.2-0.4,0.7-0.7,1.2-0.6c13.5,2.5,20.3,3.8,33.7,6.3c0.5,0.1,0.7,0.5,0.6,1c0,0.1-0.1,0.2-0.1,0.4
					C482.1,528,481.6,528.3,481.1,528.2z"/>
				<linearGradient id="SVGID_19_" gradientUnits="userSpaceOnUse" x1="490.5739" y1="532.3611" x2="526.0897" y2="532.3611">
					<stop  offset="0" style="stop-color:#858E8D"/>
					<stop  offset="1" style="stop-color:#858E8D"/>
				</linearGradient>
				<path class="st77" d="M524.8,536.7c-13.4-2.6-20.1-3.9-33.6-6.5c-0.5-0.1-0.7-0.6-0.6-1c0-0.1,0.1-0.2,0.1-0.4
					c0.2-0.5,0.7-0.8,1.2-0.7c13.5,2.5,20.2,3.8,33.6,6.4c0.5,0.1,0.7,0.6,0.6,1.1c0,0.2-0.1,0.2-0.1,0.4
					C525.8,536.4,525.2,536.8,524.8,536.7z"/>
				<path class="st85" d="M392.9,517.9c-11.7-2.4-17.6-3.6-29.3-6c-0.4-0.1-0.7-0.5-0.5-0.8c0.1-0.2,0.1-0.2,0.2-0.4
					c0.1-0.4,0.6-0.6,1.1-0.5c11.7,2.4,17.6,3.6,29.3,6c0.4,0.1,0.7,0.5,0.5,0.9c-0.1,0.2-0.1,0.2-0.2,0.4
					C393.8,517.7,393.4,518,392.9,517.9z"/>
				<path class="st85" d="M428.5,525c-11.7-2.3-17.6-3.5-29.4-5.9c-0.4-0.1-0.7-0.5-0.5-0.9c0.1-0.2,0.1-0.2,0.2-0.4
					c0.1-0.4,0.6-0.6,1.1-0.5c11.7,2.3,17.6,3.5,29.4,5.8c0.4,0.1,0.7,0.5,0.5,0.9c-0.1,0.2-0.1,0.3-0.2,0.4
					C429.4,524.9,428.9,525.1,428.5,525z"/>
				<path class="st85" d="M464,532.1c-11.7-2.3-17.6-3.5-29.3-5.9c-0.4-0.1-0.7-0.5-0.5-0.9c0.1-0.2,0.1-0.3,0.2-0.4
					c0.1-0.4,0.6-0.7,1.1-0.6c11.7,2.3,17.6,3.5,29.4,5.8c0.4,0.1,0.7,0.5,0.5,0.9c-0.1,0.2-0.1,0.3-0.2,0.5
					C464.9,531.9,464.4,532.2,464,532.1z"/>
				<path class="st85" d="M501.5,539.7c-11.7-2.4-17.6-3.6-29.3-5.9c-0.4-0.1-0.7-0.5-0.5-0.9c0.1-0.2,0.1-0.3,0.2-0.5
					c0.1-0.4,0.6-0.7,1.1-0.6c11.7,2.3,17.6,3.5,29.3,5.8c0.4,0.1,0.7,0.5,0.5,1c-0.1,0.2-0.1,0.3-0.2,0.5
					C502.4,539.5,502,539.8,501.5,539.7z"/>
				<path class="st85" d="M542.4,397.2c-11.7-0.1-17.5-0.1-29.3-0.2c-0.4,0-0.7-0.3-0.6-0.7c0.1-0.2,0.1-0.2,0.2-0.4
					c0.1-0.4,0.6-0.7,1.1-0.7c11.8,0.1,17.6,0.1,29.3,0.2c0.4,0,0.7,0.3,0.5,0.7c-0.1,0.2-0.1,0.2-0.1,0.4
					C543.3,396.9,542.8,397.2,542.4,397.2z"/>
				<path class="st85" d="M577.5,397.6c-11.6-0.2-17.4-0.2-29-0.3c-0.4,0-0.7-0.3-0.5-0.7c0.1-0.2,0.1-0.2,0.1-0.4
					c0.1-0.4,0.6-0.7,1.1-0.7c11.7,0.1,17.5,0.1,29,0.3c0.4,0,0.7,0.3,0.5,0.7c-0.1,0.2-0.1,0.3-0.1,0.4
					C578.5,397.3,578,397.6,577.5,397.6z"/>
				<path class="st85" d="M612.5,398.4c-11.5-0.4-17.3-0.5-28.8-0.7c-0.4,0-0.7-0.3-0.5-0.7c0.1-0.2,0.1-0.3,0.1-0.4
					c0.1-0.4,0.6-0.7,1-0.7c11.6,0.2,17.3,0.3,28.8,0.7c0.4,0,0.7,0.4,0.5,0.8c-0.1,0.2-0.1,0.3-0.1,0.4
					C613.4,398.1,612.9,398.4,612.5,398.4z"/>
				<path class="st85" d="M647.2,400.1c-11.5-0.7-17.2-1-28.7-1.5c-0.4,0-0.7-0.4-0.5-0.8c0.1-0.2,0.1-0.3,0.1-0.4
					c0.1-0.4,0.6-0.7,1-0.7c11.5,0.4,17.2,0.7,28.7,1.4c0.4,0,0.7,0.4,0.5,0.8c-0.1,0.2-0.1,0.3-0.1,0.4
					C648.1,399.8,647.7,400.1,647.2,400.1z"/>
				<path class="st86" d="M423.8,380.3c-10.2-0.7-15.4-1.1-25.8-2.1c-0.4,0-0.7-0.3-0.6-0.7c0.1-0.2,0.1-0.3,0.2-0.5
					c0.1-0.3,0.6-0.6,1-0.5c10.4,1,15.5,1.4,25.8,2.1c0.4,0,0.7,0.3,0.6,0.6c-0.1,0.2-0.1,0.3-0.2,0.5
					C424.6,380.1,424.2,380.4,423.8,380.3z"/>
				<path class="st85" d="M455.8,382c-10.1-0.4-15.2-0.6-25.4-1.2c-0.4,0-0.7-0.3-0.5-0.6c0.1-0.2,0.1-0.3,0.2-0.5
					c0.1-0.3,0.6-0.6,1-0.5c10.2,0.6,15.3,0.8,25.4,1.2c0.4,0,0.7,0.3,0.5,0.6c-0.1,0.2-0.1,0.3-0.2,0.5
					C456.6,381.7,456.2,382,455.8,382z"/>
				<path class="st85" d="M402.2,437.3c-10.1-1-15.1-1.6-25.3-2.8c-0.4-0.1-0.7-0.4-0.5-0.7c0.1-0.2,0.1-0.3,0.2-0.5
					c0.1-0.3,0.6-0.6,1-0.5c10.1,1.2,15.2,1.8,25.3,2.8c0.4,0,0.7,0.4,0.5,0.7c-0.1,0.2-0.1,0.3-0.2,0.5
					C403,437.1,402.6,437.4,402.2,437.3z"/>
				<path class="st85" d="M433.7,440.3c-10-0.8-15-1.3-25.1-2.3c-0.4,0-0.7-0.4-0.5-0.7c0.1-0.2,0.1-0.3,0.2-0.5
					c0.1-0.4,0.6-0.6,1-0.6c10.1,1,15.1,1.4,25.1,2.2c0.4,0,0.6,0.4,0.5,0.7c-0.1,0.2-0.1,0.3-0.2,0.5
					C434.6,440,434.2,440.3,433.7,440.3z"/>
			</g>
		</g>
		<g>
			<linearGradient id="SVGID_20_" gradientUnits="userSpaceOnUse" x1="689.5827" y1="382.0327" x2="792.5573" y2="382.0327">
				<stop  offset="0" style="stop-color:#F58B21"/>
				<stop  offset="1" style="stop-color:#AE6016"/>
			</linearGradient>
			<circle class="st78" cx="741.1" cy="382" r="51.5"/>
			<linearGradient id="SVGID_21_" gradientUnits="userSpaceOnUse" x1="686.3936" y1="378.7419" x2="789.3682" y2="378.7419">
				<stop  offset="0" style="stop-color:#F58B21"/>
				<stop  offset="1" style="stop-color:#F5B419"/>
			</linearGradient>
			<circle class="st79" cx="737.9" cy="378.7" r="51.5"/>
			<polygon class="st101" points="713.5,372.1 729.9,402.9 773.6,376.9 765.3,365.3 735.4,383.4 726.2,363.4 			"/>
		</g>
		<g>
			<path class="st80" d="M553.3,692.7c2.9-4.9,8-8.3,13.4-7.5c5.2,0.8,9.1,5.1,11.9,9.5c2.8,4.4,5,9.3,8.8,13
				c0.7,0.7,1.5,1.3,2.5,1.4c2.2,0.1,3.2-2.6,3.6-4.7c3.4-19.6,3.1-39.8-0.9-59.2c-2-9.7,0-27.4,6.5-36.5c5.8-8.1,11.4-5.5,17.6,0.1
				c7.3,6.6,9.9,17.1,9.9,27c0,9.9-2.3,19.6-3,29.5c-0.4-6.8,1.9-14.1,7.3-18.4c5.3-4.3,13.9-4.7,18.8,0c3.9,3.7,4.9,9.7,3.7,14.9
				c-0.2,0.8-0.4,1.7-0.2,2.5c0.5,1.4,2.3,1.8,3.7,1.5c1.4-0.4,2.5-1.4,3.7-2.2c4.8-3.2,11.3-3.6,16.4-0.9s8.6,8.3,8.6,14
				c3.8-3.8,8.1-7.9,13.5-8.1c4.2-0.1,8.2,2.3,10.9,5.7s4,7.5,4.9,11.6c2.7,11.9,2.2,24.4,0.9,36.6c-1.8,17.3-5.6,35.4-17.6,47.9
				c-2.6,2.7-5.8,5.5-5.9,9.3c-0.2,4.7,4.3,8.2,5.9,12.7c2.3,6.7-2.9,14.1-9.5,16.8c-6.6,2.7-14,2-21.1,1.4
				c-17.1-1.4-34.2-1.9-51.4-1.5c-5.2,0.1-10.5,0.3-15.3-1.6s-8.8-6.8-8.1-11.9c0.9-6.8,9.5-11.2,9.1-18.1c-0.2-3.9-3.3-7-6.2-9.7
				c-15-14-29.2-29.2-39.1-47.1c-3.7-6.7-6.9-14.3-5.8-21.9C551.5,696.7,552.2,694.6,553.3,692.7z"/>
			<g>
				<g>
					<g>
						<path class="st52" d="M609.2,581.3c-2.5,0-4.5-2-4.5-4.4l-0.1-32.9c0-2.5,2-4.5,4.4-4.5c2.5,0,4.5,2,4.5,4.4l0.1,32.9
							C613.6,579.3,611.7,581.3,609.2,581.3z"/>
					</g>
					<g>
						<path class="st52" d="M582,592.7c-1.1,0-2.3-0.4-3.2-1.3l-23.4-23.2c-1.7-1.7-1.8-4.5,0-6.3c1.7-1.7,4.5-1.8,6.3,0l23.4,23.2
							c1.7,1.7,1.8,4.5,0,6.3C584.2,592.3,583.1,592.7,582,592.7z"/>
					</g>
					<g>
						<path class="st52" d="M570.8,620.1l-33,0.1c-2.5,0-4.5-2-4.5-4.4c0-2.5,2-4.5,4.4-4.5l33-0.1c2.5,0,4.5,2,4.5,4.4
							C575.2,618,573.2,620,570.8,620.1z"/>
					</g>
					<g>
						<path class="st52" d="M680.9,619.6l-32.9,0.1c-2.5,0-4.5-2-4.5-4.4s2-4.5,4.4-4.5l32.9-0.1c2.5,0,4.5,2,4.5,4.4
							C685.3,617.6,683.3,619.6,680.9,619.6z"/>
					</g>
					<g>
						<path class="st52" d="M636.5,592.5c-1.1,0-2.3-0.4-3.2-1.3c-1.7-1.7-1.8-4.5,0-6.3l23.2-23.4c1.7-1.7,4.5-1.8,6.3,0
							c1.7,1.7,1.8,4.5,0,6.3l-23.2,23.4C638.8,592.1,637.7,592.5,636.5,592.5z"/>
					</g>
				</g>
				<g>
					<g>
						<path class="st52" d="M602.5,786c-1.4,0-2.8-0.7-3.6-1.9L548.4,714c-3.6-5-4.8-11.5-3-17.5l0.4-1.5
							c2.6-8.5,10.2-14.3,19.1-14.3c5.3,0,10.5,2.1,14.3,5.9l11.4,11.5l-0.6-79.4c0-5.2,2-10.1,5.6-13.9c3.7-3.7,8.6-5.8,13.8-5.8
							c10.7,0,19.5,8.7,19.5,19.4l0.1,24.2c2.3-1.3,5-2,7.9-2l5.3,0c9.3,0,16.8,7.5,16.9,16.7l0,1.1c2.3-1.3,5-2,7.9-2l5.3,0
							c7.3,0,13.6,4.7,15.9,11.3c2.6-1.6,5.6-2.5,8.8-2.5l5.3,0c9.3,0,16.8,7.5,16.9,16.7l0.1,24.7c0.1,17.3-5,48.7-14.7,62.8
							l-9.3,14.3c-1.2,1.9-3.6,2.5-5.6,1.6c-1.4-0.7-3-1-4.6-1l-75.9,0.3c-1.6,0-3.2,0.4-4.6,1.1C603.8,785.9,603.2,786,602.5,786z
							 M565.1,689.6c-4.9,0-9.2,3.2-10.6,7.9L554,699c-1,3.3-0.4,7,1.7,9.7l48.5,67.5c1.6-0.4,3.3-0.6,4.9-0.6l75.9-0.3
							c1.6,0,3.1,0.2,4.7,0.5l7.4-11.5c8.3-12.1,13.3-41.8,13.2-57.8l-0.1-24.7c0-4.3-3.6-7.8-7.9-7.8l-5.3,0
							c-4.4,0-7.9,3.6-7.9,7.9c0,2.5-2,4.5-4.4,4.5c-2.5,0-4.5-2-4.5-4.4l0-8.8c0-4.4-3.6-7.9-7.9-7.9l-5.3,0
							c-4.3,0-7.8,3.6-7.8,7.9c0,2.5-2,4.5-4.4,4.5c-2.5,0-4.5-2-4.5-4.4l-0.1-16c0-4.3-3.6-7.8-7.9-7.8l-5.3,0
							c-4.3,0-7.8,3.6-7.8,7.9c0,2.5-2,4.5-4.4,4.5c-2.5,0-4.5-2-4.5-4.4l-0.1-39c0-5.8-4.8-10.6-10.6-10.5c-2.8,0-5.5,1.1-7.5,3.1
							c-2,2-3.1,4.7-3.1,7.5l0.7,90.3c0,1.8-1.1,3.4-2.7,4.1c-1.7,0.7-3.6,0.3-4.9-1L573,692.9C570.9,690.8,568,689.6,565.1,689.6z"
							/>
					</g>
					<g>
						<path class="st52" d="M624.9,691.7c-2.5,0-4.5-2-4.5-4.4l-0.2-59.5c0-2.5,2-4.5,4.4-4.5s4.5,2,4.5,4.4l0.2,59.5
							C629.3,689.7,627.3,691.7,624.9,691.7z"/>
					</g>
					<g>
						<path class="st52" d="M654.8,691.6c-2.5,0-4.5-2-4.5-4.4l-0.1-25.7c0-2.5,2-4.5,4.4-4.5c2.5,0,4.5,2,4.5,4.4l0.1,25.7
							C659.2,689.6,657.2,691.6,654.8,691.6z"/>
					</g>
					<g>
						<path class="st52" d="M684.7,691.5c-2.5,0-4.5-2-4.5-4.4l0-10.2c0-2.5,2-4.5,4.4-4.5c2.5,0,4.5,2,4.5,4.4l0,10.2
							C689.1,689.5,687.1,691.5,684.7,691.5z"/>
					</g>
					<g>
						<path class="st52" d="M595.3,727.1c-2.5,0-4.5-2-4.5-4.4l-0.1-37.8c0-2.5,2-4.5,4.4-4.5c2.5,0,4.5,2,4.5,4.4l0.1,37.8
							C599.7,725.1,597.7,727.1,595.3,727.1z"/>
					</g>
					<g>
						<path class="st52" d="M685.1,814.7l-75.9,0.3c-10.9,0-19.7-8.8-19.8-19.7c0-5.3,2-10.2,5.7-14c1.6-1.6,3.4-2.9,5.4-3.8
							c2.5-1.3,5.5-2,8.5-2l75.9-0.3c2.9,0,5.8,0.6,8.4,1.8c6.9,3.2,11.3,10.2,11.4,17.8c0,5.2-2,10.2-5.7,13.9
							C695.3,812.6,690.3,814.7,685.1,814.7z M609.1,784.5c-1.6,0-3.2,0.4-4.6,1.1c-1.2,0.6-2.1,1.2-3,2.1c-2,2.1-3.2,4.8-3.1,7.7
							c0,6,4.9,10.8,10.8,10.8l75.9-0.3c2.9,0,5.6-1.2,7.7-3.2c2-2,3.1-4.8,3.1-7.6c0-4.2-2.4-8-6.2-9.7c-1.4-0.7-3-1-4.6-1
							L609.1,784.5z"/>
					</g>
				</g>
			</g>
		</g>
		<g>
			<path class="st102" d="M503.2,315.3l-15.9-0.5c-0.4,0-0.8,0.3-0.8,0.7l-0.2,7.8c0,0.4,0.3,0.8,0.7,0.8l6.2,0.2l-0.3,9.6
				c0,0-1.4,0.4-5.2,0.3c-4.5-0.1-10.8-2-10.4-15.9c0.4-13.9,7.1-15.5,13.3-15.3c5.4,0.2,7.6,1.2,9.1,1.7c0.5,0.2,0.9-0.3,0.9-0.7
				l2-7.4c0-0.2-0.1-0.4-0.3-0.6c-0.6-0.4-4.2-2.6-13.3-2.9c-10.6-0.3-21.6,3.8-22.3,25.5c-0.7,21.6,11.6,25.3,22.1,25.6
				c8.7,0.3,14.1-3.3,14.1-3.3c0.2-0.1,0.3-0.4,0.3-0.6l0.8-24.2C503.9,315.6,503.6,315.3,503.2,315.3z"/>
			<path class="st102" d="M585.5,298.6c0-0.4-0.3-0.8-0.7-0.8l-8.9-0.3c-0.4,0-0.7,0.3-0.8,0.7c0,0-0.5,17.3-0.5,17.3l-13.9-0.4
				l0.5-17.3c0-0.4-0.3-0.8-0.7-0.8l-8.9-0.3c-0.4,0-0.7,0.3-0.8,0.7l-1.5,46.7c0,0.4,0.3,0.8,0.7,0.8l8.9,0.3
				c0.4,0,0.7-0.3,0.8-0.7l0.6-20l13.9,0.4c0,0-0.7,20-0.7,20c0,0.4,0.3,0.8,0.7,0.8l8.9,0.3c0.4,0,0.7-0.3,0.8-0.7L585.5,298.6z"/>
			<g>
				<g>
					<path class="st102" d="M520.4,302.7c0.1-3.2-2.4-5.9-5.6-6c-3.2-0.1-5.8,2.4-5.9,5.6c-0.1,3.2,2.4,5.9,5.6,6
						C517.7,308.4,520.3,305.9,520.4,302.7z"/>
					<path class="st102" d="M518.8,333.4c0-1.2,0.7-21.6,0.7-21.6c0-0.4-0.3-0.8-0.7-0.8l-8.9-0.3c-0.4,0-0.8,0.4-0.8,0.8
						c0,0-0.8,25.9-1,30.9c0,0.9,0.5,1.2,1.3,1.2c0,0,3.8,0.1,8,0.3c0.9,0,1.1-0.4,1.1-1.2C518.6,341.1,518.8,334.6,518.8,333.4z"/>
				</g>
			</g>
			<path class="st102" d="M618.9,314.3l-8.9-0.3c-0.4,0-0.7,0.3-0.8,0.7l-0.7,22.9c0,0-2.3,1.6-5.5,1.5c-3.2-0.1-4-1.6-3.9-4.7
				c0.1-3.1,0.6-20,0.6-20c0-0.4-0.3-0.8-0.7-0.8l-9-0.3c-0.4,0-0.7,0.3-0.8,0.7c0,0-0.4,12.2-0.7,21.5c-0.3,9.3,4.8,11.7,11.9,12
				c5.8,0.2,10.7-2.9,10.7-2.9s0.2,1.7,0.3,1.9c0.1,0.2,0.4,0.4,0.6,0.4l5.7,0.2c0.4,0,0.7-0.3,0.8-0.7l1-31.4
				C619.7,314.6,619.4,314.3,618.9,314.3z"/>
			<path class="st102" d="M643.2,314c-5-0.2-8.5,2-8.5,2l0.5-15.8c0-0.4-0.3-0.8-0.7-0.8l-9-0.3c-0.4,0-0.7,0.3-0.8,0.7l-1.5,46.7
				c0,0.4,0.3,0.8,0.7,0.8c0,0,6.2,0.2,6.2,0.2c0.3,0,0.5-0.1,0.7-0.4c0.2-0.2,0.4-2.1,0.4-2.1s3.6,3.6,10.5,3.8
				c8.1,0.3,12.9-3.7,13.4-18.1C655.6,316.3,648.2,314.1,643.2,314z M638.9,340.2c-3.1-0.2-5.1-1.7-5.1-1.7l0.5-14.8
				c0,0,2.1-1.2,4.6-1.3c3.2-0.2,6.2,0.9,6,8.5C644.6,338.9,643.2,340.5,638.9,340.2z"/>
			<path class="st102" d="M545.2,311.9l-6.7-0.2c0,0,0.3-8.8,0.3-8.8c0-0.3-0.2-0.5-0.5-0.5l-9.1-0.3c-0.4,0-0.6,0.1-0.6,0.5
				l-0.3,9.1c0,0-4.6,1-4.9,1c-0.3,0.1-0.5,0.4-0.6,0.7l-0.2,5.7c0,0.4,0.3,0.8,0.7,0.8l4.7,0.1c0,0-0.2,6-0.4,13.8
				c-0.3,10.3,6.8,11.5,11.7,11.7c2.2,0.1,4.9-0.6,5.3-0.7c0.3-0.1,0.4-0.4,0.4-0.7l0.2-6.3c0-0.4-0.3-0.8-0.7-0.8
				c-0.4,0-1.4,0.1-2.4,0.1c-3.3-0.1-4.4-1.7-4.3-3.6c0.1-2,0.4-13.1,0.4-13.1l6.7,0.2c0.4,0,0.7-0.3,0.8-0.7l0.2-7.2
				C545.9,312.2,545.6,311.9,545.2,311.9z"/>
		</g>
		<path class="st103" d="M419.4,265.1c-22.6-1.2-41.8,16.3-43,39c-0.9,18.2,10,34.2,25.9,40.5c2,0.5,2.8-0.7,2.9-1.8
			c0-1,0.2-4.2,0.3-7.6c-11.5,1.9-13.5-5.6-13.5-5.6c-1.6-4.9-4.2-6.2-4.2-6.2c-3.6-2.7,0.4-2.5,0.4-2.5c4.1,0.5,6.1,4.5,6.1,4.5
			c3.3,6.5,9.3,5,11.7,4c0.5-2.6,1.7-4.4,2.9-5.4c-9-1.4-18.4-5.5-17.5-21.3c0.2-4.5,2-8.1,4.8-10.8c-0.4-1-1.6-5.3,1-10.9
			c0,0,3.5-0.9,11,4.8c3.4-0.7,6.8-1,10.3-0.8c3.4,0.2,6.9,0.8,10.1,1.9c8-4.9,11.4-3.6,11.4-3.6c1.9,5.8,0.3,9.9-0.2,10.9
			c2.5,3,3.9,6.8,3.6,11.2c-0.8,15.8-10.5,18.8-19.7,19.3c1.4,1.4,2.6,3.9,2.4,7.8c-0.3,5.5-0.6,9.9-0.7,11.3
			c-0.1,1.1,0.6,2.4,2.7,2.1c16.5-4.6,29-19.4,29.9-37.6C459.2,285.6,441.9,266.2,419.4,265.1z"/>
	</g>
</g>
<g id="Layer_5">
</g>
<g id="Layer_6">
</g>
<g id="Layer_7">
</g>
<g id="Layer_8">
</g>
</svg>
