<?xml version="1.0" encoding="utf-8"?>
<!-- Generator: Adobe Illustrator 25.0.1, SVG Export Plug-In . SVG Version: 6.00 Build 0)  -->
<svg version="1.1" xmlns="http://www.w3.org/2000/svg" xmlns:xlink="http://www.w3.org/1999/xlink" x="0px" y="0px"
	 viewBox="0 0 1080 1080" style="enable-background:new 0 0 1080 1080;" xml:space="preserve">
<style type="text/css">
	.st0{opacity:0.35;}
	.st1{opacity:0;fill:#231F20;}
	.st2{opacity:1.960784e-02;fill:#231F20;}
	.st3{opacity:3.921569e-02;fill:#231F20;}
	.st4{opacity:5.882353e-02;fill:#231F20;}
	.st5{opacity:7.843138e-02;fill:#231F20;}
	.st6{opacity:9.803922e-02;fill:#231F20;}
	.st7{opacity:0.1176;fill:#231F20;}
	.st8{opacity:0.1373;fill:#231F20;}
	.st9{opacity:0.1569;fill:#231F20;}
	.st10{opacity:0.1765;fill:#231F20;}
	.st11{opacity:0.1961;fill:#231F20;}
	.st12{opacity:0.2157;fill:#231F20;}
	.st13{opacity:0.2353;fill:#231F20;}
	.st14{opacity:0.2549;fill:#231F20;}
	.st15{opacity:0.2745;fill:#231F20;}
	.st16{opacity:0.2941;fill:#231F20;}
	.st17{opacity:0.3137;fill:#231F20;}
	.st18{opacity:0.3333;fill:#231F20;}
	.st19{opacity:0.3529;fill:#231F20;}
	.st20{opacity:0.3725;fill:#231F20;}
	.st21{opacity:0.3922;fill:#231F20;}
	.st22{opacity:0.4118;fill:#231F20;}
	.st23{opacity:0.4314;fill:#231F20;}
	.st24{opacity:0.451;fill:#231F20;}
	.st25{opacity:0.4706;fill:#231F20;}
	.st26{opacity:0.4902;fill:#231F20;}
	.st27{opacity:0.5098;fill:#231F20;}
	.st28{opacity:0.5294;fill:#231F20;}
	.st29{opacity:0.549;fill:#231F20;}
	.st30{opacity:0.5686;fill:#231F20;}
	.st31{opacity:0.5882;fill:#231F20;}
	.st32{opacity:0.6078;fill:#231F20;}
	.st33{opacity:0.6275;fill:#231F20;}
	.st34{opacity:0.6471;fill:#231F20;}
	.st35{opacity:0.6667;fill:#231F20;}
	.st36{opacity:0.6863;fill:#231F20;}
	.st37{opacity:0.7059;fill:#231F20;}
	.st38{opacity:0.7255;fill:#231F20;}
	.st39{opacity:0.7451;fill:#231F20;}
	.st40{opacity:0.7647;fill:#231F20;}
	.st41{opacity:0.7843;fill:#231F20;}
	.st42{opacity:0.8039;fill:#231F20;}
	.st43{opacity:0.8235;fill:#231F20;}
	.st44{opacity:0.8431;fill:#231F20;}
	.st45{opacity:0.8627;fill:#231F20;}
	.st46{opacity:0.8824;fill:#231F20;}
	.st47{opacity:0.902;fill:#231F20;}
	.st48{opacity:0.9216;fill:#231F20;}
	.st49{opacity:0.9412;fill:#231F20;}
	.st50{opacity:0.9608;fill:#231F20;}
	.st51{opacity:0.9804;fill:#231F20;}
	.st52{fill:#231F20;}
	.st53{fill:url(#SVGID_1_);}
	.st54{fill:url(#SVGID_2_);}
	.st55{fill:url(#SVGID_3_);}
	.st56{opacity:0.54;fill:#FFFFFF;}
	.st57{fill:#D3D3D1;}
	.st58{fill:#FF9700;}
	.st59{fill:#FF9F43;}
	.st60{fill:url(#SVGID_4_);}
	.st61{fill:url(#SVGID_5_);}
	.st62{fill:url(#SVGID_6_);}
	.st63{opacity:0.46;}
	.st64{fill:url(#SVGID_7_);}
	.st65{fill:url(#SVGID_8_);}
	.st66{fill:url(#SVGID_9_);}
	.st67{fill:url(#SVGID_10_);}
	.st68{fill:url(#SVGID_11_);}
	.st69{fill:url(#SVGID_12_);}
	.st70{fill:url(#SVGID_13_);}
	.st71{fill:url(#SVGID_14_);}
	.st72{fill:url(#SVGID_15_);}
	.st73{fill:url(#SVGID_16_);}
	.st74{fill:url(#SVGID_17_);}
	.st75{fill:url(#SVGID_18_);}
	.st76{fill:#6B757F;}
	.st77{fill:url(#SVGID_19_);}
	.st78{fill:url(#SVGID_20_);}
	.st79{fill:url(#SVGID_21_);}
	.st80{fill:#FFFFFF;}
	.st81{fill:url(#SVGID_22_);}
	.st82{fill:url(#SVGID_23_);}
	.st83{fill:url(#SVGID_24_);}
	.st84{fill:url(#SVGID_25_);}
	.st85{fill:#8C959D;}
	.st86{fill:#858E8D;}
	.st87{fill:url(#SVGID_26_);}
	.st88{fill:url(#SVGID_27_);}
	.st89{fill:url(#SVGID_28_);}
	.st90{fill:url(#SVGID_29_);}
	.st91{fill:url(#SVGID_30_);}
	.st92{fill:url(#SVGID_31_);}
	.st93{fill:url(#SVGID_32_);}
	.st94{fill:url(#SVGID_33_);}
	.st95{fill:url(#SVGID_34_);}
	.st96{fill:url(#SVGID_35_);}
	.st97{fill:url(#SVGID_36_);}
	.st98{fill:url(#SVGID_37_);}
	.st99{fill:url(#SVGID_38_);}
	.st100{fill:url(#SVGID_39_);}
	.st101{fill:#FEFEFF;}
	.st102{fill:#0F0D0E;}
	.st103{fill-rule:evenodd;clip-rule:evenodd;fill:#24292F;}
	.st104{fill:url(#SVGID_40_);}
	.st105{fill:url(#SVGID_41_);}
	.st106{fill:url(#SVGID_42_);}
	.st107{fill:url(#SVGID_43_);}
	.st108{fill:url(#SVGID_44_);}
	.st109{opacity:0.45;}
	.st110{fill:none;stroke:#231F20;stroke-width:4.619;stroke-miterlimit:10;}
	.st111{fill:none;stroke:#231F20;stroke-width:4.2487;stroke-miterlimit:10;}
	.st112{fill:none;stroke:#231F20;stroke-width:4.7724;stroke-miterlimit:10;}
	.st113{fill:none;stroke:#231F20;stroke-width:4.9798;stroke-miterlimit:10;}
	.st114{fill:none;stroke:#231F20;stroke-width:4.3657;stroke-miterlimit:10;}
	.st115{fill:url(#SVGID_45_);}
	.st116{fill:none;stroke:#485654;stroke-width:4.524;stroke-miterlimit:10;}
	.st117{fill:none;stroke:#485654;stroke-width:5.0504;stroke-miterlimit:10;}
	.st118{fill:none;stroke:#485654;stroke-width:4.0187;stroke-miterlimit:10;}
	.st119{opacity:0.72;fill:url(#SVGID_46_);}
	.st120{opacity:0.72;}
	.st121{opacity:0.72;fill:url(#SVGID_47_);}
	.st122{opacity:0.72;fill:url(#SVGID_48_);}
	.st123{opacity:0.72;fill:url(#SVGID_49_);}
	.st124{opacity:0.72;fill:url(#SVGID_50_);}
	.st125{fill:none;stroke:#747678;stroke-width:8.2175;stroke-miterlimit:10;}
	.st126{fill:none;stroke:#747678;stroke-width:8.2175;stroke-miterlimit:10;stroke-dasharray:1.991300e-02,21.8084,10.9092,0;}
	
		.st127{fill:none;stroke:#747678;stroke-width:8.2175;stroke-miterlimit:10;stroke-dasharray:21.8183,10.8992,1.991300e-02,21.8084,10.9092,0;}
	.st128{fill:url(#SVGID_51_);}
	.st129{fill:url(#SVGID_52_);}
	.st130{fill:url(#SVGID_53_);}
	.st131{fill:url(#SVGID_54_);}
	.st132{fill:url(#SVGID_55_);}
	.st133{fill:#C4C6C8;}
	.st134{fill:url(#SVGID_56_);}
	.st135{fill:url(#SVGID_57_);}
	.st136{fill:#24292F;}
	.st137{fill:#FCFCFE;}
	.st138{fill:url(#SVGID_58_);}
	.st139{fill:url(#SVGID_59_);}
	.st140{fill:url(#SVGID_60_);}
	.st141{fill:url(#SVGID_61_);}
	.st142{fill:url(#SVGID_62_);}
	.st143{fill:url(#SVGID_63_);}
	.st144{fill:url(#SVGID_64_);}
	.st145{fill:url(#SVGID_65_);}
	.st146{fill:url(#SVGID_66_);}
	.st147{fill:url(#SVGID_67_);}
	.st148{fill:url(#SVGID_68_);}
	.st149{fill:url(#SVGID_69_);}
	.st150{fill:url(#SVGID_70_);}
	.st151{fill:url(#SVGID_71_);}
	.st152{fill:url(#SVGID_72_);}
	.st153{fill:url(#SVGID_73_);}
	.st154{fill:url(#SVGID_74_);}
	.st155{fill:url(#SVGID_75_);}
	.st156{fill:url(#SVGID_76_);}
	.st157{fill:url(#SVGID_77_);}
	.st158{fill:url(#SVGID_78_);}
	.st159{fill:url(#SVGID_79_);}
	.st160{fill:url(#SVGID_80_);}
	.st161{fill:url(#SVGID_81_);}
	.st162{fill:url(#SVGID_82_);}
	.st163{fill:url(#SVGID_83_);}
	.st164{fill:url(#SVGID_84_);}
	.st165{fill:url(#SVGID_85_);}
	.st166{fill:url(#SVGID_86_);}
	.st167{fill:url(#SVGID_87_);}
	.st168{fill:url(#SVGID_88_);}
	.st169{fill:url(#SVGID_89_);}
	.st170{fill:url(#SVGID_90_);}
	.st171{fill:url(#SVGID_91_);}
	.st172{fill:url(#SVGID_92_);}
	.st173{fill:url(#SVGID_93_);}
</style>
<g id="Layer_1">
</g>
<g id="Step_2">
</g>
<g id="Step_3">
</g>
<g id="Step_4">
</g>
<g id="Layer_5">
</g>
<g id="Layer_6">
</g>
<g id="Layer_7">
</g>
<g id="Layer_8">
	<g>
		<g class="st0">
			
				<ellipse transform="matrix(4.302964e-02 -0.9991 0.9991 4.302964e-02 -367.0011 1234.3363)" class="st1" cx="460.8" cy="808.7" rx="53.9" ry="142.4"/>
			
				<ellipse transform="matrix(4.308572e-02 -0.9991 0.9991 4.308572e-02 -366.1281 1234.0834)" class="st2" cx="461.2" cy="808.2" rx="53.2" ry="140.7"/>
			
				<ellipse transform="matrix(4.314321e-02 -0.9991 0.9991 4.314321e-02 -365.2559 1233.8292)" class="st3" cx="461.5" cy="807.6" rx="52.5" ry="138.9"/>
			
				<ellipse transform="matrix(4.320217e-02 -0.9991 0.9991 4.320217e-02 -364.3843 1233.574)" class="st4" cx="461.8" cy="807" rx="51.8" ry="137.1"/>
			
				<ellipse transform="matrix(4.326264e-02 -0.9991 0.9991 4.326264e-02 -363.5134 1233.3176)" class="st5" cx="462.2" cy="806.5" rx="51.1" ry="135.3"/>
			
				<ellipse transform="matrix(4.332469e-02 -0.9991 0.9991 4.332469e-02 -362.6432 1233.0599)" class="st6" cx="462.5" cy="805.9" rx="50.4" ry="133.5"/>
			
				<ellipse transform="matrix(4.338839e-02 -0.9991 0.9991 4.338839e-02 -361.7737 1232.8009)" class="st7" cx="462.9" cy="805.3" rx="49.7" ry="131.8"/>
			
				<ellipse transform="matrix(4.345379e-02 -0.9991 0.9991 4.345379e-02 -360.905 1232.5406)" class="st8" cx="463.2" cy="804.7" rx="49" ry="130"/>
			
				<ellipse transform="matrix(4.352096e-02 -0.9991 0.9991 4.352096e-02 -360.0372 1232.2789)" class="st9" cx="463.5" cy="804.2" rx="48.3" ry="128.2"/>
			
				<ellipse transform="matrix(4.358999e-02 -0.999 0.999 4.358999e-02 -359.1701 1232.0159)" class="st10" cx="463.9" cy="803.6" rx="47.6" ry="126.4"/>
			
				<ellipse transform="matrix(4.366094e-02 -0.999 0.999 4.366094e-02 -358.304 1231.7512)" class="st11" cx="464.2" cy="803" rx="46.9" ry="124.7"/>
			
				<ellipse transform="matrix(4.373391e-02 -0.999 0.999 4.373391e-02 -357.4387 1231.485)" class="st12" cx="464.6" cy="802.5" rx="46.2" ry="122.9"/>
			
				<ellipse transform="matrix(4.380897e-02 -0.999 0.999 4.380897e-02 -356.5744 1231.217)" class="st13" cx="464.9" cy="801.9" rx="45.4" ry="121.1"/>
			
				<ellipse transform="matrix(4.388621e-02 -0.999 0.999 4.388621e-02 -355.7111 1230.9475)" class="st14" cx="465.2" cy="801.3" rx="44.7" ry="119.3"/>
			
				<ellipse transform="matrix(4.396575e-02 -0.999 0.999 4.396575e-02 -354.8488 1230.6761)" class="st15" cx="465.6" cy="800.7" rx="44" ry="117.5"/>
			
				<ellipse transform="matrix(4.404767e-02 -0.999 0.999 4.404767e-02 -353.9876 1230.4028)" class="st16" cx="465.9" cy="800.2" rx="43.3" ry="115.8"/>
			
				<ellipse transform="matrix(4.413209e-02 -0.999 0.999 4.413209e-02 -353.1276 1230.1277)" class="st17" cx="466.3" cy="799.6" rx="42.6" ry="114"/>
			
				<ellipse transform="matrix(4.421913e-02 -0.999 0.999 4.421913e-02 -352.2687 1229.8503)" class="st18" cx="466.6" cy="799" rx="41.9" ry="112.2"/>
			
				<ellipse transform="matrix(4.430889e-02 -0.999 0.999 4.430889e-02 -351.411 1229.5709)" class="st19" cx="467" cy="798.5" rx="41.2" ry="110.4"/>
			
				<ellipse transform="matrix(4.440153e-02 -0.999 0.999 4.440153e-02 -350.5547 1229.2893)" class="st20" cx="467.3" cy="797.9" rx="40.5" ry="108.7"/>
			
				<ellipse transform="matrix(4.449718e-02 -0.999 0.999 4.449718e-02 -349.6997 1229.0052)" class="st21" cx="467.6" cy="797.3" rx="39.8" ry="106.9"/>
			
				<ellipse transform="matrix(4.459598e-02 -0.999 0.999 4.459598e-02 -348.8462 1228.7188)" class="st22" cx="468" cy="796.7" rx="39.1" ry="105.1"/>
			
				<ellipse transform="matrix(4.469810e-02 -0.999 0.999 4.469810e-02 -347.9941 1228.4296)" class="st23" cx="468.3" cy="796.2" rx="38.4" ry="103.3"/>
			
				<ellipse transform="matrix(4.480370e-02 -0.999 0.999 4.480370e-02 -347.1436 1228.1377)" class="st24" cx="468.7" cy="795.6" rx="37.7" ry="101.5"/>
			
				<ellipse transform="matrix(4.491298e-02 -0.999 0.999 4.491298e-02 -346.2948 1227.843)" class="st25" cx="469" cy="795" rx="37" ry="99.8"/>
			
				<ellipse transform="matrix(4.502611e-02 -0.999 0.999 4.502611e-02 -345.4478 1227.5453)" class="st26" cx="469.3" cy="794.5" rx="36.3" ry="98"/>
			
				<ellipse transform="matrix(4.514331e-02 -0.999 0.999 4.514331e-02 -344.6025 1227.2443)" class="st27" cx="469.7" cy="793.9" rx="35.5" ry="96.2"/>
			
				<ellipse transform="matrix(4.526481e-02 -0.999 0.999 4.526481e-02 -343.7592 1226.9399)" class="st28" cx="470" cy="793.3" rx="34.8" ry="94.4"/>
			
				<ellipse transform="matrix(4.539085e-02 -0.999 0.999 4.539085e-02 -342.918 1226.6321)" class="st29" cx="470.4" cy="792.7" rx="34.1" ry="92.7"/>
			
				<ellipse transform="matrix(4.552168e-02 -0.999 0.999 4.552168e-02 -342.0789 1226.3203)" class="st30" cx="470.7" cy="792.2" rx="33.4" ry="90.9"/>
			
				<ellipse transform="matrix(4.565758e-02 -0.999 0.999 4.565758e-02 -341.2421 1226.0048)" class="st31" cx="471" cy="791.6" rx="32.7" ry="89.1"/>
			
				<ellipse transform="matrix(4.579886e-02 -0.999 0.999 4.579886e-02 -340.4077 1225.6848)" class="st32" cx="471.4" cy="791" rx="32" ry="87.3"/>
			
				<ellipse transform="matrix(4.594583e-02 -0.9989 0.9989 4.594583e-02 -339.5759 1225.3605)" class="st33" cx="471.7" cy="790.5" rx="31.3" ry="85.5"/>
			
				<ellipse transform="matrix(4.609887e-02 -0.9989 0.9989 4.609887e-02 -338.7468 1225.0314)" class="st34" cx="472.1" cy="789.9" rx="30.6" ry="83.8"/>
			
				<ellipse transform="matrix(4.625833e-02 -0.9989 0.9989 4.625833e-02 -337.9206 1224.6971)" class="st35" cx="472.4" cy="789.3" rx="29.9" ry="82"/>
			
				<ellipse transform="matrix(4.642465e-02 -0.9989 0.9989 4.642465e-02 -337.0975 1224.3575)" class="st36" cx="472.7" cy="788.7" rx="29.2" ry="80.2"/>
			
				<ellipse transform="matrix(4.659827e-02 -0.9989 0.9989 4.659827e-02 -336.2777 1224.0122)" class="st37" cx="473.1" cy="788.2" rx="28.5" ry="78.4"/>
			
				<ellipse transform="matrix(4.677968e-02 -0.9989 0.9989 4.677968e-02 -335.4614 1223.6608)" class="st38" cx="473.4" cy="787.6" rx="27.8" ry="76.6"/>
			
				<ellipse transform="matrix(4.696943e-02 -0.9989 0.9989 4.696943e-02 -334.6489 1223.3027)" class="st39" cx="473.8" cy="787" rx="27.1" ry="74.9"/>
			
				<ellipse transform="matrix(4.716810e-02 -0.9989 0.9989 4.716810e-02 -333.8403 1222.9377)" class="st40" cx="474.1" cy="786.5" rx="26.4" ry="73.1"/>
			
				<ellipse transform="matrix(4.737633e-02 -0.9989 0.9989 4.737633e-02 -333.0361 1222.5652)" class="st41" cx="474.4" cy="785.9" rx="25.6" ry="71.3"/>
			
				<ellipse transform="matrix(4.759484e-02 -0.9989 0.9989 4.759484e-02 -332.2364 1222.1844)" class="st42" cx="474.8" cy="785.3" rx="24.9" ry="69.5"/>
			
				<ellipse transform="matrix(4.782440e-02 -0.9989 0.9989 4.782440e-02 -331.4417 1221.7952)" class="st43" cx="475.1" cy="784.7" rx="24.2" ry="67.8"/>
			
				<ellipse transform="matrix(4.806589e-02 -0.9988 0.9988 4.806589e-02 -330.6524 1221.3964)" class="st44" cx="475.5" cy="784.2" rx="23.5" ry="66"/>
			
				<ellipse transform="matrix(4.832024e-02 -0.9988 0.9988 4.832024e-02 -329.8688 1220.9874)" class="st45" cx="475.8" cy="783.6" rx="22.8" ry="64.2"/>
			
				<ellipse transform="matrix(4.858853e-02 -0.9988 0.9988 4.858853e-02 -329.0915 1220.5676)" class="st46" cx="476.1" cy="783" rx="22.1" ry="62.4"/>
			
				<ellipse transform="matrix(4.887194e-02 -0.9988 0.9988 4.887194e-02 -328.321 1220.1357)" class="st47" cx="476.5" cy="782.5" rx="21.4" ry="60.6"/>
			
				<ellipse transform="matrix(4.917177e-02 -0.9988 0.9988 4.917177e-02 -327.5578 1219.691)" class="st48" cx="476.8" cy="781.9" rx="20.7" ry="58.9"/>
			
				<ellipse transform="matrix(4.948951e-02 -0.9988 0.9988 4.948951e-02 -326.8026 1219.2322)" class="st49" cx="477.2" cy="781.3" rx="20" ry="57.1"/>
			
				<ellipse transform="matrix(4.982682e-02 -0.9988 0.9988 4.982682e-02 -326.0561 1218.7578)" class="st50" cx="477.5" cy="780.7" rx="19.3" ry="55.3"/>
			
				<ellipse transform="matrix(5.018556e-02 -0.9987 0.9987 5.018556e-02 -325.3192 1218.2666)" class="st51" cx="477.9" cy="780.2" rx="18.6" ry="53.5"/>
			
				<ellipse transform="matrix(5.056785e-02 -0.9987 0.9987 5.056785e-02 -324.5927 1217.7568)" class="st52" cx="478.2" cy="779.6" rx="17.9" ry="51.8"/>
		</g>
		<g>
			<path class="st76" d="M519.7,744.7L451.4,718l-20.9-8.2l-2.3-0.9l-0.2-0.1c-2.3-1.5-3.6-4.3-3-7.2l3-14.4l94.1,27.4l-4.7,22.3
				C516.8,739.8,517.7,742.7,519.7,744.7z"/>
			<path class="st76" d="M550.4,757.2v0.2c0,7.7-4.6,17.5-11.3,21.4l-47.8,28.4c-4.1,2.5-9.3,2.5-13.4,0l-74.2-35.8
				c-4.8-2.9-4.8-8.9,0-11.8l39.1-26.5c5.3-3.1,8.5-8.9,8.5-15.1V718l68.3,26.6c1.6,1.6,3.7,2.6,6.2,2.6h14.5
				C545.9,747.2,550.4,751.7,550.4,757.2z"/>
			<line class="st76" x1="519.8" y1="744.7" x2="519.7" y2="744.7"/>
			<linearGradient id="SVGID_1_" gradientUnits="userSpaceOnUse" x1="476.3622" y1="703.0433" x2="469.2776" y2="723.285">
				<stop  offset="0" style="stop-color:#4D5864"/>
				<stop  offset="1" style="stop-color:#CFD3D7"/>
			</linearGradient>
			<path class="st53" d="M517.5,745.5l-68.3-26.6l-20.9-8.2l-2.3-0.9l-0.2-0.1c-2.3-1.5-3.6-4.3-3-7.2l3-14.4l94.1,27.4l-4.7,22.3
				C514.6,740.5,515.5,743.5,517.5,745.5z"/>
			<linearGradient id="SVGID_2_" gradientUnits="userSpaceOnUse" x1="495.931" y1="732.1962" x2="450.537" y2="794.6583">
				<stop  offset="0" style="stop-color:#4D5864"/>
				<stop  offset="1" style="stop-color:#CFD3D7"/>
			</linearGradient>
			<path class="st54" d="M548.2,758v0.2c0,7.7-4.1,14.9-10.7,18.9l-46.1,27.4c-4.1,2.5-9.3,2.5-13.4,0l-74.6-36.3
				c-4.8-2.9-4.8-9.8,0-12.7l37.3-21.6c5.3-3.1,8.5-8.9,8.5-15.1v-0.1l68.3,26.6c1.6,1.6,3.7,2.6,6.2,2.6h14.5
				C543.7,748,548.2,752.5,548.2,758z"/>
			<linearGradient id="SVGID_3_" gradientUnits="userSpaceOnUse" x1="517.4584" y1="745.4728" x2="517.5886" y2="745.4728">
				<stop  offset="0" style="stop-color:#4D5864"/>
				<stop  offset="1" style="stop-color:#CFD3D7"/>
			</linearGradient>
			<line class="st55" x1="517.6" y1="745.5" x2="517.5" y2="745.5"/>
			<path class="st80" d="M537.5,776.6l-46.1,27.4c-4.1,2.5-9.3,2.5-13.4,0l-74.6-36.3c-2.3-1.4-3.5-3.7-3.6-6.1
				c-0.1,2.5,1.1,5.1,3.6,6.6l74.6,36.3c4.1,2.5,9.3,2.5,13.4,0l46.1-27.4c6.7-4,10.7-11.1,10.7-18.9V758c0,0,0-0.1,0-0.1
				C548.1,765.6,544.1,772.7,537.5,776.6z"/>
		</g>
		<linearGradient id="SVGID_4_" gradientUnits="userSpaceOnUse" x1="735.7407" y1="479.6479" x2="459.4242" y2="624.9832">
			<stop  offset="0" style="stop-color:#747678"/>
			<stop  offset="1" style="stop-color:#485654"/>
		</linearGradient>
		<path class="st60" d="M427.8,415.1l299.7-4.8c14.3,0.2,28.4,23.2,24.6,37l-79.9,287.1c-3.8,13.7-18.2,21.7-31.8,17.6l-300.5-88.8
			c-11.2-3.3-26.3-20.5-22.3-31.4l83.8-198.5C405.4,422.2,416,414.9,427.8,415.1z"/>
		<linearGradient id="SVGID_5_" gradientUnits="userSpaceOnUse" x1="463.8463" y1="736.3479" x2="609.8287" y2="363.3811">
			<stop  offset="0" style="stop-color:#5D5E61"/>
			<stop  offset="0.7039" style="stop-color:#8C959D"/>
			<stop  offset="1" style="stop-color:#7D8589"/>
		</linearGradient>
		<path class="st61" d="M418.9,404l303.7,4.5c14.3,0.2,24.5,13.9,20.7,27.6l-79.9,287.1c-3.8,13.7-18.2,21.7-31.8,17.6l-300.5-88.8
			c-11.2-3.3-17.2-15.4-13.2-26.3l74.7-203.6C396.4,411.2,407.1,403.9,418.9,404z"/>
		<path class="st52" d="M733.3,423.5c-2.3-2.1-5.3-3.3-8.5-3.3l-303.9-4.5c-8,0-15.2,5-17.9,12.5l-70.7,187c-1.1,3-0.9,6.2,0.5,9.2
			c0.1,0.2,0.2,0.3,0.3,0.5c-1.1-1-2-2.1-2.6-3.4c-1.4-2.9-1.6-6.1-0.5-9.1l70.7-187.1c2.7-7.5,9.9-12.5,17.9-12.5l303.9,4.5
			c4.1,0,7.9,2,10.3,5.3C732.9,422.8,733.2,423.2,733.3,423.5z"/>
		<linearGradient id="SVGID_6_" gradientUnits="userSpaceOnUse" x1="331.4888" y1="563.2334" x2="735.2953" y2="563.2334">
			<stop  offset="0" style="stop-color:#E6E7E8"/>
			<stop  offset="1" style="stop-color:#FFFFFF"/>
		</linearGradient>
		<path class="st62" d="M734.8,433.9l-74.5,264.6c-2,7.2-8.7,12.3-16.2,12.3c-1.6,0-3.2-0.2-4.8-0.7l-302-82.8
			c-1.6-0.5-3.1-1.3-4.3-2.4c-0.1-0.1-0.2-0.3-0.3-0.5c-1.4-2.9-1.6-6.1-0.5-9.2l70.7-187c2.7-7.5,9.9-12.5,17.9-12.5l303.9,4.5
			c3.3,0,6.2,1.2,8.5,3.3C735.3,426.6,735.8,430.3,734.8,433.9z"/>
		<linearGradient id="SVGID_7_" gradientUnits="userSpaceOnUse" x1="468.0486" y1="737.4276" x2="611.4639" y2="371.0193">
			<stop  offset="0" style="stop-color:#5D5E61"/>
			<stop  offset="0.5084" style="stop-color:#FFFFFF"/>
			<stop  offset="1" style="stop-color:#7D8589"/>
		</linearGradient>
		<path class="st64" d="M742.2,421.8c1.2,3.9,1.4,8.1,0.2,12.4l-79.9,287.1c-3.8,13.7-18.2,21.7-31.8,17.6l-300.5-88.8
			c-6.2-1.8-10.8-6.5-13-12.1c1.8,6.5,6.8,12,13.7,14.1l300.5,88.8c13.7,4,28-3.9,31.8-17.6l79.9-287.1
			C744.6,431.2,744.1,426.1,742.2,421.8z"/>
		<g>
			<g>
				<path class="st85" d="M463.1,440.1c-14.4-0.7-21.6-1.1-36.1-2.3c-0.5,0-0.8-0.4-0.7-0.8c0-0.1,0.1-0.2,0.1-0.3
					c0.1-0.4,0.7-0.7,1.2-0.6c14.6,1.2,21.8,1.6,36.2,2.3c0.5,0,0.8,0.4,0.6,0.8c0,0.1-0.1,0.2-0.1,0.3
					C464.2,439.8,463.6,440.1,463.1,440.1z"/>
				<path class="st85" d="M506.1,441.5c-14.1-0.3-21.2-0.4-35.5-1c-0.5,0-0.8-0.4-0.6-0.8c0-0.1,0.1-0.2,0.1-0.3
					c0.2-0.4,0.7-0.7,1.2-0.7c14.3,0.6,21.4,0.8,35.5,1c0.5,0,0.8,0.3,0.6,0.7c0,0.1-0.1,0.2-0.1,0.3
					C507.1,441.1,506.6,441.5,506.1,441.5z"/>
				<path class="st86" d="M548.4,441.9c-13.9-0.1-20.9-0.1-35-0.3c-0.5,0-0.8-0.3-0.6-0.7c0-0.1,0.1-0.2,0.1-0.3
					c0.2-0.4,0.7-0.7,1.2-0.7c14.1,0.2,21.1,0.2,35,0.3c0.5,0,0.8,0.3,0.6,0.7c0,0.1-0.1,0.2-0.1,0.3
					C549.4,441.5,548.9,441.9,548.4,441.9z"/>
				<path class="st85" d="M590.2,442c-13.8-0.1-20.7-0.1-34.6-0.1c-0.5,0-0.8-0.3-0.6-0.8c0-0.1,0.1-0.2,0.1-0.3
					c0.2-0.4,0.7-0.7,1.2-0.7c13.9,0,20.8,0,34.6,0.1c0.5,0,0.8,0.3,0.6,0.8c0,0.1-0.1,0.2-0.1,0.3C591.2,441.7,590.7,442,590.2,442
					z"/>
				<path class="st86" d="M631.6,442.6c-13.7-0.3-20.5-0.4-34.3-0.5c-0.5,0-0.8-0.4-0.6-0.8c0-0.1,0.1-0.2,0.1-0.3
					c0.2-0.4,0.7-0.8,1.2-0.8c13.8,0.1,20.6,0.2,34.3,0.5c0.5,0,0.8,0.4,0.6,0.8c0,0.1-0.1,0.2-0.1,0.3
					C632.6,442.2,632.1,442.6,631.6,442.6z"/>
				<path class="st86" d="M672.7,444.2c-13.6-0.8-20.4-1-34.1-1.4c-0.5,0-0.8-0.4-0.6-0.8c0-0.1,0.1-0.2,0.1-0.3
					c0.2-0.4,0.7-0.8,1.1-0.8c13.7,0.4,20.5,0.6,34.1,1.4c0.5,0,0.8,0.4,0.6,0.8c0,0.1-0.1,0.2-0.1,0.3
					C673.7,443.9,673.2,444.2,672.7,444.2z"/>
				<path class="st85" d="M713.7,447.5c-13.6-1.5-20.4-2-33.9-2.9c-0.5,0-0.8-0.4-0.6-0.9c0-0.1,0.1-0.2,0.1-0.3
					c0.1-0.4,0.7-0.8,1.1-0.7c13.6,0.9,20.4,1.4,33.9,2.9c0.5,0.1,0.8,0.4,0.6,0.9c0,0.1-0.1,0.2-0.1,0.3
					C714.7,447.2,714.2,447.6,713.7,447.5z"/>
				<path class="st85" d="M456.1,445.8c-12.5-0.7-18.8-1.1-31.4-2.1c-0.5,0-0.8-0.4-0.6-0.8c0.1-0.2,0.1-0.2,0.1-0.4
					c0.1-0.4,0.6-0.6,1.1-0.6c12.7,1,18.9,1.4,31.4,2.1c0.5,0,0.7,0.4,0.6,0.7c-0.1,0.2-0.1,0.2-0.2,0.4
					C457.1,445.6,456.6,445.9,456.1,445.8z"/>
				<path class="st85" d="M493.7,447.3c-12.3-0.3-18.5-0.5-31-1.1c-0.5,0-0.7-0.3-0.6-0.7c0.1-0.2,0.1-0.2,0.2-0.4
					c0.1-0.4,0.6-0.7,1.1-0.6c12.5,0.6,18.7,0.8,31,1.1c0.5,0,0.7,0.3,0.6,0.7c-0.1,0.2-0.1,0.2-0.2,0.4
					C494.7,447,494.2,447.3,493.7,447.3z"/>
				<path class="st86" d="M530.8,447.9c-12.2-0.1-18.3-0.2-30.6-0.5c-0.5,0-0.7-0.3-0.6-0.7c0.1-0.2,0.1-0.2,0.2-0.4
					c0.1-0.4,0.6-0.7,1.1-0.7c12.3,0.3,18.4,0.3,30.6,0.5c0.5,0,0.7,0.3,0.6,0.7c-0.1,0.2-0.1,0.3-0.2,0.4
					C531.7,447.6,531.2,447.9,530.8,447.9z"/>
				<linearGradient id="SVGID_8_" gradientUnits="userSpaceOnUse" x1="405.9099" y1="461.2465" x2="444.0287" y2="461.2465">
					<stop  offset="0" style="stop-color:#858E8D"/>
					<stop  offset="1" style="stop-color:#858E8D"/>
				</linearGradient>
				<path class="st65" d="M442.7,463.6c-14.3-1-21.5-1.6-36.1-3c-0.5-0.1-0.8-0.4-0.7-0.8c0-0.1,0.1-0.2,0.1-0.3
					c0.2-0.4,0.7-0.7,1.2-0.6c14.5,1.4,21.7,2,36.1,3c0.5,0,0.8,0.4,0.6,0.8c0,0.1-0.1,0.2-0.1,0.3
					C443.7,463.4,443.2,463.7,442.7,463.6z"/>
				<path class="st85" d="M485.6,466c-14.1-0.6-21.3-0.9-35.6-1.8c-0.5,0-0.8-0.4-0.6-0.8c0-0.1,0.1-0.2,0.1-0.3
					c0.2-0.4,0.7-0.7,1.2-0.7c14.3,0.9,21.4,1.2,35.6,1.8c0.5,0,0.8,0.4,0.6,0.8c0,0.1-0.1,0.2-0.1,0.3
					C486.7,465.7,486.1,466,485.6,466z"/>
				<path class="st85" d="M528,467.4c-14-0.4-21-0.6-35.1-1.1c-0.5,0-0.8-0.4-0.6-0.8c0-0.1,0.1-0.2,0.1-0.3
					c0.2-0.4,0.7-0.8,1.2-0.7c14.1,0.5,21.1,0.7,35.1,1.1c0.5,0,0.8,0.4,0.6,0.8c0,0.1-0.1,0.2-0.1,0.3
					C529.1,467,528.5,467.4,528,467.4z"/>
				<path class="st85" d="M435.6,469.4c-12.5-1-18.7-1.5-31.3-2.8c-0.5-0.1-0.8-0.4-0.6-0.8c0.1-0.2,0.1-0.2,0.2-0.4
					c0.1-0.4,0.6-0.6,1.1-0.6c12.6,1.3,18.9,1.8,31.4,2.8c0.5,0,0.7,0.4,0.6,0.8c-0.1,0.2-0.1,0.2-0.2,0.4
					C436.6,469.2,436.1,469.5,435.6,469.4z"/>
				<path class="st85" d="M473.2,471.9c-12.3-0.7-18.5-1-31-1.9c-0.5,0-0.7-0.4-0.6-0.8c0.1-0.2,0.1-0.2,0.2-0.4
					c0.1-0.4,0.7-0.7,1.1-0.6c12.5,0.9,18.6,1.2,31,1.9c0.5,0,0.7,0.4,0.6,0.8c-0.1,0.2-0.1,0.3-0.2,0.4
					C474.1,471.6,473.6,471.9,473.2,471.9z"/>
				<linearGradient id="SVGID_9_" gradientUnits="userSpaceOnUse" x1="479.0352" y1="471.9159" x2="511.6291" y2="471.9159">
					<stop  offset="0" style="stop-color:#858E8D"/>
					<stop  offset="1" style="stop-color:#858E8D"/>
				</linearGradient>
				<path class="st66" d="M510.3,473.5c-12.2-0.5-18.3-0.7-30.7-1.3c-0.5,0-0.7-0.4-0.6-0.8c0.1-0.2,0.1-0.3,0.2-0.4
					c0.2-0.4,0.7-0.7,1.1-0.7c12.3,0.6,18.4,0.8,30.7,1.3c0.5,0,0.7,0.4,0.6,0.8c-0.1,0.2-0.1,0.3-0.2,0.4
					C511.3,473.2,510.8,473.6,510.3,473.5z"/>
				<path class="st85" d="M547.5,474.8c-12.1-0.4-18.2-0.6-30.4-1c-0.5,0-0.7-0.4-0.6-0.8c0.1-0.2,0.1-0.3,0.2-0.4
					c0.2-0.4,0.7-0.8,1.1-0.7c12.2,0.4,18.3,0.6,30.4,1c0.5,0,0.7,0.4,0.6,0.8c-0.1,0.2-0.1,0.3-0.2,0.5
					C548.5,474.5,548,474.8,547.5,474.8z"/>
				<linearGradient id="SVGID_10_" gradientUnits="userSpaceOnUse" x1="553.7211" y1="474.5265" x2="585.7413" y2="474.5265">
					<stop  offset="0" style="stop-color:#858E8D"/>
					<stop  offset="1" style="stop-color:#858E8D"/>
				</linearGradient>
				<path class="st67" d="M584.4,476.1c-12-0.4-18-0.6-30.1-1c-0.5,0-0.7-0.4-0.6-0.8c0.1-0.2,0.1-0.3,0.2-0.5
					c0.2-0.4,0.6-0.8,1.1-0.8c12.1,0.4,18.1,0.5,30.1,1c0.5,0,0.7,0.4,0.6,0.9c-0.1,0.2-0.1,0.3-0.2,0.5
					C585.4,475.7,584.9,476.1,584.4,476.1z"/>
				<linearGradient id="SVGID_11_" gradientUnits="userSpaceOnUse" x1="401.3761" y1="473.4248" x2="439.3485" y2="473.4248">
					<stop  offset="0" style="stop-color:#858E8D"/>
					<stop  offset="1" style="stop-color:#858E8D"/>
				</linearGradient>
				<path class="st68" d="M438,476c-14.3-1.1-21.5-1.8-35.9-3.4c-0.5-0.1-0.8-0.4-0.6-0.8c0-0.1,0.1-0.2,0.1-0.3
					c0.2-0.4,0.7-0.7,1.2-0.6c14.5,1.5,21.6,2.2,35.9,3.3c0.5,0,0.8,0.4,0.6,0.8c0,0.1-0.1,0.2-0.1,0.3C439,475.7,438.5,476,438,476
					z"/>
				<path class="st85" d="M480.8,478.9c-14.1-0.8-21.2-1.2-35.5-2.3c-0.5,0-0.8-0.4-0.6-0.8c0-0.1,0.1-0.2,0.1-0.3
					c0.2-0.4,0.7-0.7,1.2-0.7c14.3,1,21.4,1.5,35.5,2.2c0.5,0,0.8,0.4,0.6,0.8c0,0.1-0.1,0.2-0.1,0.3
					C481.9,478.5,481.3,478.9,480.8,478.9z"/>
				<linearGradient id="SVGID_12_" gradientUnits="userSpaceOnUse" x1="406.229" y1="506.1696" x2="443.7127" y2="506.1696">
					<stop  offset="0" style="stop-color:#858E8D"/>
					<stop  offset="1" style="stop-color:#858E8D"/>
				</linearGradient>
				<path class="st69" d="M442.3,509.2c-14.1-1.6-21.2-2.4-35.4-4.2c-0.5-0.1-0.8-0.5-0.6-0.9c0-0.1,0.1-0.2,0.1-0.3
					c0.2-0.4,0.7-0.7,1.2-0.6c14.2,1.8,21.3,2.6,35.5,4.1c0.5,0.1,0.8,0.5,0.6,0.9c0,0.1-0.1,0.2-0.1,0.3
					C443.4,508.9,442.8,509.3,442.3,509.2z"/>
				<path class="st85" d="M484.8,513.6c-14-1.4-21.1-2.1-35.2-3.6c-0.5-0.1-0.8-0.5-0.6-0.9c0-0.1,0.1-0.2,0.1-0.3
					c0.2-0.4,0.7-0.8,1.2-0.7c14.1,1.5,21.2,2.2,35.2,3.5c0.5,0,0.8,0.5,0.6,0.9c-0.1,0.1-0.1,0.2-0.1,0.4
					C485.8,513.3,485.3,513.6,484.8,513.6z"/>
				<path class="st85" d="M435.3,515.1c-12.3-1.5-18.4-2.3-30.8-4c-0.5-0.1-0.7-0.4-0.6-0.8c0.1-0.2,0.1-0.2,0.2-0.4
					c0.2-0.4,0.7-0.7,1.1-0.6c12.4,1.7,18.5,2.4,30.8,3.9c0.5,0.1,0.7,0.4,0.6,0.8c-0.1,0.2-0.1,0.3-0.2,0.4
					C436.2,514.9,435.7,515.2,435.3,515.1z"/>
				<linearGradient id="SVGID_13_" gradientUnits="userSpaceOnUse" x1="441.1188" y1="516.6929" x2="473.6841" y2="516.6929">
					<stop  offset="0" style="stop-color:#858E8D"/>
					<stop  offset="1" style="stop-color:#858E8D"/>
				</linearGradient>
				<path class="st70" d="M472.3,519.4c-12.2-1.3-18.3-2-30.6-3.5c-0.5-0.1-0.7-0.4-0.6-0.8c0.1-0.2,0.1-0.3,0.2-0.4
					c0.2-0.4,0.7-0.7,1.1-0.6c12.3,1.4,18.4,2.1,30.6,3.4c0.5,0,0.7,0.4,0.6,0.9c-0.1,0.2-0.1,0.3-0.2,0.5
					C473.3,519.1,472.8,519.5,472.3,519.4z"/>
				<path class="st85" d="M509.2,523.3c-12.1-1.3-18.2-1.9-30.4-3.2c-0.5-0.1-0.7-0.4-0.6-0.9c0.1-0.2,0.1-0.3,0.2-0.5
					c0.2-0.4,0.7-0.7,1.1-0.7c12.2,1.3,18.3,1.9,30.4,3.1c0.5,0,0.7,0.5,0.6,0.9c-0.1,0.2-0.1,0.3-0.2,0.5
					C510.2,523,509.7,523.4,509.2,523.3z"/>
				<path class="st85" d="M437.5,522.2c-14.1-1.8-21.2-2.8-35.3-4.8c-0.5-0.1-0.8-0.5-0.6-0.9c0-0.1,0.1-0.2,0.1-0.3
					c0.2-0.4,0.7-0.7,1.2-0.6c14.2,2,21.2,3,35.3,4.7c0.5,0.1,0.8,0.5,0.6,0.9c0,0.1-0.1,0.2-0.1,0.3
					C438.5,522,438,522.3,437.5,522.2z"/>
				<path class="st85" d="M479.9,527.4c-14-1.7-21-2.5-35.1-4.3c-0.5-0.1-0.8-0.5-0.6-0.9c0.1-0.1,0.1-0.2,0.1-0.3
					c0.2-0.4,0.7-0.8,1.2-0.7c14.1,1.7,21.1,2.6,35.1,4.2c0.5,0.1,0.8,0.5,0.6,1c-0.1,0.1-0.1,0.2-0.1,0.4
					C480.9,527.1,480.3,527.5,479.9,527.4z"/>
				<linearGradient id="SVGID_14_" gradientUnits="userSpaceOnUse" x1="398.7554" y1="526.2032" x2="436.0301" y2="526.2032">
					<stop  offset="0" style="stop-color:#858E8D"/>
					<stop  offset="1" style="stop-color:#858E8D"/>
				</linearGradient>
				<path class="st71" d="M434.7,529.7c-14.1-2-21.1-3-35.2-5.2c-0.5-0.1-0.8-0.5-0.6-0.9c0-0.1,0.1-0.2,0.1-0.3
					c0.2-0.4,0.7-0.7,1.2-0.6c14.1,2.2,21.2,3.2,35.3,5.1c0.5,0.1,0.8,0.5,0.6,0.9c0,0.1-0.1,0.2-0.1,0.3
					C435.7,529.5,435.2,529.8,434.7,529.7z"/>
				<path class="st85" d="M477,535.4c-14-1.8-21-2.8-35.1-4.7c-0.5-0.1-0.8-0.5-0.6-0.9c0.1-0.1,0.1-0.2,0.1-0.3
					c0.2-0.4,0.7-0.8,1.2-0.7c14.1,1.9,21.1,2.8,35.1,4.6c0.5,0.1,0.8,0.5,0.6,1c-0.1,0.1-0.1,0.2-0.1,0.4
					C478,535.2,477.5,535.5,477,535.4z"/>
				<path class="st85" d="M427.6,535.5c-12.2-1.9-18.4-2.8-30.6-4.8c-0.5-0.1-0.7-0.5-0.6-0.8c0.1-0.2,0.1-0.3,0.2-0.4
					c0.1-0.4,0.6-0.6,1.1-0.6c12.3,2,18.4,2.9,30.6,4.7c0.5,0.1,0.7,0.5,0.6,0.9c-0.1,0.2-0.1,0.3-0.2,0.4
					C428.6,535.3,428.1,535.6,427.6,535.5z"/>
				<path class="st85" d="M464.6,541c-12.2-1.7-18.3-2.6-30.5-4.5c-0.5-0.1-0.7-0.5-0.6-0.9c0.1-0.2,0.1-0.3,0.2-0.4
					c0.2-0.4,0.7-0.7,1.1-0.6c12.2,1.8,18.3,2.7,30.5,4.4c0.5,0.1,0.7,0.5,0.6,0.9c-0.1,0.2-0.1,0.3-0.2,0.5
					C465.5,540.7,465,541,464.6,541z"/>
				<path class="st86" d="M501.4,546.1c-12.1-1.7-18.2-2.5-30.4-4.3c-0.5-0.1-0.7-0.5-0.6-0.9c0.1-0.2,0.1-0.3,0.2-0.5
					c0.2-0.4,0.7-0.7,1.1-0.7c12.2,1.7,18.3,2.5,30.4,4.2c0.5,0.1,0.7,0.5,0.6,0.9c-0.1,0.2-0.1,0.3-0.2,0.5
					C502.3,545.9,501.8,546.2,501.4,546.1z"/>
				<path class="st85" d="M538.4,551.3c-12.1-1.7-18.1-2.5-30.2-4.2c-0.5-0.1-0.7-0.5-0.6-1c0.1-0.2,0.1-0.3,0.2-0.5
					c0.2-0.5,0.7-0.8,1.1-0.7c12.1,1.6,18.2,2.5,30.2,4.1c0.5,0.1,0.7,0.5,0.5,1c-0.1,0.2-0.1,0.3-0.2,0.5
					C539.4,551,538.9,551.4,538.4,551.3z"/>
				<path class="st85" d="M575.3,556.6c-12-1.8-18-2.6-30.1-4.4c-0.5-0.1-0.7-0.5-0.5-1c0.1-0.2,0.1-0.3,0.2-0.5
					c0.2-0.5,0.7-0.8,1.1-0.8c12.1,1.7,18.1,2.5,30.1,4.3c0.5,0.1,0.7,0.5,0.5,1c-0.1,0.2-0.1,0.3-0.2,0.5
					C576.2,556.3,575.7,556.7,575.3,556.6z"/>
				<path class="st86" d="M611.9,562.3c-11.9-1.9-17.9-2.9-29.9-4.7c-0.5-0.1-0.7-0.5-0.5-1.1c0.1-0.2,0.1-0.3,0.2-0.5
					c0.2-0.5,0.7-0.9,1.1-0.8c12,1.8,18,2.7,29.9,4.6c0.5,0.1,0.7,0.6,0.5,1.1c-0.1,0.2-0.1,0.3-0.2,0.6
					C612.9,562,612.4,562.4,611.9,562.3z"/>
				<path class="st85" d="M648.3,568.5c-11.8-2.1-17.8-3.2-29.7-5.1c-0.5-0.1-0.7-0.6-0.5-1.1c0.1-0.2,0.1-0.3,0.2-0.6
					c0.2-0.5,0.7-0.9,1.1-0.8c11.9,1.9,17.8,2.9,29.7,5c0.5,0.1,0.7,0.6,0.5,1.2c-0.1,0.2-0.1,0.4-0.2,0.6
					C649.2,568.2,648.7,568.6,648.3,568.5z"/>
				<path class="st85" d="M429.8,542.7c-14-2.2-21.1-3.4-35.1-5.8c-0.5-0.1-0.8-0.5-0.6-0.9c0-0.1,0.1-0.2,0.1-0.3
					c0.2-0.4,0.7-0.7,1.2-0.6c14.1,2.4,21.1,3.5,35.1,5.7c0.5,0.1,0.8,0.5,0.6,0.9c0,0.1-0.1,0.2-0.1,0.3
					C430.8,542.5,430.3,542.8,429.8,542.7z"/>
				<path class="st85" d="M472,549.3c-14-2.1-21-3.2-35-5.4c-0.5-0.1-0.8-0.5-0.6-0.9c0-0.1,0.1-0.2,0.1-0.3
					c0.2-0.4,0.7-0.7,1.2-0.7c14,2.2,21,3.2,35,5.3c0.5,0.1,0.8,0.5,0.6,1c-0.1,0.1-0.1,0.2-0.1,0.4
					C473.1,549.1,472.5,549.4,472,549.3z"/>
				<path class="st86" d="M403.3,613.1c-13.8-3.3-20.7-4.9-34.5-8.1c-0.5-0.1-0.8-0.5-0.6-0.9c0-0.1,0.1-0.2,0.1-0.3
					c0.2-0.4,0.7-0.6,1.2-0.5c13.7,3.2,20.6,4.8,34.5,8c0.5,0.1,0.8,0.5,0.6,0.9c0,0.1-0.1,0.2-0.1,0.3
					C404.3,613,403.8,613.2,403.3,613.1z"/>
				<path class="st85" d="M445.1,623c-13.9-3.3-20.9-5-34.7-8.2c-0.5-0.1-0.8-0.5-0.6-0.9c0-0.1,0.1-0.2,0.1-0.3
					c0.2-0.4,0.7-0.6,1.2-0.5c13.9,3.3,20.8,4.9,34.7,8.2c0.5,0.1,0.8,0.5,0.6,1c0,0.1-0.1,0.2-0.1,0.3
					C446.1,622.9,445.6,623.1,445.1,623z"/>
				<path class="st85" d="M396.5,617.9c-12-2.8-18-4.2-29.9-7c-0.5-0.1-0.7-0.5-0.6-0.9c0.1-0.2,0.1-0.2,0.1-0.4
					c0.1-0.4,0.6-0.6,1.1-0.5c11.9,2.8,17.9,4.2,29.9,7c0.5,0.1,0.7,0.5,0.6,0.9c-0.1,0.2-0.1,0.2-0.2,0.4
					C397.4,617.8,396.9,618,396.5,617.9z"/>
				<path class="st85" d="M433,626.6c-12.1-2.9-18.1-4.3-30.1-7.2c-0.5-0.1-0.7-0.5-0.6-0.9c0.1-0.2,0.1-0.2,0.2-0.4
					c0.1-0.4,0.6-0.6,1.1-0.5c12,2.8,18.1,4.3,30.2,7.2c0.5,0.1,0.7,0.5,0.6,0.9c-0.1,0.2-0.1,0.2-0.2,0.4
					C433.9,626.5,433.4,626.7,433,626.6z"/>
				<path class="st85" d="M469.6,635.5c-12.1-3-18.2-4.4-30.3-7.4c-0.5-0.1-0.7-0.5-0.6-0.9c0.1-0.2,0.1-0.2,0.2-0.4
					c0.1-0.4,0.6-0.6,1.1-0.5c12.1,2.9,18.2,4.4,30.3,7.3c0.5,0.1,0.7,0.5,0.6,0.9c-0.1,0.2-0.1,0.2-0.2,0.4
					C470.5,635.4,470.1,635.6,469.6,635.5z"/>
				<path class="st85" d="M506.7,644.7c-12.1-3-18.2-4.5-30.3-7.5c-0.5-0.1-0.7-0.5-0.6-0.9c0.1-0.2,0.1-0.2,0.2-0.4
					c0.1-0.4,0.6-0.6,1.1-0.5c12.1,3,18.2,4.5,30.3,7.5c0.5,0.1,0.7,0.5,0.6,0.9c-0.1,0.2-0.1,0.2-0.2,0.4
					C507.6,644.6,507.2,644.8,506.7,644.7z"/>
				<path class="st85" d="M543.7,654c-12.1-3.1-18.1-4.6-30.2-7.6c-0.5-0.1-0.7-0.5-0.6-0.9c0.1-0.2,0.1-0.2,0.2-0.4
					c0.1-0.4,0.6-0.6,1.1-0.5c12.1,3,18.1,4.5,30.2,7.6c0.5,0.1,0.7,0.5,0.6,0.9c-0.1,0.2-0.1,0.2-0.2,0.4
					C544.7,653.9,544.2,654.1,543.7,654z"/>
				<path class="st85" d="M580.5,663.5c-12-3.1-18-4.7-30-7.7c-0.5-0.1-0.7-0.5-0.6-0.9c0.1-0.2,0.1-0.2,0.2-0.4
					c0.1-0.4,0.6-0.6,1.1-0.5c12,3.1,18.1,4.6,30,7.7c0.5,0.1,0.7,0.5,0.6,0.9c-0.1,0.2-0.1,0.3-0.1,0.4
					C581.5,663.4,581,663.6,580.5,663.5z"/>
				<path class="st85" d="M617,673c-11.8-3.1-17.8-4.7-29.8-7.8c-0.5-0.1-0.7-0.5-0.6-0.9c0.1-0.2,0.1-0.3,0.1-0.4
					c0.1-0.4,0.6-0.6,1.1-0.5c12,3.1,17.9,4.7,29.8,7.8c0.5,0.1,0.7,0.5,0.6,0.9c-0.1,0.2-0.1,0.3-0.1,0.4
					C617.9,672.9,617.4,673.2,617,673z"/>
				<path class="st85" d="M398.8,624.8c-13.8-3.3-20.7-4.9-34.4-8.1c-0.5-0.1-0.8-0.5-0.6-0.9c0-0.1,0.1-0.2,0.1-0.3
					c0.1-0.4,0.7-0.6,1.1-0.5c13.7,3.2,20.6,4.8,34.4,8.1c0.5,0.1,0.8,0.5,0.6,0.9c0,0.1-0.1,0.2-0.1,0.3
					C399.8,624.7,399.3,624.9,398.8,624.8z"/>
				<path class="st85" d="M440.6,634.8c-13.9-3.4-20.8-5-34.7-8.3c-0.5-0.1-0.8-0.5-0.6-0.9c0-0.1,0.1-0.2,0.1-0.3
					c0.2-0.4,0.7-0.6,1.2-0.5c13.8,3.3,20.8,5,34.7,8.3c0.5,0.1,0.8,0.5,0.6,0.9c0,0.1-0.1,0.2-0.1,0.3
					C441.6,634.7,441.1,634.9,440.6,634.8z"/>
				<path class="st85" d="M523.2,480.9c-14-0.6-21-0.9-35.1-1.7c-0.5,0-0.8-0.4-0.6-0.9c0-0.1,0.1-0.2,0.1-0.3
					c0.2-0.4,0.7-0.8,1.2-0.8c14.1,0.7,21.1,1,35.1,1.6c0.5,0,0.8,0.4,0.6,0.9c0,0.1-0.1,0.2-0.1,0.4
					C524.2,480.6,523.7,480.9,523.2,480.9z"/>
				<linearGradient id="SVGID_15_" gradientUnits="userSpaceOnUse" x1="376.7759" y1="583.8914" x2="413.4472" y2="583.8914">
					<stop  offset="0" style="stop-color:#858E8D"/>
					<stop  offset="1" style="stop-color:#858E8D"/>
				</linearGradient>
				<path class="st72" d="M412.1,588.6c-13.9-3-20.8-4.6-34.7-7.6c-0.5-0.1-0.8-0.5-0.6-0.9c0-0.1,0.1-0.2,0.1-0.3
					c0.2-0.4,0.7-0.7,1.2-0.5c13.8,3,20.8,4.5,34.7,7.6c0.5,0.1,0.8,0.5,0.6,1c0,0.1-0.1,0.2-0.1,0.3
					C413.1,588.5,412.6,588.7,412.1,588.6z"/>
				<path class="st85" d="M454.1,597.8c-13.9-3-20.9-4.6-34.8-7.6c-0.5-0.1-0.8-0.5-0.6-1c0-0.1,0.1-0.2,0.1-0.3
					c0.2-0.4,0.7-0.7,1.2-0.6c13.9,3,20.9,4.5,34.8,7.5c0.5,0.1,0.8,0.6,0.6,1c0,0.1-0.1,0.2-0.1,0.3
					C455.1,597.6,454.6,597.9,454.1,597.8z"/>
				<path class="st86" d="M496.1,607c-13.9-3.1-20.9-4.6-34.8-7.6c-0.5-0.1-0.8-0.6-0.6-1c0-0.1,0.1-0.2,0.1-0.3
					c0.2-0.4,0.7-0.7,1.2-0.6c13.9,3,20.9,4.5,34.8,7.6c0.5,0.1,0.8,0.6,0.6,1c0,0.1-0.1,0.2-0.1,0.3
					C497.1,606.8,496.6,607.1,496.1,607z"/>
				<path class="st85" d="M405.2,593.8c-12.1-2.7-18.1-4.1-30.1-6.8c-0.5-0.1-0.7-0.5-0.6-0.9c0.1-0.2,0.1-0.2,0.2-0.4
					c0.1-0.4,0.6-0.6,1.1-0.5c12,2.7,18.1,4,30.1,6.7c0.5,0.1,0.7,0.5,0.6,0.9c-0.1,0.2-0.1,0.2-0.2,0.4
					C406.1,593.6,405.6,593.9,405.2,593.8z"/>
				<path class="st85" d="M441.8,602c-12.1-2.7-18.2-4.1-30.2-6.8c-0.5-0.1-0.7-0.5-0.6-0.9c0.1-0.2,0.1-0.2,0.2-0.4
					c0.1-0.4,0.6-0.6,1.1-0.5c12.1,2.7,18.1,4,30.2,6.7c0.5,0.1,0.7,0.5,0.6,0.9c-0.1,0.2-0.1,0.3-0.2,0.4
					C442.7,601.8,442.3,602.1,441.8,602z"/>
				<path class="st85" d="M478.5,610.3c-12.1-2.7-18.2-4.1-30.3-6.8c-0.5-0.1-0.7-0.5-0.6-0.9c0.1-0.2,0.1-0.3,0.2-0.4
					c0.1-0.4,0.6-0.6,1.1-0.5c12.1,2.7,18.2,4.1,30.3,6.8c0.5,0.1,0.7,0.5,0.6,0.9c-0.1,0.2-0.1,0.3-0.2,0.4
					C479.4,610.1,478.9,610.4,478.5,610.3z"/>
				<path class="st85" d="M515.5,618.7c-12.1-2.8-18.1-4.2-30.3-6.9c-0.5-0.1-0.7-0.5-0.6-0.9c0.1-0.2,0.1-0.3,0.2-0.4
					c0.2-0.4,0.6-0.7,1.1-0.6c12.1,2.7,18.2,4.1,30.3,6.9c0.5,0.1,0.7,0.5,0.6,1c-0.1,0.2-0.1,0.3-0.2,0.5
					C516.5,618.6,516,618.8,515.5,618.7z"/>
				<path class="st85" d="M552.5,627.3c-12-2.8-18.1-4.3-30.2-7.1c-0.5-0.1-0.7-0.5-0.6-1c0.1-0.2,0.1-0.3,0.2-0.5
					c0.1-0.4,0.6-0.7,1.1-0.6c12.1,2.8,18.1,4.2,30.1,7c0.5,0.1,0.7,0.6,0.6,1c-0.1,0.2-0.1,0.3-0.2,0.5
					C553.4,627.2,552.9,627.5,552.5,627.3z"/>
				<path class="st85" d="M407.4,600.9c-13.9-3.2-20.8-4.8-34.6-7.9c-0.5-0.1-0.8-0.5-0.6-0.9c0-0.1,0.1-0.2,0.1-0.3
					c0.2-0.4,0.7-0.6,1.2-0.5c13.8,3.1,20.7,4.7,34.6,7.9c0.5,0.1,0.8,0.5,0.6,1c0,0.1-0.1,0.2-0.1,0.3
					C408.4,600.8,407.9,601,407.4,600.9z"/>
				<path class="st86" d="M449.3,610.6c-13.9-3.2-20.9-4.8-34.7-8c-0.5-0.1-0.8-0.5-0.6-1c0-0.1,0.1-0.2,0.1-0.3
					c0.2-0.4,0.7-0.7,1.2-0.5c13.9,3.2,20.8,4.7,34.8,7.9c0.5,0.1,0.8,0.6,0.6,1c0,0.1-0.1,0.2-0.1,0.3
					C450.4,610.4,449.8,610.7,449.3,610.6z"/>
				<path class="st85" d="M491.3,620.3c-13.9-3.3-20.9-4.9-34.8-8.1c-0.5-0.1-0.8-0.6-0.6-1c0-0.1,0.1-0.2,0.1-0.3
					c0.2-0.4,0.7-0.7,1.2-0.6c13.9,3.2,20.9,4.8,34.8,8c0.5,0.1,0.8,0.6,0.6,1c0,0.1-0.1,0.2-0.1,0.3
					C492.3,620.2,491.8,620.4,491.3,620.3z"/>
				<path class="st85" d="M430.9,481.8c-12.4-1.1-18.7-1.7-31.2-3.2c-0.5-0.1-0.7-0.4-0.6-0.8c0.1-0.2,0.1-0.2,0.2-0.4
					c0.1-0.4,0.6-0.6,1.1-0.6c12.5,1.4,18.8,2,31.2,3.1c0.5,0,0.7,0.4,0.6,0.8c-0.1,0.2-0.1,0.3-0.2,0.4
					C431.9,481.6,431.4,481.9,430.9,481.8z"/>
				<path class="st85" d="M468.4,484.7c-12.3-0.8-18.5-1.3-30.9-2.4c-0.5,0-0.7-0.4-0.6-0.8c0.1-0.2,0.1-0.3,0.2-0.4
					c0.1-0.4,0.7-0.7,1.1-0.6c12.4,1,18.6,1.5,30.9,2.3c0.5,0,0.7,0.4,0.6,0.8c-0.1,0.2-0.1,0.3-0.2,0.4
					C469.3,484.5,468.8,484.8,468.4,484.7z"/>
				<path class="st85" d="M505.5,487c-12.2-0.7-18.3-1-30.6-1.8c-0.5,0-0.7-0.4-0.6-0.8c0.1-0.2,0.1-0.3,0.2-0.4
					c0.2-0.4,0.7-0.7,1.1-0.7c12.3,0.8,18.4,1.1,30.6,1.7c0.5,0,0.7,0.4,0.6,0.8c-0.1,0.2-0.1,0.3-0.2,0.5
					C506.4,486.7,505.9,487,505.5,487z"/>
				<path class="st85" d="M544.4,489c-12.1-0.6-18.2-0.9-30.3-1.6c-0.5,0-0.7-0.4-0.6-0.8c0.1-0.2,0.1-0.3,0.2-0.5
					c0.2-0.4,0.7-0.8,1.1-0.7c12.2,0.6,18.2,0.9,30.3,1.5c0.5,0,0.7,0.4,0.6,0.9c-0.1,0.2-0.1,0.3-0.2,0.5
					C545.3,488.7,544.8,489,544.4,489z"/>
				<linearGradient id="SVGID_16_" gradientUnits="userSpaceOnUse" x1="389.2539" y1="550.459" x2="426.2728" y2="550.459">
					<stop  offset="0" style="stop-color:#858E8D"/>
					<stop  offset="1" style="stop-color:#858E8D"/>
				</linearGradient>
				<path class="st73" d="M424.9,554.5c-14-2.5-21-3.7-35-6.3c-0.5-0.1-0.8-0.5-0.6-0.9c0-0.1,0.1-0.2,0.1-0.3
					c0.2-0.4,0.7-0.7,1.2-0.6c14,2.6,21,3.8,35,6.3c0.5,0.1,0.8,0.5,0.6,0.9c0,0.1-0.1,0.2-0.1,0.3
					C425.9,554.4,425.4,554.6,424.9,554.5z"/>
				<path class="st85" d="M467.1,561.9c-14-2.4-21-3.6-35-6.1c-0.5-0.1-0.8-0.5-0.6-1c0-0.1,0.1-0.2,0.1-0.3
					c0.2-0.4,0.7-0.7,1.2-0.6c14,2.4,21,3.6,35,6c0.5,0.1,0.8,0.5,0.6,1c-0.1,0.1-0.1,0.2-0.1,0.4
					C468.1,561.7,467.6,562,467.1,561.9z"/>
				<linearGradient id="SVGID_17_" gradientUnits="userSpaceOnUse" x1="473.648" y1="565.0522" x2="510.5134" y2="565.0522">
					<stop  offset="0" style="stop-color:#858E8D"/>
					<stop  offset="1" style="stop-color:#858E8D"/>
				</linearGradient>
				<path class="st74" d="M509.1,569.1c-13.9-2.4-20.9-3.6-34.8-5.9c-0.5-0.1-0.8-0.5-0.6-1c0.1-0.1,0.1-0.2,0.1-0.4
					c0.2-0.5,0.7-0.8,1.2-0.7c14,2.3,20.9,3.5,34.9,5.8c0.5,0.1,0.8,0.6,0.6,1c-0.1,0.2-0.1,0.2-0.1,0.4
					C510.2,568.8,509.6,569.1,509.1,569.1z"/>
				<path class="st85" d="M417.9,560.1c-12.2-2.3-18.2-3.4-30.4-5.8c-0.5-0.1-0.7-0.5-0.6-0.9c0.1-0.2,0.1-0.2,0.2-0.4
					c0.1-0.4,0.6-0.6,1.1-0.5c12.2,2.3,18.2,3.5,30.4,5.7c0.5,0.1,0.7,0.5,0.6,0.9c-0.1,0.2-0.1,0.3-0.2,0.4
					C418.9,560,418.4,560.2,417.9,560.1z"/>
				<linearGradient id="SVGID_18_" gradientUnits="userSpaceOnUse" x1="423.6934" y1="563.1632" x2="456.0172" y2="563.1632">
					<stop  offset="0" style="stop-color:#858E8D"/>
					<stop  offset="1" style="stop-color:#858E8D"/>
				</linearGradient>
				<path class="st75" d="M454.7,566.9c-12.2-2.2-18.2-3.3-30.4-5.6c-0.5-0.1-0.7-0.5-0.6-0.9c0.1-0.2,0.1-0.3,0.2-0.4
					c0.2-0.4,0.7-0.7,1.1-0.6c12.2,2.2,18.2,3.3,30.4,5.5c0.5,0.1,0.7,0.5,0.6,0.9c-0.1,0.2-0.1,0.3-0.2,0.5
					C455.7,566.7,455.2,567,454.7,566.9z"/>
				<path class="st85" d="M491.4,573.6c-12.1-2.2-18.2-3.3-30.3-5.5c-0.5-0.1-0.7-0.5-0.6-0.9c0.1-0.2,0.1-0.3,0.2-0.5
					c0.2-0.4,0.7-0.7,1.1-0.6c12.1,2.2,18.2,3.2,30.3,5.4c0.5,0.1,0.7,0.5,0.6,1c-0.1,0.2-0.1,0.3-0.2,0.5
					C492.4,573.3,491.9,573.6,491.4,573.6z"/>
				<path class="st85" d="M528.5,580.3c-12.1-2.2-18.1-3.3-30.2-5.5c-0.5-0.1-0.7-0.5-0.6-1c0.1-0.2,0.1-0.3,0.2-0.5
					c0.2-0.5,0.7-0.8,1.1-0.7c12.1,2.2,18.2,3.2,30.2,5.4c0.5,0.1,0.7,0.5,0.5,1c-0.1,0.2-0.1,0.3-0.2,0.5
					C529.4,580.1,528.9,580.4,528.5,580.3z"/>
				<path class="st85" d="M565.4,587.2c-12-2.3-18-3.4-30.1-5.6c-0.5-0.1-0.7-0.5-0.6-1c0.1-0.2,0.1-0.3,0.2-0.5
					c0.2-0.5,0.7-0.8,1.1-0.7c12.1,2.2,18.1,3.3,30.1,5.5c0.5,0.1,0.7,0.6,0.5,1.1c-0.1,0.2-0.1,0.3-0.2,0.5
					C566.3,586.9,565.8,587.3,565.4,587.2z"/>
				<path class="st85" d="M606.7,595.3c-11.9-2.4-17.9-3.6-29.9-5.9c-0.5-0.1-0.7-0.6-0.5-1.1c0.1-0.2,0.1-0.3,0.2-0.5
					c0.2-0.5,0.7-0.8,1.1-0.8c12,2.3,18,3.4,29.9,5.8c0.5,0.1,0.7,0.6,0.5,1.1c-0.1,0.2-0.1,0.3-0.2,0.6
					C607.7,595,607.2,595.4,606.7,595.3z"/>
				<path class="st85" d="M420.1,567.4c-14-2.7-20.9-4.1-34.9-6.9c-0.5-0.1-0.8-0.5-0.6-0.9c0-0.1,0.1-0.2,0.1-0.3
					c0.2-0.4,0.7-0.7,1.2-0.6c13.9,2.8,20.9,4.1,34.9,6.8c0.5,0.1,0.8,0.5,0.6,1c0,0.1-0.1,0.2-0.1,0.3
					C421.1,567.2,420.6,567.5,420.1,567.4z"/>
				<path class="st85" d="M462.2,575.5c-14-2.7-20.9-4-34.9-6.7c-0.5-0.1-0.8-0.5-0.6-1c0-0.1,0.1-0.2,0.1-0.3
					c0.2-0.4,0.7-0.7,1.2-0.6c14,2.7,20.9,4,34.9,6.6c0.5,0.1,0.8,0.5,0.6,1c0,0.1-0.1,0.2-0.1,0.3
					C463.2,575.3,462.7,575.6,462.2,575.5z"/>
				<path class="st85" d="M504.2,583.5c-13.9-2.7-20.9-4-34.8-6.6c-0.5-0.1-0.8-0.5-0.6-1c0-0.1,0.1-0.2,0.1-0.3
					c0.2-0.5,0.7-0.8,1.2-0.7c13.9,2.6,20.9,3.9,34.8,6.5c0.5,0.1,0.8,0.6,0.6,1c-0.1,0.1-0.1,0.2-0.1,0.4
					C505.2,583.3,504.7,583.6,504.2,583.5z"/>
				<linearGradient id="SVGID_19_" gradientUnits="userSpaceOnUse" x1="513.9832" y1="587.8105" x2="550.6685" y2="587.8105">
					<stop  offset="0" style="stop-color:#858E8D"/>
					<stop  offset="1" style="stop-color:#858E8D"/>
				</linearGradient>
				<path class="st77" d="M549.3,592.3c-13.8-2.7-20.8-4.1-34.7-6.8c-0.5-0.1-0.8-0.6-0.6-1.1c0.1-0.1,0.1-0.2,0.1-0.4
					c0.2-0.5,0.7-0.8,1.2-0.7c13.9,2.6,20.8,4,34.7,6.6c0.5,0.1,0.8,0.6,0.6,1.1c0,0.2-0.1,0.2-0.1,0.4
					C550.3,592,549.8,592.4,549.3,592.3z"/>
				<path class="st85" d="M413.1,572.8c-12.1-2.5-18.2-3.7-30.3-6.2c-0.5-0.1-0.7-0.5-0.6-0.9c0.1-0.2,0.1-0.2,0.2-0.4
					c0.1-0.4,0.6-0.6,1.1-0.5c12.1,2.5,18.2,3.7,30.3,6.2c0.5,0.1,0.7,0.5,0.6,0.9c-0.1,0.2-0.1,0.3-0.2,0.4
					C414.1,572.7,413.6,572.9,413.1,572.8z"/>
				<path class="st85" d="M449.8,580.2c-12.1-2.4-18.2-3.6-30.3-6.1c-0.5-0.1-0.7-0.5-0.6-0.9c0.1-0.2,0.1-0.3,0.2-0.4
					c0.2-0.4,0.6-0.7,1.1-0.6c12.1,2.4,18.2,3.6,30.3,6c0.5,0.1,0.7,0.5,0.6,0.9c-0.1,0.2-0.1,0.3-0.2,0.4
					C450.8,580.1,450.3,580.3,449.8,580.2z"/>
				<path class="st85" d="M486.5,587.6c-12.1-2.4-18.2-3.6-30.3-6.1c-0.5-0.1-0.7-0.5-0.6-0.9c0.1-0.2,0.1-0.3,0.2-0.4
					c0.2-0.4,0.7-0.7,1.1-0.6c12.1,2.4,18.2,3.6,30.3,6c0.5,0.1,0.7,0.5,0.6,1c-0.1,0.2-0.1,0.3-0.2,0.5
					C487.5,587.4,487,587.7,486.5,587.6z"/>
				<path class="st85" d="M525.3,595.4c-12.1-2.5-18.1-3.7-30.2-6.1c-0.5-0.1-0.7-0.5-0.6-1c0.1-0.2,0.1-0.3,0.2-0.5
					c0.2-0.4,0.7-0.7,1.1-0.6c12.1,2.4,18.2,3.6,30.2,6c0.5,0.1,0.7,0.5,0.6,1c-0.1,0.2-0.1,0.3-0.2,0.5
					C526.2,595.2,525.7,595.5,525.3,595.4z"/>
				<path class="st85" d="M567.5,448.2c-12.1-0.1-18.1-0.1-30.3-0.2c-0.5,0-0.7-0.3-0.6-0.7c0.1-0.2,0.1-0.3,0.2-0.4
					c0.1-0.4,0.6-0.7,1.1-0.7c12.2,0.1,18.2,0.1,30.3,0.2c0.5,0,0.7,0.3,0.6,0.7c-0.1,0.2-0.1,0.3-0.2,0.4
					C568.4,447.9,567.9,448.2,567.5,448.2z"/>
				<path class="st85" d="M603.8,448.6c-12-0.2-18-0.2-30-0.3c-0.5,0-0.7-0.3-0.6-0.7c0.1-0.2,0.1-0.3,0.2-0.4
					c0.1-0.4,0.6-0.7,1.1-0.7c12,0.1,18,0.1,30,0.3c0.5,0,0.7,0.3,0.6,0.8c-0.1,0.2-0.1,0.3-0.2,0.4
					C604.8,448.3,604.3,448.6,603.8,448.6z"/>
				<path class="st85" d="M639.9,449.4c-11.9-0.4-17.8-0.5-29.8-0.7c-0.5,0-0.7-0.4-0.6-0.8c0.1-0.2,0.1-0.3,0.2-0.4
					c0.1-0.4,0.6-0.7,1.1-0.7c11.9,0.2,17.9,0.3,29.8,0.7c0.5,0,0.7,0.4,0.6,0.8c-0.1,0.2-0.1,0.3-0.2,0.4
					C640.8,449.1,640.4,449.4,639.9,449.4z"/>
				<path class="st85" d="M675.8,451.2c-11.8-0.8-17.8-1.1-29.6-1.5c-0.5,0-0.7-0.4-0.6-0.8c0.1-0.2,0.1-0.3,0.2-0.4
					c0.1-0.4,0.6-0.7,1.1-0.7c11.9,0.4,17.8,0.7,29.6,1.5c0.5,0,0.7,0.4,0.6,0.8c-0.1,0.2-0.1,0.3-0.2,0.5
					C676.7,450.9,676.3,451.2,675.8,451.2z"/>
				<path class="st86" d="M445,430.8c-10.6-0.7-15.9-1.1-26.6-2.2c-0.4,0-0.7-0.4-0.6-0.7c0.1-0.2,0.1-0.3,0.2-0.5
					c0.1-0.3,0.6-0.6,1-0.5c10.7,1,16,1.5,26.6,2.2c0.4,0,0.7,0.3,0.6,0.7c-0.1,0.2-0.1,0.3-0.2,0.5
					C445.9,430.6,445.4,430.8,445,430.8z"/>
				<path class="st85" d="M478,432.5c-10.4-0.4-15.7-0.6-26.2-1.3c-0.4,0-0.7-0.3-0.6-0.7c0.1-0.2,0.1-0.3,0.2-0.5
					c0.1-0.3,0.6-0.6,1-0.6c10.6,0.6,15.8,0.9,26.2,1.3c0.4,0,0.7,0.3,0.6,0.6c-0.1,0.2-0.1,0.3-0.2,0.5
					C478.9,432.2,478.5,432.5,478,432.5z"/>
				<path class="st85" d="M422.6,489.7c-10.4-1.1-15.6-1.6-26.1-2.9c-0.4-0.1-0.7-0.4-0.5-0.7c0.1-0.2,0.1-0.3,0.2-0.5
					c0.1-0.4,0.6-0.6,1-0.5c10.5,1.3,15.7,1.8,26.1,2.9c0.4,0,0.7,0.4,0.5,0.7c-0.1,0.2-0.1,0.3-0.2,0.5
					C423.5,489.5,423.1,489.7,422.6,489.7z"/>
				<path class="st85" d="M455.3,492.7c-10.3-0.9-15.5-1.3-25.9-2.3c-0.4,0-0.7-0.4-0.5-0.7c0.1-0.2,0.1-0.3,0.2-0.5
					c0.1-0.4,0.6-0.6,1-0.6c10.4,1,15.6,1.4,25.9,2.3c0.4,0,0.7,0.4,0.5,0.7c-0.1,0.2-0.1,0.3-0.2,0.6
					C456.2,492.4,455.7,492.7,455.3,492.7z"/>
			</g>
		</g>
		
			<linearGradient id="SVGID_20_" gradientUnits="userSpaceOnUse" x1="611.5698" y1="521.7769" x2="698.7396" y2="405.2627" gradientTransform="matrix(0.5148 0.8573 -0.8573 0.5148 757.45 -209.9688)">
			<stop  offset="4.102398e-07" style="stop-color:#FB923C"/>
			<stop  offset="1" style="stop-color:#F5B419"/>
		</linearGradient>
		<path class="st78" d="M621.5,506.3c0,0-13.2,35.9,14,66.6s-10.9,50.4,3.5,71.9c14.4,21.5,5.1,30.5,5.1,30.5s25.9-6.9,24.1-28
			c-0.9-10.2-9-19,4.7-29.2c13.7-10.2,38.9-30.9,24-56.2c-14.8-25.4-3.2-62.2-3.2-62.2L621.5,506.3z"/>
		<g>
			<g>
				
					<linearGradient id="SVGID_21_" gradientUnits="userSpaceOnUse" x1="-2784.0024" y1="1444.0101" x2="-2830.9871" y2="1464.2444" gradientTransform="matrix(0.9975 7.048324e-02 -7.048324e-02 0.9975 3489.2693 -801.0771)">
					<stop  offset="0" style="stop-color:#5D5E61"/>
					<stop  offset="1" style="stop-color:#231F20"/>
				</linearGradient>
				<path class="st79" d="M604.1,374.1c0,0-55,19.5-46,96.2c3.1,26.5,11.9,42.2,19.8,51.2c4.6,5.2,12.5,0.5,11.7-6.9
					c-1.6-15.6-0.9-36.2,13.5-41.2C627,465.2,604.1,374.1,604.1,374.1z"/>
				
					<linearGradient id="SVGID_22_" gradientUnits="userSpaceOnUse" x1="-2781.1074" y1="1446.2617" x2="-2828.0923" y2="1466.4961" gradientTransform="matrix(0.9975 7.048324e-02 -7.048324e-02 0.9975 3489.2693 -801.0771)">
					<stop  offset="0" style="stop-color:#485654"/>
					<stop  offset="0.7039" style="stop-color:#8C959D"/>
					<stop  offset="1" style="stop-color:#9EA0A4"/>
				</linearGradient>
				<path class="st81" d="M606.8,376.6c0,0-55,19.5-46,96.2c3.1,26.5,11.9,42.2,19.8,51.2c4.6,5.2,12.5,0.5,11.7-6.9
					c-1.6-15.6-0.9-36.2,13.5-41.2C629.7,467.6,606.8,376.6,606.8,376.6z"/>
				
					<linearGradient id="SVGID_23_" gradientUnits="userSpaceOnUse" x1="-2781.415" y1="1445.548" x2="-2828.3997" y2="1465.7823" gradientTransform="matrix(0.9975 7.048324e-02 -7.048324e-02 0.9975 3489.2693 -801.0771)">
					<stop  offset="0" style="stop-color:#485654"/>
					<stop  offset="0.4218" style="stop-color:#FFFFFF"/>
					<stop  offset="1" style="stop-color:#9EA0A4"/>
				</linearGradient>
				<path class="st82" d="M581.2,524.2c-8-9-16.7-24.7-19.8-51.2c-8.6-73,40.7-94.1,45.5-96c-0.1-0.2-0.1-0.4-0.1-0.4
					s-55,19.5-46,96.2c3.1,26.5,11.9,42.2,19.8,51.2c0.7,0.8,1.5,1.4,2.3,1.7C582.4,525.3,581.8,524.8,581.2,524.2z"/>
			</g>
			<g>
				
					<linearGradient id="SVGID_24_" gradientUnits="userSpaceOnUse" x1="-1156.6881" y1="1443.7908" x2="-1203.671" y2="1464.0243" gradientTransform="matrix(-0.9975 -7.048324e-02 -7.048324e-02 0.9975 -340.8864 -1071.4799)">
					<stop  offset="0" style="stop-color:#5D5E61"/>
					<stop  offset="1" style="stop-color:#231F20"/>
				</linearGradient>
				<path class="st83" d="M727.1,382.8c0,0,51.7,27,32,101.7c-6.8,25.8-17.7,40.1-26.9,47.9c-5.3,4.5-12.4-1.2-10.6-8.4
					c3.8-15.2,5.9-35.7-7.6-42.7C691.6,469.7,727.1,382.8,727.1,382.8z"/>
				
					<linearGradient id="SVGID_25_" gradientUnits="userSpaceOnUse" x1="-1153.7931" y1="1446.0424" x2="-1200.776" y2="1466.2759" gradientTransform="matrix(-0.9975 -7.048324e-02 -7.048324e-02 0.9975 -340.8864 -1071.4799)">
					<stop  offset="0" style="stop-color:#485654"/>
					<stop  offset="0.7039" style="stop-color:#8C959D"/>
					<stop  offset="1" style="stop-color:#9EA0A4"/>
				</linearGradient>
				<path class="st84" d="M724.1,384.9c0,0,51.7,27,32,101.7c-6.8,25.8-17.7,40.1-26.9,47.9c-5.3,4.5-12.4-1.2-10.6-8.4
					c3.8-15.2,5.9-35.7-7.6-42.7C688.5,471.8,724.1,384.9,724.1,384.9z"/>
				
					<linearGradient id="SVGID_26_" gradientUnits="userSpaceOnUse" x1="-1154.1006" y1="1445.3286" x2="-1201.0834" y2="1465.5623" gradientTransform="matrix(-0.9975 -7.048324e-02 -7.048324e-02 0.9975 -340.8864 -1071.4799)">
					<stop  offset="0" style="stop-color:#485654"/>
					<stop  offset="0.4218" style="stop-color:#FFFFFF"/>
					<stop  offset="1" style="stop-color:#9EA0A4"/>
				</linearGradient>
				<path class="st87" d="M728.6,534.6c9.1-7.8,20-22.1,26.9-47.9c18.7-71-27.1-98.9-31.6-101.5c0.1-0.2,0.1-0.4,0.1-0.4
					s51.7,27,32,101.7c-6.8,25.8-17.7,40.1-26.9,47.9c-0.8,0.7-1.7,1.1-2.6,1.4C727.3,535.6,728,535.2,728.6,534.6z"/>
			</g>
		</g>
		
			<linearGradient id="SVGID_27_" gradientUnits="userSpaceOnUse" x1="-2787.2766" y1="1482.5701" x2="-2681.3367" y2="1482.5701" gradientTransform="matrix(0.9975 7.048324e-02 -7.048324e-02 0.9975 3489.2693 -801.0771)">
			<stop  offset="0" style="stop-color:#485654"/>
			<stop  offset="0.7039" style="stop-color:#8C959D"/>
			<stop  offset="1" style="stop-color:#9EA0A4"/>
		</linearGradient>
		<path class="st88" d="M697.9,509.3l14.9-61.1l-106.3,1.6l8.6,53.6l0.3,0c-0.2,0.7-0.4,1.3-0.4,2c-0.7,9.6,17.3,18.7,40.2,20.3
			c22.9,1.6,42-4.9,42.6-14.4c0-0.7,0-1.4-0.2-2L697.9,509.3z"/>
		
			<linearGradient id="SVGID_28_" gradientUnits="userSpaceOnUse" x1="-2668.7144" y1="1384.1742" x2="-2795.6345" y2="1384.1742" gradientTransform="matrix(0.9975 7.048324e-02 -7.048324e-02 0.9975 3489.2693 -801.0771)">
			<stop  offset="0" style="stop-color:#A3A5A8"/>
			<stop  offset="0.5782" style="stop-color:#D4D8D3"/>
		</linearGradient>
		<path class="st89" d="M704.6,296.8l-66.3-4.7c-6.4-0.5-12.5,2.8-15.6,8.4c-14.2,24.8-48.2,95.6-12.5,155.3l0,0
			c4.1,12,23.8,22.1,48.2,23.8c24.4,1.7,45.3-5.6,51.1-16.8l0,0c43.8-54.2,20.1-129.1,9.5-155.6C716.6,301.3,711,297.2,704.6,296.8z
			"/>
		
			<linearGradient id="SVGID_29_" gradientUnits="userSpaceOnUse" x1="-2683.2808" y1="1264.3425" x2="-2770.0796" y2="1264.3425" gradientTransform="matrix(0.9975 7.048324e-02 -7.048324e-02 0.9975 3489.2693 -801.0771)">
			<stop  offset="0" style="stop-color:#485654"/>
			<stop  offset="0.7039" style="stop-color:#8C959D"/>
			<stop  offset="1" style="stop-color:#9EA0A4"/>
		</linearGradient>
		<path class="st90" d="M714.7,297.5c-3.8-50.1-37.5-80.3-37.7-80.4l0,0c0,0,0,0,0,0c0,0,0,0,0,0l0,0c-0.2,0.1-37.8,25.2-48.7,74.3
			l0.1,0.1c-0.1,0.5-0.2,1-0.2,1.5c-0.9,12.1,17.8,23.3,41.6,25l0,0c0,0,0,0,0,0c0,0,0,0,0,0l0,0c23.9,1.7,43.9-6.8,44.7-18.9
			c0-0.5,0-1,0-1.6L714.7,297.5z"/>
		<g>
			
				<linearGradient id="SVGID_30_" gradientUnits="userSpaceOnUse" x1="-2737.9663" y1="1467.3488" x2="-2702.5972" y2="1489.778" gradientTransform="matrix(0.9975 7.048324e-02 -7.048324e-02 0.9975 3489.2693 -801.0771)">
				<stop  offset="0" style="stop-color:#5D5E61"/>
				<stop  offset="1" style="stop-color:#231F20"/>
			</linearGradient>
			<path class="st91" d="M665.8,412.6c0,0,22.3,32.1,20,68.8c-2.3,36.7-6.3,66.9-10.4,66.6c-0.5,0-3.2,0.7-3.5-0.2
				c-2.4-6.7,1.4-35.6,0.2-48.4c-1.4-14.6-8.1-18-8.1-18l-1.7-69L665.8,412.6z"/>
			
				<linearGradient id="SVGID_31_" gradientUnits="userSpaceOnUse" x1="-2739.2366" y1="1467.6716" x2="-2705.011" y2="1489.3757" gradientTransform="matrix(0.9975 7.048324e-02 -7.048324e-02 0.9975 3489.2693 -801.0771)">
				<stop  offset="0" style="stop-color:#485654"/>
				<stop  offset="0.7039" style="stop-color:#8C959D"/>
				<stop  offset="1" style="stop-color:#9EA0A4"/>
			</linearGradient>
			<path class="st92" d="M662.3,412.4c0,0,22.3,32.1,20,68.8s-6.3,66.9-10.4,66.6c-4-0.3-1.9-34.1-3.3-48.6c-1.4-14.6-8.1-18-8.1-18
				L662.3,412.4z"/>
			
				<linearGradient id="SVGID_32_" gradientUnits="userSpaceOnUse" x1="-2739.2319" y1="1467.6643" x2="-2705.0063" y2="1489.3684" gradientTransform="matrix(0.9975 7.048324e-02 -7.048324e-02 0.9975 3489.2693 -801.0771)">
				<stop  offset="0" style="stop-color:#485654"/>
				<stop  offset="0.4218" style="stop-color:#FFFFFF"/>
				<stop  offset="1" style="stop-color:#9EA0A4"/>
			</linearGradient>
			<path class="st93" d="M682.3,481.1c2.3-36.7-20-68.8-20-68.8l0,0.6c3.3,5,21.6,34.5,19.5,68c-2.3,36.6-6.3,66.7-10.3,66.6
				c0.2,0.2,0.3,0.3,0.5,0.3C676,548.1,680,517.9,682.3,481.1z"/>
		</g>
		
			<linearGradient id="SVGID_33_" gradientUnits="userSpaceOnUse" x1="-2756.7678" y1="1339.0514" x2="-2689.0422" y2="1394.4991" gradientTransform="matrix(0.9975 7.048324e-02 -7.048324e-02 0.9975 3489.2693 -801.0771)">
			<stop  offset="0" style="stop-color:#5D5E61"/>
			<stop  offset="1" style="stop-color:#231F20"/>
		</linearGradient>
		<path class="st94" d="M706.7,363.9c-1.4,20.4-20.5,35.7-42.5,34.2c-22-1.6-38.7-19.4-37.3-39.8s20.5-35.7,42.5-34.2
			C691.5,325.6,708.2,343.5,706.7,363.9z"/>
		
			<linearGradient id="SVGID_34_" gradientUnits="userSpaceOnUse" x1="-2731.4187" y1="1397.1543" x2="-2734.9832" y2="1335.3698" gradientTransform="matrix(0.9975 7.048324e-02 -7.048324e-02 0.9975 3489.2693 -801.0771)">
			<stop  offset="0" style="stop-color:#485654"/>
			<stop  offset="0.7039" style="stop-color:#8C959D"/>
			<stop  offset="1" style="stop-color:#9EA0A4"/>
		</linearGradient>
		<path class="st95" d="M706.4,368c-1.4,20.4-20.5,35.7-42.5,34.2c-22-1.6-38.7-19.4-37.3-39.8c1.4-20.4,20.5-35.7,42.5-34.2
			S707.9,347.6,706.4,368z"/>
		
			<linearGradient id="SVGID_35_" gradientUnits="userSpaceOnUse" x1="-2767.6416" y1="1377.3242" x2="-2699.2378" y2="1377.3242" gradientTransform="matrix(0.9975 7.048324e-02 -7.048324e-02 0.9975 3489.2693 -801.0771)">
			<stop  offset="0" style="stop-color:#637E77"/>
			<stop  offset="1" style="stop-color:#637E77"/>
		</linearGradient>
		<path class="st96" d="M700.6,367.6c-1.2,17.5-17.5,30.5-36.3,29.2c-18.8-1.3-33.1-16.6-31.9-34c0-0.6,0.1-1.1,0.1-1.6
			c-0.2,16.7,13.8,31.1,32,32.4c18.2,1.3,34-11,36.2-27.6C700.7,366.5,700.7,367.1,700.6,367.6z"/>
		
			<linearGradient id="SVGID_36_" gradientUnits="userSpaceOnUse" x1="-2681.9578" y1="1343.3782" x2="-2775.4543" y2="1344.9718" gradientTransform="matrix(0.9975 7.048324e-02 -7.048324e-02 0.9975 3489.2693 -801.0771)">
			<stop  offset="0" style="stop-color:#485654"/>
			<stop  offset="0.5419" style="stop-color:#FFFFFF"/>
			<stop  offset="1" style="stop-color:#9EA0A4"/>
		</linearGradient>
		<path class="st97" d="M669.1,328.9c21.9,1.5,38.5,19.2,37.3,39.5c0-0.1,0-0.2,0-0.4c1.4-20.4-15.3-38.3-37.3-39.8
			c-22-1.6-41.1,13.7-42.5,34.2c0,0.1,0,0.3,0,0.4C628.2,342.5,647.2,327.4,669.1,328.9z"/>
		<path d="M700.7,365.9C700.7,366,700.7,366,700.7,365.9c-2.1,16.7-18,28.9-36.2,27.6c-18.2-1.3-32.2-15.6-32-32.4c0,0,0,0,0-0.1
			c2.1-16.6,18-28.8,36.2-27.6C687,334.8,700.9,349.2,700.7,365.9z"/>
		<g>
			<path class="st80" d="M681.5,374.7c0.1,0.1,0.2,0.1,0.3,0.2c1.6,0.9,2.1,2.7,1.5,4.1c-0.4,1-1.2,1.6-2.3,1.8
				c-0.2,0-0.5,0.1-0.7,0.1c-1.5,0.1-2.9,0.2-4.4,0.2c-0.1,0-0.1,0-0.2,0c-0.2-3.8-0.4-7.6-0.6-11.3c0.1,0,0.1,0,0.2,0
				c1.3-0.1,2.6-0.1,3.8-0.2c0.7,0,1.4,0.1,2,0.4c1.1,0.6,1.5,1.6,1.5,2.8C682.6,373.6,682.3,374.2,681.5,374.7
				C681.6,374.7,681.6,374.7,681.5,374.7z M676.7,375.6c0.1,1.5,0.2,2.9,0.2,4.4c0,0,0,0,0.1,0c0.6,0,1.3-0.1,1.9-0.1
				c0.5,0,1.1-0.1,1.6-0.1c0.9-0.1,1.5-0.7,1.6-1.5c0.3-1.5-0.9-2.9-2.4-2.9c-1,0-1.9,0.1-2.9,0.1
				C676.9,375.6,676.8,375.6,676.7,375.6z M676.7,374.4C676.7,374.4,676.7,374.4,676.7,374.4c1.1,0,2.1-0.1,3.1-0.2
				c1-0.1,1.6-0.7,1.7-1.6c0.1-1-0.5-1.7-1.4-2c-0.2,0-0.4-0.1-0.6-0.1c-1,0-1.9,0.1-2.9,0.1c0,0,0,0-0.1,0
				C676.5,372,676.6,373.2,676.7,374.4z"/>
			<path class="st80" d="M643.5,361.3c-0.2-3.8-0.4-7.6-0.6-11.4c0.1,0,0.1,0,0.2,0c1.1-0.1,2.2-0.1,3.2-0.2c0.7,0,1.5,0,2.2,0.3
				c1.3,0.4,2.1,1.3,2.6,2.5c0.6,1.7,0.8,3.5,0.4,5.2c-0.4,1.8-1.6,2.8-3.4,3.2c-0.4,0.1-0.8,0.1-1.2,0.2
				C645.7,361.2,644.6,361.2,643.5,361.3z M644.7,360.1c0.4,0,0.8,0,1.1-0.1c0.6,0,1.2-0.1,1.8-0.2c1.3-0.3,2.1-1,2.4-2.3
				c0.1-0.5,0.2-1.1,0.2-1.6c0-1-0.1-2-0.5-2.9c-0.6-1.4-1.6-2.2-3.2-2.2c-0.8,0-1.6,0.1-2.4,0.1c0,0-0.1,0-0.1,0
				C644.4,354,644.5,357,644.7,360.1z"/>
			<path class="st80" d="M660.1,382c-0.4,0-0.8,0-1.2,0.1c-0.1-1.8-0.2-3.6-0.3-5.4c-2.1,0.1-4.1,0.2-6.1,0.3
				c0.1,1.8,0.2,3.6,0.3,5.4c-0.4,0-0.9,0-1.3,0.1c-0.2-3.8-0.4-7.6-0.6-11.3c0.4,0,0.8,0,1.3-0.1c0.1,1.6,0.2,3.2,0.3,4.8
				c2.1-0.1,4.1-0.2,6.1-0.3c-0.1-1.6-0.2-3.2-0.3-4.8c0.4,0,0.8,0,1.2-0.1C659.7,374.4,659.9,378.2,660.1,382z"/>
			<path class="st80" d="M663,370.5c0.4,0,0.9,0,1.3-0.1c0,0.1,0,0.2,0,0.3c0.1,2.4,0.3,4.9,0.4,7.3c0.1,2.1,1.9,3,3.5,2.8
				c0.7-0.1,1.4-0.4,1.9-0.9c0.5-0.5,0.7-1.2,0.7-1.9c-0.1-2.5-0.3-5-0.4-7.6c0-0.1,0-0.2,0-0.3c0.4,0,0.8,0,1.3-0.1
				c0,0.1,0,0.2,0,0.2c0.1,2.5,0.2,5,0.4,7.5c0.1,1.8-0.9,3.5-3,4.1c-1.1,0.3-2.3,0.3-3.3-0.2c-1.4-0.6-2.2-1.7-2.3-3.2
				c-0.2-2.6-0.3-5.1-0.4-7.7C663,370.6,663,370.5,663,370.5z"/>
			<path class="st80" d="M664.8,360.1c-0.4,0-0.9,0-1.3,0.1c-0.1,0-0.1-0.1-0.2-0.1c-0.5-1-0.9-2-1.4-3.1c-0.1-0.2-0.2-0.2-0.4-0.2
				c-1.4,0.1-2.8,0.2-4.2,0.2c-0.1,0-0.2,0-0.3,0c-0.3,1-0.6,1.9-1,2.9c-0.1,0.2-0.1,0.5-0.3,0.6c-0.2,0.1-0.5,0.1-0.7,0.1
				c-0.2,0-0.4,0-0.6,0c0-0.1,0-0.1,0-0.2c1.3-3.8,2.5-7.5,3.8-11.3c0-0.1,0.1-0.2,0.3-0.2c0.3,0,0.5,0,0.8,0c0.2,0,0.2,0,0.3,0.2
				c0.9,2,1.8,4,2.8,6c0.7,1.6,1.5,3.1,2.2,4.7C664.7,359.9,664.8,360,664.8,360.1z M657.5,355.9c1.3-0.1,2.6-0.1,3.9-0.2
				c-0.7-1.6-1.5-3.2-2.2-4.8C658.6,352.5,658.1,354.2,657.5,355.9z"/>
			<path class="st80" d="M678.5,359.4c0.1-0.3,0.2-0.5,0.3-0.8c1.2-3.5,2.4-7.1,3.5-10.6c0.1-0.2,0.1-0.2,0.3-0.2c0.2,0,0.5,0,0.7,0
				c0.2,0,0.2,0,0.3,0.2c0.7,1.5,1.4,3,2.1,4.5c1,2.1,1.9,4.1,2.9,6.2c0,0.1,0.1,0.1,0.1,0.2c-0.4,0-0.9,0-1.3,0.1
				c-0.1,0-0.1-0.1-0.2-0.1c-0.4-0.9-0.8-1.8-1.2-2.7c-0.1-0.2-0.2-0.3-0.2-0.5c0-0.1-0.1-0.1-0.2-0.1c-1.5,0.1-2.9,0.2-4.3,0.2
				c-0.1,0-0.2,0.1-0.2,0.2c-0.3,1.1-0.7,2.1-1,3.2c-0.1,0.2-0.1,0.2-0.3,0.3C679.3,359.3,678.9,359.3,678.5,359.4z M683.1,349.5
				c-0.6,1.7-1.1,3.4-1.7,5c1.3-0.1,2.6-0.1,3.8-0.2C684.6,352.7,683.8,351.2,683.1,349.5z"/>
			<path class="st80" d="M675.5,349.2c-1.2,0.1-2.4,0.1-3.7,0.2c0.2,3.4,0.4,6.9,0.6,10.3c-0.4,0-0.9,0-1.3,0.1
				c-0.2-3.4-0.4-6.8-0.6-10.3c-1.2,0.1-2.5,0.1-3.7,0.2c0-0.4,0-0.7-0.1-1.1c2.9-0.2,5.7-0.3,8.6-0.5
				C675.4,348.5,675.4,348.8,675.5,349.2z"/>
		</g>
	</g>
</g>
</svg>
