<?xml version="1.0" encoding="utf-8"?>
<!-- Generator: Adobe Illustrator 25.0.1, SVG Export Plug-In . SVG Version: 6.00 Build 0)  -->
<svg version="1.1" xmlns="http://www.w3.org/2000/svg" xmlns:xlink="http://www.w3.org/1999/xlink" x="0px" y="0px"
	 viewBox="0 0 1080 1080" style="enable-background:new 0 0 1080 1080;" xml:space="preserve">
<style type="text/css">
	.st0{fill:none;stroke:#747678;stroke-width:8.2175;stroke-miterlimit:10;}
	.st1{fill:none;stroke:#747678;stroke-width:8.2175;stroke-miterlimit:10;stroke-dasharray:1.991300e-02,21.8084,10.9092,0;}
	
		.st2{fill:none;stroke:#747678;stroke-width:8.2175;stroke-miterlimit:10;stroke-dasharray:21.8183,10.8992,1.991300e-02,21.8084,10.9092,0;}
	.st3{fill:url(#SVGID_1_);}
	.st4{fill:url(#SVGID_2_);}
	.st5{fill:url(#SVGID_3_);}
	.st6{fill:url(#SVGID_4_);}
	.st7{fill:url(#SVGID_5_);}
	.st8{opacity:0.45;}
	.st9{fill:none;stroke:#231F20;stroke-width:4.619;stroke-miterlimit:10;}
	.st10{fill:none;stroke:#231F20;stroke-width:4.2487;stroke-miterlimit:10;}
	.st11{fill:none;stroke:#231F20;stroke-width:4.7724;stroke-miterlimit:10;}
	.st12{fill:none;stroke:#231F20;stroke-width:4.9798;stroke-miterlimit:10;}
	.st13{fill:none;stroke:#231F20;stroke-width:4.3657;stroke-miterlimit:10;}
	.st14{fill:url(#SVGID_6_);}
	.st15{fill:none;stroke:#485654;stroke-width:4.524;stroke-miterlimit:10;}
	.st16{fill:none;stroke:#485654;stroke-width:5.0504;stroke-miterlimit:10;}
	.st17{fill:none;stroke:#485654;stroke-width:4.0187;stroke-miterlimit:10;}
	.st18{opacity:0.72;fill:url(#SVGID_7_);}
	.st19{opacity:0.72;}
	.st20{opacity:0.72;fill:url(#SVGID_8_);}
	.st21{opacity:0.72;fill:url(#SVGID_9_);}
	.st22{opacity:0.72;fill:url(#SVGID_10_);}
	.st23{opacity:0.72;fill:url(#SVGID_11_);}
	.st24{opacity:0.72;fill:url(#SVGID_12_);}
	.st25{fill:url(#SVGID_13_);}
	.st26{fill:url(#SVGID_14_);}
	.st27{fill:url(#SVGID_15_);}
	.st28{fill:url(#SVGID_16_);}
	.st29{fill:#C4C6C8;}
	.st30{fill:url(#SVGID_17_);}
	.st31{fill:url(#SVGID_18_);}
	.st32{fill:#FFFFFF;}
	.st33{fill:#24292F;}
	.st34{fill:#FCFCFE;}
	.st35{opacity:0.35;}
	.st36{opacity:0;fill:#231F20;}
	.st37{opacity:1.960784e-02;fill:#231F20;}
	.st38{opacity:3.921569e-02;fill:#231F20;}
	.st39{opacity:5.882353e-02;fill:#231F20;}
	.st40{opacity:7.843138e-02;fill:#231F20;}
	.st41{opacity:9.803922e-02;fill:#231F20;}
	.st42{opacity:0.1176;fill:#231F20;}
	.st43{opacity:0.1373;fill:#231F20;}
	.st44{opacity:0.1569;fill:#231F20;}
	.st45{opacity:0.1765;fill:#231F20;}
	.st46{opacity:0.1961;fill:#231F20;}
	.st47{opacity:0.2157;fill:#231F20;}
	.st48{opacity:0.2353;fill:#231F20;}
	.st49{opacity:0.2549;fill:#231F20;}
	.st50{opacity:0.2745;fill:#231F20;}
	.st51{opacity:0.2941;fill:#231F20;}
	.st52{opacity:0.3137;fill:#231F20;}
	.st53{opacity:0.3333;fill:#231F20;}
	.st54{opacity:0.3529;fill:#231F20;}
	.st55{opacity:0.3725;fill:#231F20;}
	.st56{opacity:0.3922;fill:#231F20;}
	.st57{opacity:0.4118;fill:#231F20;}
	.st58{opacity:0.4314;fill:#231F20;}
	.st59{opacity:0.451;fill:#231F20;}
	.st60{opacity:0.4706;fill:#231F20;}
	.st61{opacity:0.4902;fill:#231F20;}
	.st62{opacity:0.5098;fill:#231F20;}
	.st63{opacity:0.5294;fill:#231F20;}
	.st64{opacity:0.549;fill:#231F20;}
	.st65{opacity:0.5686;fill:#231F20;}
	.st66{opacity:0.5882;fill:#231F20;}
	.st67{opacity:0.6078;fill:#231F20;}
	.st68{opacity:0.6275;fill:#231F20;}
	.st69{opacity:0.6471;fill:#231F20;}
	.st70{opacity:0.6667;fill:#231F20;}
	.st71{opacity:0.6863;fill:#231F20;}
	.st72{opacity:0.7059;fill:#231F20;}
	.st73{opacity:0.7255;fill:#231F20;}
	.st74{opacity:0.7451;fill:#231F20;}
	.st75{opacity:0.7647;fill:#231F20;}
	.st76{opacity:0.7843;fill:#231F20;}
	.st77{opacity:0.8039;fill:#231F20;}
	.st78{opacity:0.8235;fill:#231F20;}
	.st79{opacity:0.8431;fill:#231F20;}
	.st80{opacity:0.8627;fill:#231F20;}
	.st81{opacity:0.8824;fill:#231F20;}
	.st82{opacity:0.902;fill:#231F20;}
	.st83{opacity:0.9216;fill:#231F20;}
	.st84{opacity:0.9412;fill:#231F20;}
	.st85{opacity:0.9608;fill:#231F20;}
	.st86{opacity:0.9804;fill:#231F20;}
	.st87{fill:#231F20;}
</style>
<g id="Layer_1">
</g>
<g id="Step_2">
</g>
<g id="Step_3">
</g>
<g id="Step_4">
</g>
<g id="Layer_5">
</g>
<g id="Layer_6">
</g>
<g id="Layer_7">
</g>
<g id="Layer_8">
	<g>
		<g>
			<g>
				<g>
					<path class="st0" d="M339.8,618.6c0,0,1.3-0.6,3.6-1.5"/>
					<path class="st1" d="M347,615.8c2.9-1,6.7-2.1,11.1-3"/>
					<path class="st2" d="M358,612.9c25.2-5.4,71-5.9,101.1,48.2c43.3,78,62.1,184.4,181.6,185.4s128.7-176.2,24.4-177.6
						s-29.7,128.5,89,95.8c118.7-32.7,128.3-184,29.7-247.5c-97.2-62.5-38.6-150.4,46.4-174.2"/>
					<path class="st0" d="M830.1,342.9c1.2-0.3,2.5-0.7,3.7-1"/>
				</g>
			</g>
		</g>
		<g>
			<linearGradient id="SVGID_1_" gradientUnits="userSpaceOnUse" x1="595.7551" y1="580.3143" x2="286.2835" y2="538.8889">
				<stop  offset="0" style="stop-color:#5E6B69"/>
				<stop  offset="0.7039" style="stop-color:#858E8D"/>
				<stop  offset="1" style="stop-color:#B4B9BB"/>
			</linearGradient>
			<path class="st3" d="M588.5,558.9c0,55.8-30,104.6-74.6,131.2v0c-10.3,6.1-21.5,11.1-33.2,14.7c-14.1,4.4-29.2,6.7-44.7,6.7
				c-12.6,0-24.7-1.5-36.4-4.4c-19.8-4.8-38-13.5-53.9-25.2c-37.8-27.8-62.3-72.6-62.3-123c0-59.6,34.2-111.3,84-136.4
				c13.5-6.8,28.1-11.6,43.5-14.1c8.2-1.4,16.6-2.1,25.2-2.1c21,0,41,4.2,59.2,11.9c3.6,1.5,7.2,3.2,10.6,4.9
				C554.9,448.4,588.5,499.7,588.5,558.9z"/>
			<linearGradient id="SVGID_2_" gradientUnits="userSpaceOnUse" x1="305.3237" y1="481.649" x2="572.7612" y2="579.7295">
				<stop  offset="0" style="stop-color:#7D8589"/>
				<stop  offset="1" style="stop-color:#485654"/>
			</linearGradient>
			<path class="st4" d="M588.5,558.9c0,55.8-30,104.6-74.6,131.2l-15.8-13.7c0,0,18.9-6.6,21.5-7.4c-1.6-0.2-2.1-11.3-2.1-11.3
				l7.9-12.1l-15-4.3l-2.3-9.4l-10.2-8.1l21.1-11.5l6.3-10.9l-15-5.2l3.2-19.1l-18-4.4l-14.9-6V548h7.5l4-20.7l10.5,5.3l3.1-12.9
				h19.6l10.1-13.3l-10.1-11.3l10.1-19.1l-10.1-8l4.9-11.1l-24.5-28.4v-5.5C554.9,448.4,588.5,499.7,588.5,558.9z"/>
			<linearGradient id="SVGID_3_" gradientUnits="userSpaceOnUse" x1="288.5655" y1="527.3452" x2="556.0032" y2="625.4258">
				<stop  offset="0" style="stop-color:#7D8589"/>
				<stop  offset="1" style="stop-color:#485654"/>
			</linearGradient>
			<path class="st5" d="M391.9,634.9L379,654.7h-14.2l-4,6.5v6.9l-15.2,13.9c-37.8-27.8-62.3-72.6-62.3-123
				c0-59.6,34.2-111.3,84-136.4l3.9,2.6l-5.2,10.8v8.1l-5.2,5.7V468l1.1,10.4l-4.1,6.9l-11.8,9.9v13.8c0,0,3.2,13.9,5.3,14.3
				c2.1,0.3,2.8,4.1,2.8,4.1l6.6,7.3l10.4,11.5v10.5l13.6,9.9l-1.7,17l-4,3.5l-18.2,18l11.4,3.2l3.1,15.6l9.4,11.2H391.9z"/>
			<linearGradient id="SVGID_4_" gradientUnits="userSpaceOnUse" x1="325.4797" y1="426.6908" x2="592.9171" y2="524.7713">
				<stop  offset="0" style="stop-color:#7D8589"/>
				<stop  offset="1" style="stop-color:#485654"/>
			</linearGradient>
			<path class="st6" d="M506.4,466.8l-11.3,8.9l-3,10.7l-8.3,1.4l-3.2,15l-13.2-2.4l-10.6,8.6l-8.1,14.3h-7.7l-5.4-6l-13.4,0.7
				l-8.6,11.9l-7.2-17.6v-9.9l-23.5-7.3l13-10.5l10.5-13.2h4l7-4.9l-2.6-9.5l29.5-4.5l-6.3-9.2c0,0-19.1-2.5-20.6-0.4
				c-1.5,2,1.5-11.3,1.5-11.3h-17.7l4.6-17.2h4.6l0.2-6c8.2-1.4,16.6-2.1,25.2-2.1c21,0,41,4.2,59.2,11.9l10.6,10.4l-3.3,23.9
				L506.4,466.8z"/>
			<linearGradient id="SVGID_5_" gradientUnits="userSpaceOnUse" x1="258.5873" y1="609.0873" x2="526.0255" y2="707.168">
				<stop  offset="0" style="stop-color:#7D8589"/>
				<stop  offset="1" style="stop-color:#485654"/>
			</linearGradient>
			<path class="st7" d="M464.6,693.4l16,11.5c-14.1,4.4-29.2,6.7-44.7,6.7c-12.6,0-24.7-1.5-36.4-4.4l15.4-8.2l-4.4-17.1l7-25.2
				l4.8-4.9c0,0,1.9,0,7.7,0c5.9,0,26.9,0,26.9,0h7.7l4.5-12l11.6,11.3v6.3l-3.2,7.6l7.8,7.9h-12l-8.7,9h-8.7L464.6,693.4z"/>
			<g class="st8">
				<ellipse class="st9" cx="435.9" cy="425.2" rx="21" ry="10.8"/>
				<line class="st9" x1="435.9" y1="435.9" x2="435.9" y2="711.6"/>
				<path class="st9" d="M414.9,428.6c0,0-73.3,31.4-79,137.2c-6,111.4,86.4,145.7,86.4,145.7"/>
				<path class="st10" d="M430,711.4c0,0-38.2-41.8-45.5-116.5C373.6,484,425,433.7,425,433.7"/>
				<path class="st9" d="M419.9,418.2c0,0-91.6,8.9-113.6,102.5c-23.1,98.1,43.6,171,104.2,188.8"/>
				<path class="st9" d="M456.2,428.6c0,0,73.3,31.4,79,137.2c6,111.4-86.4,145.7-86.4,145.7"/>
				<path class="st10" d="M441.1,711.4c0,0,38.2-41.8,45.5-116.5C497.5,484,446,433.7,446,433.7"/>
				<path class="st9" d="M451.2,418.2c0,0,91.6,8.9,113.6,102.5c23.1,98.1-43.6,171-104.2,188.8"/>
				<path class="st9" d="M429,414.4c0,0-8.1-3.3-23-5.2"/>
				<path class="st9" d="M444.4,414.4c0,0,8.1-3.3,23-5.2"/>
				<line class="st9" x1="435.9" y1="414.4" x2="435.9" y2="406.3"/>
				<path class="st11" d="M525.3,435.6c-0.7,3.3-1.8,6.6-3.1,9.7c-11.6,26.7-45.9,46.1-86.3,46.1c-39.7,0-73.4-18.6-85.7-44.6
					c-2-4.2-3.4-8.6-4.2-13.2"/>
				<path class="st12" d="M575.4,495.2c-28.5,44.9-80.3,74.9-139.5,74.9c-58.8,0-110.4-29.7-139-74.2"/>
				<path class="st13" d="M588.5,568.5c-39.1,34.2-93.1,55.3-152.7,55.3c-59.3,0-113.1-21-152.2-54.9"/>
				<path class="st13" d="M564.4,644.8c-36.8,25.5-81,40.4-128.6,40.4c-45.6,0-88.2-13.7-124-37.4"/>
			</g>
		</g>
		<g>
			<g>
				
					<linearGradient id="SVGID_6_" gradientUnits="userSpaceOnUse" x1="1745.8843" y1="1123.7987" x2="1529.9846" y2="974.9591" gradientTransform="matrix(1 0 0 1 -1184.0188 -469.559)">
					<stop  offset="0" style="stop-color:#8C959D"/>
					<stop  offset="0.7039" style="stop-color:#C4C6C8"/>
					<stop  offset="1" style="stop-color:#D2D5D4"/>
				</linearGradient>
				<path class="st14" d="M595.3,567c0,79.5-58,145.5-134.1,157.9c-0.2,0-0.4,0.1-0.6,0.1c-8.3,1.3-16.7,2-25.3,2
					c-34.5,0-66.4-10.9-92.6-29.5c-6.9-4.9-13.4-10.3-19.4-16.2c-29.6-29-48-69.5-48-114.3c0-67,41.1-124.3,99.5-148.2
					c18.7-7.6,39.1-11.8,60.5-11.8c37.2,0,71.5,12.7,98.6,34h0C571.3,470.3,595.3,515.9,595.3,567z"/>
				<ellipse class="st15" cx="435.3" cy="434.7" rx="22.1" ry="11.8"/>
				<line class="st15" x1="435.3" y1="446.5" x2="435.3" y2="727"/>
				<g>
					<path class="st16" d="M424.7,445c0,0-21,20.8-31.9,60.4c-20.3,74-12.6,159.8,36.8,220.5"/>
					<path class="st16" d="M423.7,727c0,0-39-18.8-65.6-56.6c-41.3-58.5-65.5-163.7,56.4-231.9"/>
					<path class="st15" d="M419.2,426.6c0,0-92.1-6.8-127.6,88.1c-45.4,121.4,73.4,196,73.4,196"/>
					<path class="st15" d="M428.8,424c0,0-11.9-8.5-41-10"/>
				</g>
				<g>
					<path class="st16" d="M447.1,445c0,0,21,20.8,31.9,60.4c20.3,74,12.6,159.8-36.8,220.5"/>
					<path class="st16" d="M448.1,727c0,0,39-18.8,65.6-56.6c41.3-58.5,65.5-163.7-56.4-231.9"/>
					<path class="st15" d="M452.6,426.6c0,0,92.1-6.8,127.6,88.1c45.4,121.4-73.4,196-73.4,196"/>
					<path class="st15" d="M443,424c0,0,11.9-8.5,41-10"/>
				</g>
				<line class="st15" x1="435.3" y1="422.9" x2="435.3" y2="407"/>
				<path class="st17" d="M546.5,453c0.5,2.8,0.8,5.6,0.8,8.4c0,37.9-50.2,68.6-112,68.6c-61.9,0-112-30.7-112-68.6
					c0-3.3,0.4-6.5,1.1-9.6"/>
				<path class="st15" d="M587.1,516.3c-21.2,45.9-81.2,78.9-151.8,78.9c-70.7,0-130.6-33.1-151.8-78.9"/>
				<path class="st15" d="M565.7,659.4c-29,29.4-76.6,48.5-130.3,48.5c-58.7,0-109.9-22.8-137.8-56.8"/>
				<path class="st15" d="M593.4,592.5c-37.2,40.9-94.2,67.1-158.1,67.1c-63.8,0-120.7-26.1-157.9-66.9"/>
				<path class="st17" d="M511.7,426.3c1,2.7,1.6,5.5,1.6,8.4c0,23-34.9,41.6-78,41.6c-43.1,0-78-18.6-78-41.6
					c0-2.8,0.5-5.6,1.5-8.3"/>
			</g>
			
				<linearGradient id="SVGID_7_" gradientUnits="userSpaceOnUse" x1="1771.5414" y1="1088.1255" x2="1659.8899" y2="1044.1169" gradientTransform="matrix(1 0 0 1 -1184.0188 -469.559)">
				<stop  offset="0" style="stop-color:#231F20"/>
				<stop  offset="1" style="stop-color:#A3A5A8"/>
			</linearGradient>
			<path class="st18" d="M595.3,567c0,79.7-58.3,145.9-134.7,158l22.3-14.2c0,0,9.3-4.1,12.5-6.5c3.2-2.4,15.8-3.2,15.8-3.2l15.4-19
				l7.3-2.5l9.7-7.2l3.8-5.7l-1.7-7.1l-3.2-3.4c0,0,8.1-4.4,8.1-5s1.6-9.2,2-10.8c0.4-1.6,3.6-9.3,3.6-9.3l-4.5-12.1
				c0,0-7.3,1.2-8.9,1.6c-1.6,0.4-6.3,7.1-6.3,7.1L525,629c0,0-6.9,0.4-9.7,0c-2.8-0.4-6.9,2.8-6.9,2.8l-6.9,5.3l-3.8-6.9l-3.1-6.5
				l-5.2-4v-2.8l2.8-9l-3.1-12.5l-3.4-8.6l3.7-8.7l2.4-4.1h2.8c0,0,1.6-4.1,3.1-7c1.5-2.9-4.7-3.2-4.7-3.2l-4.9-8h13.8
				c0,0,3.6-6.1,3.6-8.2c0-2,0,0-5.3-2.8c-5.3-2.8-4.9-4.1-4.9-4.1l10.1-5.3l20.7-5.5l4.4-7.4l2.4-1.7l5.1,1.7l7.4-2.5
				c0,0,2-5.3,1.7-6.9c-0.3-1.6,5.2-2.4,5.2-2.4l5.7-2.8l-3.7-7.3l-4.5-8.1l-6.5,4.9h-3.2l-2.8-3.6l-3.6-9.3l-3.8-5.3l3.8-7.7v-6.9
				l-3.8-4.1h-3.8v-7.3l3.8-2.1l-3.8-4.9l7.7-5.4h0C571.3,470.3,595.3,515.9,595.3,567z"/>
			<g class="st19">
				
					<linearGradient id="SVGID_8_" gradientUnits="userSpaceOnUse" x1="1718.7988" y1="1124.3562" x2="1510.8352" y2="1007.0432" gradientTransform="matrix(1 0 0 1 -1184.0188 -469.559)">
					<stop  offset="0" style="stop-color:#231F20"/>
					<stop  offset="1" style="stop-color:#A3A5A8"/>
				</linearGradient>
				<path class="st20" d="M468.8,509.3l-11.5,7l-4.8,4l-2.1,6.3l-7.5,6.8h-3.6l-7.8,3.1l-7.9,7.9l-10.4-5.8l-13.7-12.3l-17.2,3.6
					h-22.7l6.3,14.5l2.6,2.6h-11.3l-12.9,8.7l-7.9,4.4l-22.6,0l-10,13.1v3.7l-6.5,12.6v13.1l1.1,35c0,0,4.8,8.6,6.1,10.7
					c1.3,2.1,19.6,31,19.6,31l-1.1,1.8c-29.6-29-48-69.5-48-114.3c0-67,41.1-124.3,99.5-148.2l1.6,7.7l5.9,4.3l-4.2,10.1l-14.4,10.3
					l4.3,4.5l-4.3,8.4v5.3l3.9,3.3l5.4,13.5l7,4.6h5.3l2.4,4.3l25.5,0l6,6.3c0,0,13.7,0,16.2,0c2.5,0,12.7-2.6,12.7-2.6l4.4,7.4
					L468.8,509.3z"/>
				
					<linearGradient id="SVGID_9_" gradientUnits="userSpaceOnUse" x1="1779.4615" y1="1016.8179" x2="1571.4979" y2="899.5049" gradientTransform="matrix(1 0 0 1 -1184.0188 -469.559)">
					<stop  offset="0" style="stop-color:#231F20"/>
					<stop  offset="1" style="stop-color:#A3A5A8"/>
				</linearGradient>
				<path class="st21" d="M514.7,487.5l-6.8,3.3l-3.4,5h-6.7l-2.7,2.9h-10.2c0,0,2.6,5.8,4.6,5.8c2,0-4.6,1.6-4.6,1.6s3.9,3.9,6,3.7
					c2.1-0.3,6.3-2.9,8.9-3.7c2.6-0.8,14.9,2.6,14.9,2.6s2.2-0.2,4.1-1.5c1.9-1.3,3.1-5,4.8-3.5c1.8,1.4,3.8,3.5,6.5,2.3
					c2.6-1.1,6.3-3.5,6.3-3.5l-3.5-7.3l-8.3-4.2l0.3-5.4l-5.2,2.1H514.7z"/>
				
					<linearGradient id="SVGID_10_" gradientUnits="userSpaceOnUse" x1="1711.2524" y1="1137.7339" x2="1503.2887" y2="1020.4208" gradientTransform="matrix(1 0 0 1 -1184.0188 -469.559)">
					<stop  offset="0" style="stop-color:#231F20"/>
					<stop  offset="1" style="stop-color:#A3A5A8"/>
				</linearGradient>
				<path class="st22" d="M517.3,639.6l-6.6,2.6l-2.7,5.5l-2,8.8l-8.1,3l5.9,4.4l-11.4,7.4h5.5c0,0,3.7-2.6,3.7,0s0.4,6.6,0.4,6.6
					l8.8-3.2c0,0,10.4-5.2,10.9-7.1s2.4-8.1,2.4-8.1s1.5-4.1,4.1-5.2c2.5-1.1,5.1-7,5.1-7l-8.5-2.2L517.3,639.6z"/>
				
					<linearGradient id="SVGID_11_" gradientUnits="userSpaceOnUse" x1="1686.0416" y1="1182.4258" x2="1478.0782" y2="1065.1129" gradientTransform="matrix(1 0 0 1 -1184.0188 -469.559)">
					<stop  offset="0" style="stop-color:#231F20"/>
					<stop  offset="1" style="stop-color:#A3A5A8"/>
				</linearGradient>
				<path class="st23" d="M457.4,717.4l3.9,7.5c-0.2,0-0.4,0.1-0.6,0.1c-8.3,1.3-16.7,2-25.3,2c-34.5,0-66.4-10.9-92.6-29.5
					c5-5.2,9.8-13.3,9.8-13.3s-1.6-7-2.3-8.1c-0.7-1.1,6-8.3,6-8.3l7.3-8.3l12.5,3.6c0,0,9.1-1.1,12.5-4.4c3.4-3.3,2.4-9.6,2.4-9.6
					l0.2-7.7l6.7-6.6c0,0,6.7-0.4,8.2-1.5c1.4-1.1,7.3-11.1,7.3-11.1l6-4.4l4.4-10l3.7-6.6l8,4.4l8.6-1.1l10.7,7.7l-6.5,10.7
					l10.9,5.9c0,0-1.1,7.8-1.7,8.9c-0.5,1.1-9.2,8.8-9.2,8.8s-9.7,4.1-9,6.3c0.8,2.2,5.5,10,5.5,10l3.5,5.2l-9,13.3l3,8.8l6,3
					l10.9,0.7l6.8,2.6l-10.6,11.5L457.4,717.4z"/>
			</g>
		</g>
		<g>
			
				<linearGradient id="SVGID_12_" gradientUnits="userSpaceOnUse" x1="1617.7665" y1="-636.5825" x2="1709.9259" y2="-636.5825" gradientTransform="matrix(0.9471 0.3209 -0.3209 0.9471 -938.6231 400.4251)">
				<stop  offset="0" style="stop-color:#231F20"/>
				<stop  offset="1" style="stop-color:#A3A5A8"/>
			</linearGradient>
			<polygon class="st24" points="771.4,394.6 911.5,268.3 798.6,348.8 			"/>
			
				<linearGradient id="SVGID_13_" gradientUnits="userSpaceOnUse" x1="1518.9841" y1="-647.7637" x2="1709.9259" y2="-647.7637" gradientTransform="matrix(0.9471 0.3209 -0.3209 0.9471 -938.6231 400.4251)">
				<stop  offset="0" style="stop-color:#E9E9EA"/>
				<stop  offset="1" style="stop-color:#C4C6C8"/>
			</linearGradient>
			<polygon class="st25" points="709.9,268.5 854.2,399 911.5,268.3 			"/>
			
				<linearGradient id="SVGID_14_" gradientUnits="userSpaceOnUse" x1="1587.6528" y1="-635.5743" x2="1709.9259" y2="-635.5743" gradientTransform="matrix(0.9471 0.3209 -0.3209 0.9471 -938.6231 400.4251)">
				<stop  offset="0" style="stop-color:#E9E9EA"/>
				<stop  offset="1" style="stop-color:#C4C6C8"/>
			</linearGradient>
			<polygon class="st26" points="911.5,268.3 765.3,318.7 770.4,396.4 798.6,348.8 			"/>
		</g>
		<g>
			<g>
				<linearGradient id="SVGID_15_" gradientUnits="userSpaceOnUse" x1="542.9866" y1="497.858" x2="606.6166" y2="594.5903">
					<stop  offset="0" style="stop-color:#A3A5A8"/>
					<stop  offset="1" style="stop-color:#E6E7E8"/>
				</linearGradient>
				<path class="st27" d="M534.6,469.5l88.6,45.7c7.9,4.1,12.8,12.2,12.8,21.1v88.2c0,7.3-10.4,15.8-16.8,12.5L533,587.3
					c-7.7-4-12.5-11.9-12.5-20.6l-5.4-86.6C515.1,472.9,528.1,466.2,534.6,469.5z"/>
				<linearGradient id="SVGID_16_" gradientUnits="userSpaceOnUse" x1="546.019" y1="597.2555" x2="597.0693" y2="513.4524">
					<stop  offset="0" style="stop-color:#E6E7E8"/>
					<stop  offset="1" style="stop-color:#FEFEFE"/>
				</linearGradient>
				<path class="st28" d="M528.6,472.4l88.6,45.7c7.9,4.1,12.8,12.2,12.8,21.1v88.2c0,7.3-7.7,11.9-14.1,8.6l-88.8-45.8
					c-7.7-4-12.5-11.9-12.5-20.6V481C514.5,473.8,522.2,469.1,528.6,472.4z"/>
			</g>
			<g>
				<path class="st29" d="M617.2,548.6l-89.6-44.8c-1.1-0.5-2-1.8-2-2.9l0,0c0-1.1,0.9-1.5,2-1l89.6,44.8c1.1,0.5,2,1.8,2,2.9l0,0
					C619.2,548.7,618.3,549.2,617.2,548.6z"/>
				<path class="st29" d="M617.2,559.5l-89.6-44.8c-1.1-0.5-2-1.8-2-2.9v0c0-1.1,0.9-1.5,2-1l89.6,44.8c1.1,0.5,2,1.8,2,2.9l0,0
					C619.2,559.6,618.3,560,617.2,559.5z"/>
				<path class="st29" d="M617.2,570.3l-89.6-44.8c-1.1-0.5-2-1.8-2-2.9l0,0c0-1.1,0.9-1.5,2-1l89.6,44.8c1.1,0.5,2,1.8,2,2.9l0,0
					C619.2,570.4,618.3,570.9,617.2,570.3z"/>
				<path class="st29" d="M617.2,581.2l-89.6-44.8c-1.1-0.5-2-1.8-2-2.9l0,0c0-1.1,0.9-1.5,2-1l89.6,44.8c1.1,0.5,2,1.8,2,2.9l0,0
					C619.2,581.3,618.3,581.7,617.2,581.2z"/>
				<path class="st29" d="M617.2,592l-89.6-44.8c-1.1-0.5-2-1.8-2-2.9l0,0c0-1.1,0.9-1.5,2-1l89.6,44.8c1.1,0.5,2,1.8,2,2.9l0,0
					C619.2,592.1,618.3,592.6,617.2,592z"/>
				<path class="st29" d="M617.2,602.9l-89.6-44.8c-1.1-0.5-2-1.8-2-2.9l0,0c0-1.1,0.9-1.5,2-1l89.6,44.8c1.1,0.5,2,1.8,2,2.9l0,0
					C619.2,603,618.3,603.4,617.2,602.9z"/>
				<path class="st29" d="M617.2,613.7L527.7,569c-1.1-0.5-2-1.8-2-2.9l0,0c0-1.1,0.9-1.5,2-1l89.6,44.8c1.1,0.5,2,1.8,2,2.9l0,0
					C619.2,613.8,618.3,614.3,617.2,613.7z"/>
			</g>
		</g>
		<g>
			<g>
				<linearGradient id="SVGID_17_" gradientUnits="userSpaceOnUse" x1="514.5773" y1="362.3728" x2="606.4922" y2="358.2877">
					<stop  offset="4.102398e-07" style="stop-color:#FB923C"/>
					<stop  offset="1" style="stop-color:#F5B419"/>
				</linearGradient>
				<path class="st30" d="M630.6,340.1c0-24.7-29-44.7-64.8-44.7c-35.8,0-64.8,20-64.8,44.7c0,20.8,20.6,38.2,48.5,43.2
					c0.8,5.9,1.1,14-1.8,21.5c-5.3,13.9-9.4,17.3-9.4,17.3s1.2,5,4.7,3.6c6.3-2.6,17.8-13.7,26.6-23.2c6-6.5,8.9-13.2,10.3-18.8
					C608.9,379.3,630.6,361.5,630.6,340.1z"/>
				<linearGradient id="SVGID_18_" gradientUnits="userSpaceOnUse" x1="514.6564" y1="364.1507" x2="606.5712" y2="360.0656">
					<stop  offset="4.102398e-07" style="stop-color:#FB923C"/>
					<stop  offset="1" style="stop-color:#F5B419"/>
				</linearGradient>
				<path class="st31" d="M635.3,343.7c0-24.7-29-44.7-64.8-44.7c-35.8,0-64.8,20-64.8,44.7c0,20.8,20.6,38.2,48.5,43.2
					c0.8,5.9,1.1,14-1.8,21.5c-5.3,13.9-9.4,17.3-9.4,17.3s17.7-4.9,31.3-19.6c6-6.5,8.9-13.2,10.3-18.8
					C613.5,382.9,635.3,365.1,635.3,343.7z"/>
			</g>
			<g>
				<path class="st32" d="M565.2,354.2c0-0.7,0-1.2,0-1.6c0-2.1,0.3-3.8,0.9-5.3c0.4-1.1,1.1-2.3,2.1-3.4c0.7-0.8,2-2.1,3.8-3.7
					s3-2.9,3.5-3.8c0.5-1,0.8-2,0.8-3.1c0-2-0.8-3.8-2.4-5.4c-1.6-1.5-3.6-2.3-5.9-2.3c-2.2,0-4.1,0.7-5.6,2.1
					c-1.5,1.4-2.5,3.6-3,6.6l-5.4-0.6c0.5-4,1.9-7.1,4.3-9.2c2.4-2.1,5.6-3.2,9.5-3.2c4.2,0,7.5,1.1,10,3.4c2.5,2.3,3.7,5,3.7,8.3
					c0,1.9-0.4,3.6-1.3,5.2c-0.9,1.6-2.6,3.5-5.1,5.8c-1.7,1.5-2.8,2.6-3.4,3.4s-0.9,1.5-1.2,2.5c-0.3,0.9-0.4,2.5-0.4,4.6H565.2z
					 M564.9,364.7v-6h6v6H564.9z"/>
			</g>
		</g>
		<g>
			<g>
				<path class="st33" d="M298.1,450.2c0-24.7-29-44.7-64.8-44.7s-64.8,20-64.8,44.7c0,17.9,15.2,33.2,37.2,40.4
					c-0.2,4.9,0.1,11,2.2,18.3c5.7,20.3,33.5,36.1,33.5,36.1s-17.8-28.8-4.6-50.2C270.9,493.6,298.1,474.1,298.1,450.2z"/>
				<path class="st33" d="M303.4,453.8c0-24.7-29-44.7-64.8-44.7s-64.8,20-64.8,44.7c0,17.9,15.2,33.2,37.2,40.4
					c-0.2,4.9,0.1,11,2.2,18.3c5.7,20.3,33.5,36.1,33.5,36.1s-17.8-28.8-4.6-50.2C276.2,497.1,303.4,477.7,303.4,453.8z"/>
			</g>
			<g>
				<circle class="st34" cx="220.5" cy="451.4" r="3.9"/>
				<circle class="st34" cx="234.6" cy="451.4" r="3.9"/>
				<circle class="st34" cx="248.6" cy="451.4" r="3.9"/>
			</g>
		</g>
		<g class="st35">
			
				<ellipse transform="matrix(4.302964e-02 -0.9991 0.9991 4.302964e-02 -346.5221 1125.8917)" class="st36" cx="414.5" cy="743.8" rx="52.2" ry="137.9"/>
			
				<ellipse transform="matrix(4.308572e-02 -0.9991 0.9991 4.308572e-02 -345.6754 1125.649)" class="st37" cx="414.8" cy="743.3" rx="51.5" ry="136.2"/>
			
				<ellipse transform="matrix(4.314321e-02 -0.9991 0.9991 4.314321e-02 -344.8292 1125.4054)" class="st38" cx="415.1" cy="742.7" rx="50.8" ry="134.5"/>
			
				<ellipse transform="matrix(4.320217e-02 -0.9991 0.9991 4.320217e-02 -343.9836 1125.1606)" class="st39" cx="415.4" cy="742.2" rx="50.2" ry="132.7"/>
			
				<ellipse transform="matrix(4.326264e-02 -0.9991 0.9991 4.326264e-02 -343.1386 1124.9149)" class="st40" cx="415.8" cy="741.6" rx="49.5" ry="131"/>
			
				<ellipse transform="matrix(4.332469e-02 -0.9991 0.9991 4.332469e-02 -342.2943 1124.668)" class="st41" cx="416.1" cy="741.1" rx="48.8" ry="129.3"/>
			
				<ellipse transform="matrix(4.338839e-02 -0.9991 0.9991 4.338839e-02 -341.4507 1124.4198)" class="st42" cx="416.4" cy="740.5" rx="48.1" ry="127.6"/>
			
				<ellipse transform="matrix(4.345379e-02 -0.9991 0.9991 4.345379e-02 -340.6077 1124.1704)" class="st43" cx="416.8" cy="740" rx="47.4" ry="125.8"/>
			
				<ellipse transform="matrix(4.352096e-02 -0.9991 0.9991 4.352096e-02 -339.7655 1123.9198)" class="st44" cx="417.1" cy="739.4" rx="46.7" ry="124.1"/>
			
				<ellipse transform="matrix(4.358999e-02 -0.999 0.999 4.358999e-02 -338.924 1123.6678)" class="st45" cx="417.4" cy="738.9" rx="46" ry="122.4"/>
			
				<ellipse transform="matrix(4.366094e-02 -0.999 0.999 4.366094e-02 -338.0834 1123.4146)" class="st46" cx="417.7" cy="738.3" rx="45.4" ry="120.7"/>
			
				<ellipse transform="matrix(4.373391e-02 -0.999 0.999 4.373391e-02 -337.2435 1123.1598)" class="st47" cx="418.1" cy="737.7" rx="44.7" ry="119"/>
			
				<ellipse transform="matrix(4.380897e-02 -0.999 0.999 4.380897e-02 -336.4045 1122.9034)" class="st48" cx="418.4" cy="737.2" rx="44" ry="117.2"/>
			
				<ellipse transform="matrix(4.388621e-02 -0.999 0.999 4.388621e-02 -335.5664 1122.6456)" class="st49" cx="418.7" cy="736.6" rx="43.3" ry="115.5"/>
			
				<ellipse transform="matrix(4.396575e-02 -0.999 0.999 4.396575e-02 -334.7292 1122.3861)" class="st50" cx="419.1" cy="736.1" rx="42.6" ry="113.8"/>
			
				<ellipse transform="matrix(4.404767e-02 -0.999 0.999 4.404767e-02 -333.8931 1122.1249)" class="st51" cx="419.4" cy="735.5" rx="41.9" ry="112.1"/>
			
				<ellipse transform="matrix(4.413209e-02 -0.999 0.999 4.413209e-02 -333.0579 1121.8618)" class="st52" cx="419.7" cy="735" rx="41.3" ry="110.4"/>
			
				<ellipse transform="matrix(4.421913e-02 -0.999 0.999 4.421913e-02 -332.2238 1121.5969)" class="st53" cx="420.1" cy="734.4" rx="40.6" ry="108.6"/>
			
				<ellipse transform="matrix(4.430889e-02 -0.999 0.999 4.430889e-02 -331.3908 1121.3301)" class="st54" cx="420.4" cy="733.9" rx="39.9" ry="106.9"/>
			
				<ellipse transform="matrix(4.440153e-02 -0.999 0.999 4.440153e-02 -330.559 1121.0612)" class="st55" cx="420.7" cy="733.3" rx="39.2" ry="105.2"/>
			
				<ellipse transform="matrix(4.449718e-02 -0.999 0.999 4.449718e-02 -329.7284 1120.79)" class="st56" cx="421" cy="732.8" rx="38.5" ry="103.5"/>
			
				<ellipse transform="matrix(4.459598e-02 -0.999 0.999 4.459598e-02 -328.8991 1120.5166)" class="st57" cx="421.4" cy="732.2" rx="37.8" ry="101.7"/>
			
				<ellipse transform="matrix(4.469810e-02 -0.999 0.999 4.469810e-02 -328.0711 1120.2408)" class="st58" cx="421.7" cy="731.7" rx="37.2" ry="100"/>
			
				<ellipse transform="matrix(4.480370e-02 -0.999 0.999 4.480370e-02 -327.2446 1119.9626)" class="st59" cx="422" cy="731.1" rx="36.5" ry="98.3"/>
			
				<ellipse transform="matrix(4.491298e-02 -0.999 0.999 4.491298e-02 -326.4196 1119.6818)" class="st60" cx="422.4" cy="730.6" rx="35.8" ry="96.6"/>
			
				<ellipse transform="matrix(4.502611e-02 -0.999 0.999 4.502611e-02 -325.5961 1119.3981)" class="st61" cx="422.7" cy="730" rx="35.1" ry="94.9"/>
			
				<ellipse transform="matrix(4.514331e-02 -0.999 0.999 4.514331e-02 -324.7743 1119.1115)" class="st62" cx="423" cy="729.4" rx="34.4" ry="93.1"/>
			
				<ellipse transform="matrix(4.526481e-02 -0.999 0.999 4.526481e-02 -323.9543 1118.8217)" class="st63" cx="423.4" cy="728.9" rx="33.7" ry="91.4"/>
			
				<ellipse transform="matrix(4.539085e-02 -0.999 0.999 4.539085e-02 -323.1361 1118.5287)" class="st64" cx="423.7" cy="728.3" rx="33" ry="89.7"/>
			
				<ellipse transform="matrix(4.552168e-02 -0.999 0.999 4.552168e-02 -322.3198 1118.2323)" class="st65" cx="424" cy="727.8" rx="32.4" ry="88"/>
			
				<ellipse transform="matrix(4.565758e-02 -0.999 0.999 4.565758e-02 -321.5056 1117.9323)" class="st66" cx="424.3" cy="727.2" rx="31.7" ry="86.3"/>
			
				<ellipse transform="matrix(4.579886e-02 -0.999 0.999 4.579886e-02 -320.6937 1117.6283)" class="st67" cx="424.7" cy="726.7" rx="31" ry="84.5"/>
			
				<ellipse transform="matrix(4.594583e-02 -0.9989 0.9989 4.594583e-02 -319.884 1117.3202)" class="st68" cx="425" cy="726.1" rx="30.3" ry="82.8"/>
			
				<ellipse transform="matrix(4.609887e-02 -0.9989 0.9989 4.609887e-02 -319.0768 1117.0078)" class="st69" cx="425.3" cy="725.6" rx="29.6" ry="81.1"/>
			
				<ellipse transform="matrix(4.625833e-02 -0.9989 0.9989 4.625833e-02 -318.2722 1116.6907)" class="st70" cx="425.7" cy="725" rx="28.9" ry="79.4"/>
			
				<ellipse transform="matrix(4.642465e-02 -0.9989 0.9989 4.642465e-02 -317.4703 1116.3687)" class="st71" cx="426" cy="724.5" rx="28.3" ry="77.6"/>
			
				<ellipse transform="matrix(4.659827e-02 -0.9989 0.9989 4.659827e-02 -316.6715 1116.0414)" class="st72" cx="426.3" cy="723.9" rx="27.6" ry="75.9"/>
			
				<ellipse transform="matrix(4.677968e-02 -0.9989 0.9989 4.677968e-02 -315.8758 1115.7085)" class="st73" cx="426.7" cy="723.4" rx="26.9" ry="74.2"/>
			
				<ellipse transform="matrix(4.696943e-02 -0.9989 0.9989 4.696943e-02 -315.0835 1115.3696)" class="st74" cx="427" cy="722.8" rx="26.2" ry="72.5"/>
			
				<ellipse transform="matrix(4.716810e-02 -0.9989 0.9989 4.716810e-02 -314.2948 1115.0243)" class="st75" cx="427.3" cy="722.3" rx="25.5" ry="70.8"/>
			
				<ellipse transform="matrix(4.737633e-02 -0.9989 0.9989 4.737633e-02 -313.5099 1114.6721)" class="st76" cx="427.6" cy="721.7" rx="24.8" ry="69"/>
			
				<ellipse transform="matrix(4.759484e-02 -0.9989 0.9989 4.759484e-02 -312.7293 1114.3125)" class="st77" cx="428" cy="721.1" rx="24.1" ry="67.3"/>
			
				<ellipse transform="matrix(4.782440e-02 -0.9989 0.9989 4.782440e-02 -311.9531 1113.9448)" class="st78" cx="428.3" cy="720.6" rx="23.5" ry="65.6"/>
			
				<ellipse transform="matrix(4.806589e-02 -0.9988 0.9988 4.806589e-02 -311.1817 1113.5686)" class="st79" cx="428.6" cy="720" rx="22.8" ry="63.9"/>
			
				<ellipse transform="matrix(4.832024e-02 -0.9988 0.9988 4.832024e-02 -310.4156 1113.1831)" class="st80" cx="429" cy="719.5" rx="22.1" ry="62.2"/>
			
				<ellipse transform="matrix(4.858853e-02 -0.9988 0.9988 4.858853e-02 -309.6551 1112.7875)" class="st81" cx="429.3" cy="718.9" rx="21.4" ry="60.4"/>
			
				<ellipse transform="matrix(4.887194e-02 -0.9988 0.9988 4.887194e-02 -308.9006 1112.381)" class="st82" cx="429.6" cy="718.4" rx="20.7" ry="58.7"/>
			
				<ellipse transform="matrix(4.917177e-02 -0.9988 0.9988 4.917177e-02 -308.1528 1111.9626)" class="st83" cx="429.9" cy="717.8" rx="20" ry="57"/>
			
				<ellipse transform="matrix(4.948951e-02 -0.9988 0.9988 4.948951e-02 -307.4122 1111.5312)" class="st84" cx="430.3" cy="717.3" rx="19.4" ry="55.3"/>
			
				<ellipse transform="matrix(4.982682e-02 -0.9988 0.9988 4.982682e-02 -306.6795 1111.0858)" class="st85" cx="430.6" cy="716.7" rx="18.7" ry="53.5"/>
			
				<ellipse transform="matrix(5.018556e-02 -0.9987 0.9987 5.018556e-02 -305.9554 1110.6249)" class="st86" cx="430.9" cy="716.2" rx="18" ry="51.8"/>
			
				<ellipse transform="matrix(5.056785e-02 -0.9987 0.9987 5.056785e-02 -305.2408 1110.1469)" class="st87" cx="431.3" cy="715.6" rx="17.3" ry="50.1"/>
		</g>
	</g>
</g>
</svg>
